<ttFont>
    <TTGlyph name="A" xMin="87" yMin="22" xMax="1238" yMax="1405">
      <contour>
        <pt x="733" y="575" on="1"/>
        <pt x="857" y="575" on="0"/>
        <pt x="857" y="607" on="1"/>
        <pt x="857" y="614" on="1"/>
        <pt x="857" y="631" on="0"/>
        <pt x="723" y="1164" on="0"/>
        <pt x="700" y="1164" on="1"/>
        <pt x="696" y="1164" on="1"/>
        <pt x="694" y="1164" on="0"/>
        <pt x="658" y="1086" on="1"/>
        <pt x="472" y="687" on="0"/>
        <pt x="472" y="600" on="1"/>
        <pt x="472" y="594" on="1"/>
        <pt x="472" y="579" on="0"/>
        <pt x="510" y="579" on="1"/>
        <pt x="526" y="577" on="1"/>
        <pt x="599" y="575" on="1"/>
      </contour>
      <contour>
        <pt x="710" y="1405" on="1"/>
        <pt x="733" y="1405" on="1"/>
        <pt x="818" y="1405" on="0"/>
        <pt x="885" y="1250" on="1"/>
        <pt x="999" y="989" on="0"/>
        <pt x="1144" y="407" on="1"/>
        <pt x="1163" y="333" on="0"/>
        <pt x="1238" y="185" on="0"/>
        <pt x="1238" y="165" on="1"/>
        <pt x="1238" y="108" on="0"/>
        <pt x="1162" y="22" on="0"/>
        <pt x="1110" y="22" on="1"/>
        <pt x="1088" y="22" on="1"/>
        <pt x="1001" y="22" on="0"/>
        <pt x="979" y="77" on="1"/>
        <pt x="975" y="86" on="0"/>
        <pt x="966" y="171" on="0"/>
        <pt x="958" y="208" on="1"/>
        <pt x="930" y="338" on="0"/>
        <pt x="847" y="435" on="0"/>
        <pt x="463" y="435" on="0"/>
        <pt x="372" y="347" on="0"/>
        <pt x="323" y="211" on="1"/>
        <pt x="308" y="169" on="0"/>
        <pt x="291" y="67" on="0"/>
        <pt x="282" y="52" on="1"/>
        <pt x="264" y="23" on="0"/>
        <pt x="153" y="23" on="0"/>
        <pt x="87" y="99" on="0"/>
        <pt x="87" y="202" on="0"/>
        <pt x="139" y="274" on="1"/>
        <pt x="190" y="346" on="0"/>
        <pt x="330" y="714" on="1"/>
        <pt x="550" y="1294" on="0"/>
        <pt x="626" y="1366" on="1"/>
        <pt x="668" y="1405" on="0"/>
      </contour>
    </TTGlyph>
    <TTGlyph name="AE" xMin="109" yMin="16" xMax="1660" yMax="1381">
      <contour>
        <pt x="868" y="1167" on="1"/>
        <pt x="868" y="1201" on="0"/>
        <pt x="852" y="1201" on="1"/>
        <pt x="816" y="1201" on="0"/>
        <pt x="756" y="1095" on="1"/>
        <pt x="519" y="674" on="0"/>
        <pt x="519" y="614" on="1"/>
        <pt x="519" y="609" on="1"/>
        <pt x="519" y="601" on="0"/>
        <pt x="572" y="601" on="1"/>
        <pt x="605" y="600" on="1"/>
        <pt x="613" y="599" on="1"/>
        <pt x="629" y="598" on="1"/>
        <pt x="668" y="595" on="1"/>
        <pt x="691" y="592" on="1"/>
        <pt x="707" y="590" on="0"/>
        <pt x="716" y="590" on="1"/>
        <pt x="795" y="590" on="1"/>
        <pt x="837" y="590" on="0"/>
        <pt x="851" y="652" on="0"/>
        <pt x="851" y="790" on="1"/>
        <pt x="853" y="837" on="1"/>
        <pt x="853" y="851" on="0"/>
        <pt x="853" y="865" on="1"/>
        <pt x="857" y="958" on="1"/>
        <pt x="858" y="967" on="0"/>
        <pt x="858" y="976" on="1"/>
        <pt x="862" y="1040" on="1"/>
        <pt x="863" y="1049" on="0"/>
        <pt x="863" y="1057" on="1"/>
        <pt x="865" y="1073" on="1"/>
        <pt x="868" y="1129" on="1"/>
      </contour>
      <contour>
        <pt x="1660" y="208" on="0"/>
        <pt x="1660" y="77" on="0"/>
        <pt x="1554" y="16" on="0"/>
        <pt x="1411" y="16" on="1"/>
        <pt x="1365" y="16" on="1"/>
        <pt x="1094" y="16" on="0"/>
        <pt x="924" y="60" on="0"/>
        <pt x="866" y="107" on="0"/>
        <pt x="866" y="155" on="1"/>
        <pt x="867" y="187" on="1"/>
        <pt x="872" y="259" on="1"/>
        <pt x="872" y="352" on="0"/>
        <pt x="803" y="450" on="0"/>
        <pt x="710" y="450" on="1"/>
        <pt x="548" y="450" on="0"/>
        <pt x="474" y="400" on="1"/>
        <pt x="420" y="363" on="0"/>
        <pt x="360" y="240" on="1"/>
        <pt x="340" y="199" on="0"/>
        <pt x="297" y="69" on="0"/>
        <pt x="293" y="64" on="1"/>
        <pt x="273" y="38" on="0"/>
        <pt x="181" y="38" on="0"/>
        <pt x="159" y="52" on="1"/>
        <pt x="109" y="83" on="0"/>
        <pt x="109" y="139" on="1"/>
        <pt x="109" y="167" on="1"/>
        <pt x="109" y="173" on="0"/>
        <pt x="238" y="387" on="0"/>
        <pt x="328" y="574" on="1"/>
        <pt x="657" y="1257" on="0"/>
        <pt x="768" y="1374" on="0"/>
        <pt x="1055" y="1374" on="1"/>
        <pt x="1327" y="1381" on="1"/>
        <pt x="1373" y="1381" on="1"/>
        <pt x="1514" y="1381" on="0"/>
        <pt x="1641" y="1321" on="0"/>
        <pt x="1641" y="1249" on="1"/>
        <pt x="1641" y="1217" on="0"/>
        <pt x="1575" y="1217" on="1"/>
        <pt x="1558" y="1217" on="0"/>
        <pt x="1338" y="1237" on="0"/>
        <pt x="1185" y="1237" on="0"/>
        <pt x="1104" y="1121" on="0"/>
        <pt x="1104" y="965" on="1"/>
        <pt x="1104" y="893" on="0"/>
        <pt x="1163" y="809" on="0"/>
        <pt x="1250" y="809" on="1"/>
        <pt x="1276" y="809" on="0"/>
        <pt x="1391" y="831" on="0"/>
        <pt x="1457" y="831" on="0"/>
        <pt x="1536" y="771" on="0"/>
        <pt x="1536" y="650" on="0"/>
        <pt x="1491" y="614" on="0"/>
        <pt x="1449" y="614" on="1"/>
        <pt x="1414" y="618" on="1"/>
        <pt x="1378" y="624" on="1"/>
        <pt x="1345" y="628" on="0"/>
        <pt x="1212" y="628" on="0"/>
        <pt x="1104" y="549" on="0"/>
        <pt x="1104" y="282" on="0"/>
        <pt x="1162" y="221" on="1"/>
        <pt x="1202" y="179" on="0"/>
        <pt x="1329" y="179" on="1"/>
        <pt x="1578" y="208" on="1"/>
      </contour>
    </TTGlyph>
    <TTGlyph name="Aacute" xMin="77" yMin="26" xMax="1229" yMax="1827">
      <contour>
        <pt x="828" y="601" on="1"/>
        <pt x="828" y="614" on="1"/>
        <pt x="828" y="661" on="0"/>
        <pt x="678" y="1111" on="1"/>
        <pt x="658" y="1171" on="0"/>
        <pt x="643" y="1171" on="1"/>
        <pt x="641" y="1171" on="0"/>
        <pt x="604" y="1092" on="1"/>
        <pt x="432" y="723" on="0"/>
        <pt x="432" y="604" on="1"/>
        <pt x="432" y="598" on="1"/>
        <pt x="432" y="580" on="0"/>
        <pt x="465" y="580" on="1"/>
        <pt x="529" y="580" on="1"/>
        <pt x="538" y="581" on="1"/>
        <pt x="641" y="583" on="1"/>
        <pt x="828" y="583" on="0"/>
      </contour>
      <contour>
        <pt x="588" y="1496" on="1"/>
        <pt x="571" y="1496" on="1"/>
        <pt x="534" y="1496" on="0"/>
        <pt x="534" y="1528" on="1"/>
        <pt x="534" y="1538" on="1"/>
        <pt x="534" y="1606" on="0"/>
        <pt x="712" y="1764" on="1"/>
        <pt x="783" y="1827" on="0"/>
        <pt x="849" y="1827" on="1"/>
        <pt x="870" y="1827" on="1"/>
        <pt x="948" y="1827" on="0"/>
        <pt x="948" y="1773" on="1"/>
        <pt x="948" y="1768" on="1"/>
        <pt x="948" y="1724" on="0"/>
        <pt x="847" y="1645" on="1"/>
        <pt x="655" y="1496" on="0"/>
      </contour>
      <contour>
        <pt x="1229" y="207" on="0"/>
        <pt x="1229" y="118" on="0"/>
        <pt x="1179" y="61" on="1"/>
        <pt x="1148" y="26" on="0"/>
        <pt x="1092" y="26" on="1"/>
        <pt x="1069" y="26" on="1"/>
        <pt x="985" y="26" on="0"/>
        <pt x="961" y="65" on="1"/>
        <pt x="948" y="86" on="0"/>
        <pt x="943" y="185" on="0"/>
        <pt x="938" y="208" on="1"/>
        <pt x="909" y="350" on="0"/>
        <pt x="851" y="394" on="1"/>
        <pt x="812" y="424" on="0"/>
        <pt x="429" y="424" on="0"/>
        <pt x="352" y="349" on="0"/>
        <pt x="317" y="216" on="1"/>
        <pt x="307" y="177" on="0"/>
        <pt x="295" y="67" on="0"/>
        <pt x="290" y="59" on="1"/>
        <pt x="272" y="30" on="0"/>
        <pt x="153" y="30" on="0"/>
        <pt x="126" y="60" on="1"/>
        <pt x="77" y="114" on="0"/>
        <pt x="77" y="195" on="0"/>
        <pt x="142" y="299" on="1"/>
        <pt x="161" y="329" on="0"/>
        <pt x="461" y="1178" on="0"/>
        <pt x="536" y="1343" on="0"/>
        <pt x="571" y="1369" on="1"/>
        <pt x="607" y="1395" on="0"/>
        <pt x="725" y="1395" on="0"/>
        <pt x="810" y="1308" on="0"/>
        <pt x="885" y="1144" on="0"/>
        <pt x="1003" y="782" on="1"/>
        <pt x="1038" y="679" on="1"/>
        <pt x="1047" y="651" on="0"/>
        <pt x="1134" y="375" on="0"/>
        <pt x="1161" y="307" on="0"/>
      </contour>
    </TTGlyph>
    <TTGlyph name="Acircumflex" xMin="74" yMin="14" xMax="1236" yMax="1826">
      <contour>
        <pt x="495" y="576" on="1"/>
        <pt x="747" y="576" on="1"/>
        <pt x="829" y="576" on="0"/>
        <pt x="829" y="598" on="1"/>
        <pt x="829" y="605" on="1"/>
        <pt x="829" y="707" on="0"/>
        <pt x="675" y="1092" on="1"/>
        <pt x="649" y="1158" on="0"/>
        <pt x="636" y="1158" on="0"/>
        <pt x="530" y="930" on="0"/>
        <pt x="435" y="607" on="0"/>
        <pt x="435" y="602" on="1"/>
        <pt x="435" y="596" on="1"/>
        <pt x="435" y="576" on="0"/>
      </contour>
      <contour>
        <pt x="669" y="1826" on="1"/>
        <pt x="686" y="1826" on="1"/>
        <pt x="745" y="1826" on="0"/>
        <pt x="797" y="1764" on="1"/>
        <pt x="975" y="1554" on="0"/>
        <pt x="975" y="1536" on="1"/>
        <pt x="975" y="1505" on="0"/>
        <pt x="861" y="1505" on="0"/>
        <pt x="788" y="1567" on="1"/>
        <pt x="783" y="1571" on="0"/>
        <pt x="673" y="1672" on="0"/>
        <pt x="661" y="1672" on="0"/>
        <pt x="603" y="1614" on="1"/>
        <pt x="481" y="1502" on="0"/>
        <pt x="424" y="1502" on="1"/>
        <pt x="416" y="1502" on="1"/>
        <pt x="362" y="1502" on="0"/>
        <pt x="362" y="1531" on="1"/>
        <pt x="362" y="1547" on="0"/>
        <pt x="391" y="1585" on="1"/>
        <pt x="498" y="1725" on="0"/>
        <pt x="618" y="1826" on="0"/>
      </contour>
      <contour>
        <pt x="1236" y="156" on="1"/>
        <pt x="1236" y="90" on="0"/>
        <pt x="1174" y="38" on="1"/>
        <pt x="1146" y="14" on="0"/>
        <pt x="990" y="14" on="0"/>
        <pt x="964" y="54" on="1"/>
        <pt x="953" y="72" on="0"/>
        <pt x="950" y="118" on="1"/>
        <pt x="936" y="323" on="0"/>
        <pt x="855" y="388" on="1"/>
        <pt x="815" y="420" on="0"/>
        <pt x="431" y="420" on="0"/>
        <pt x="354" y="350" on="0"/>
        <pt x="317" y="210" on="1"/>
        <pt x="305" y="166" on="0"/>
        <pt x="294" y="57" on="0"/>
        <pt x="289" y="49" on="1"/>
        <pt x="272" y="18" on="0"/>
        <pt x="149" y="18" on="0"/>
        <pt x="123" y="47" on="1"/>
        <pt x="74" y="101" on="0"/>
        <pt x="74" y="150" on="1"/>
        <pt x="74" y="170" on="1"/>
        <pt x="74" y="197" on="0"/>
        <pt x="147" y="301" on="0"/>
        <pt x="167" y="345" on="0"/>
        <pt x="467" y="1196" on="0"/>
        <pt x="539" y="1347" on="0"/>
        <pt x="607" y="1396" on="0"/>
        <pt x="718" y="1396" on="0"/>
        <pt x="760" y="1362" on="1"/>
        <pt x="851" y="1289" on="0"/>
        <pt x="998" y="805" on="1"/>
        <pt x="1104" y="455" on="0"/>
        <pt x="1168" y="294" on="0"/>
        <pt x="1236" y="196" on="0"/>
      </contour>
    </TTGlyph>
    <TTGlyph name="Adieresis" xMin="64" yMin="15" xMax="1224" yMax="1772">
      <contour>
        <pt x="524" y="577" on="1"/>
        <pt x="557" y="577" on="1"/>
        <pt x="566" y="578" on="1"/>
        <pt x="633" y="578" on="1"/>
        <pt x="815" y="578" on="0"/>
        <pt x="815" y="600" on="1"/>
        <pt x="815" y="606" on="1"/>
        <pt x="815" y="716" on="0"/>
        <pt x="658" y="1108" on="1"/>
        <pt x="635" y="1166" on="0"/>
        <pt x="622" y="1166" on="0"/>
        <pt x="592" y="1095" on="1"/>
        <pt x="425" y="705" on="0"/>
        <pt x="425" y="604" on="1"/>
        <pt x="425" y="598" on="1"/>
        <pt x="425" y="577" on="0"/>
      </contour>
      <contour>
        <pt x="360" y="1670" on="1"/>
        <pt x="360" y="1772" on="0"/>
        <pt x="463" y="1772" on="1"/>
        <pt x="490" y="1772" on="1"/>
        <pt x="581" y="1772" on="0"/>
        <pt x="581" y="1699" on="1"/>
        <pt x="584" y="1684" on="1"/>
        <pt x="584" y="1680" on="0"/>
        <pt x="584" y="1676" on="1"/>
        <pt x="585" y="1665" on="1"/>
        <pt x="584" y="1661" on="1"/>
        <pt x="584" y="1657" on="0"/>
        <pt x="584" y="1653" on="1"/>
        <pt x="583" y="1641" on="1"/>
        <pt x="579" y="1619" on="1"/>
        <pt x="579" y="1591" on="0"/>
        <pt x="523" y="1546" on="0"/>
        <pt x="469" y="1546" on="1"/>
        <pt x="465" y="1546" on="1"/>
        <pt x="461" y="1547" on="1"/>
        <pt x="431" y="1550" on="1"/>
        <pt x="427" y="1551" on="0"/>
        <pt x="424" y="1551" on="1"/>
        <pt x="363" y="1551" on="0"/>
        <pt x="363" y="1619" on="1"/>
        <pt x="360" y="1638" on="1"/>
      </contour>
      <contour>
        <pt x="748" y="1651" on="1"/>
        <pt x="750" y="1671" on="1"/>
        <pt x="750" y="1711" on="0"/>
        <pt x="810" y="1761" on="0"/>
        <pt x="862" y="1761" on="1"/>
        <pt x="873" y="1761" on="1"/>
        <pt x="877" y="1760" on="1"/>
        <pt x="903" y="1757" on="1"/>
        <pt x="907" y="1756" on="0"/>
        <pt x="910" y="1756" on="1"/>
        <pt x="969" y="1756" on="0"/>
        <pt x="969" y="1671" on="1"/>
        <pt x="969" y="1643" on="1"/>
        <pt x="965" y="1616" on="1"/>
        <pt x="965" y="1580" on="0"/>
        <pt x="906" y="1533" on="0"/>
        <pt x="849" y="1533" on="1"/>
        <pt x="830" y="1535" on="1"/>
        <pt x="823" y="1535" on="1"/>
        <pt x="815" y="1537" on="0"/>
        <pt x="812" y="1537" on="1"/>
        <pt x="751" y="1537" on="0"/>
        <pt x="751" y="1598" on="1"/>
        <pt x="749" y="1606" on="0"/>
        <pt x="749" y="1609" on="1"/>
        <pt x="747" y="1624" on="1"/>
        <pt x="747" y="1647" on="1"/>
      </contour>
      <contour>
        <pt x="653" y="1401" on="1"/>
        <pt x="716" y="1401" on="0"/>
        <pt x="801" y="1314" on="0"/>
        <pt x="884" y="1131" on="0"/>
        <pt x="1014" y="727" on="0"/>
        <pt x="1060" y="587" on="0"/>
        <pt x="1129" y="363" on="0"/>
        <pt x="1155" y="297" on="0"/>
        <pt x="1224" y="200" on="0"/>
        <pt x="1224" y="105" on="0"/>
        <pt x="1141" y="15" on="0"/>
        <pt x="1085" y="15" on="1"/>
        <pt x="1062" y="15" on="1"/>
        <pt x="992" y="15" on="0"/>
        <pt x="940" y="67" on="0"/>
        <pt x="940" y="204" on="0"/>
        <pt x="885" y="353" on="0"/>
        <pt x="861" y="378" on="1"/>
        <pt x="816" y="424" on="0"/>
        <pt x="418" y="424" on="0"/>
        <pt x="342" y="353" on="0"/>
        <pt x="306" y="213" on="1"/>
        <pt x="294" y="168" on="0"/>
        <pt x="286" y="61" on="0"/>
        <pt x="280" y="52" on="1"/>
        <pt x="261" y="21" on="0"/>
        <pt x="150" y="21" on="0"/>
        <pt x="125" y="40" on="1"/>
        <pt x="64" y="87" on="0"/>
        <pt x="64" y="194" on="0"/>
        <pt x="150" y="318" on="0"/>
        <pt x="187" y="418" on="0"/>
        <pt x="216" y="505" on="1"/>
        <pt x="233" y="555" on="1"/>
        <pt x="253" y="615" on="0"/>
        <pt x="259" y="632" on="1"/>
        <pt x="313" y="786" on="1"/>
        <pt x="461" y="1213" on="0"/>
        <pt x="557" y="1401" on="0"/>
      </contour>
    </TTGlyph>
    <TTGlyph name="Agrave" xMin="76" yMin="12" xMax="1232" yMax="1839">
      <contour>
        <pt x="553" y="569" on="1"/>
        <pt x="739" y="569" on="1"/>
        <pt x="829" y="569" on="0"/>
        <pt x="829" y="593" on="1"/>
        <pt x="829" y="599" on="1"/>
        <pt x="829" y="724" on="0"/>
        <pt x="672" y="1090" on="1"/>
        <pt x="644" y="1156" on="0"/>
        <pt x="634" y="1156" on="0"/>
        <pt x="536" y="946" on="0"/>
        <pt x="435" y="601" on="0"/>
        <pt x="435" y="598" on="1"/>
        <pt x="435" y="591" on="1"/>
        <pt x="435" y="569" on="0"/>
      </contour>
      <contour>
        <pt x="482" y="1839" on="1"/>
        <pt x="488" y="1839" on="1"/>
        <pt x="557" y="1839" on="0"/>
        <pt x="619" y="1785" on="1"/>
        <pt x="800" y="1627" on="0"/>
        <pt x="800" y="1553" on="1"/>
        <pt x="800" y="1548" on="1"/>
        <pt x="800" y="1512" on="0"/>
        <pt x="749" y="1512" on="1"/>
        <pt x="744" y="1513" on="1"/>
        <pt x="738" y="1513" on="1"/>
        <pt x="675" y="1513" on="0"/>
        <pt x="568" y="1596" on="1"/>
        <pt x="393" y="1732" on="0"/>
        <pt x="393" y="1777" on="1"/>
        <pt x="393" y="1782" on="1"/>
        <pt x="393" y="1839" on="0"/>
      </contour>
      <contour>
        <pt x="1232" y="156" on="1"/>
        <pt x="1232" y="89" on="0"/>
        <pt x="1172" y="36" on="1"/>
        <pt x="1145" y="12" on="0"/>
        <pt x="1097" y="12" on="1"/>
        <pt x="1050" y="12" on="1"/>
        <pt x="988" y="12" on="0"/>
        <pt x="963" y="52" on="1"/>
        <pt x="951" y="71" on="0"/>
        <pt x="946" y="172" on="0"/>
        <pt x="941" y="196" on="1"/>
        <pt x="916" y="323" on="0"/>
        <pt x="827" y="420" on="0"/>
        <pt x="433" y="420" on="0"/>
        <pt x="352" y="349" on="0"/>
        <pt x="316" y="210" on="1"/>
        <pt x="306" y="172" on="0"/>
        <pt x="294" y="53" on="0"/>
        <pt x="290" y="47" on="1"/>
        <pt x="272" y="16" on="0"/>
        <pt x="152" y="16" on="0"/>
        <pt x="125" y="44" on="1"/>
        <pt x="76" y="95" on="0"/>
        <pt x="76" y="194" on="0"/>
        <pt x="157" y="313" on="0"/>
        <pt x="470" y="1198" on="0"/>
        <pt x="533" y="1345" on="0"/>
        <pt x="605" y="1399" on="0"/>
        <pt x="724" y="1399" on="0"/>
        <pt x="804" y="1319" on="0"/>
        <pt x="901" y="1116" on="0"/>
        <pt x="1128" y="392" on="1"/>
        <pt x="1149" y="325" on="0"/>
        <pt x="1232" y="189" on="0"/>
      </contour>
    </TTGlyph>
    <TTGlyph name="Aring" xMin="57" yMin="26" xMax="1237" yMax="1884">
      <contour>
        <pt x="552" y="1702" on="1"/>
        <pt x="552" y="1674" on="1"/>
        <pt x="552" y="1646" on="0"/>
        <pt x="600" y="1587" on="0"/>
        <pt x="626" y="1587" on="1"/>
        <pt x="643" y="1583" on="1"/>
        <pt x="672" y="1583" on="1"/>
        <pt x="712" y="1583" on="0"/>
        <pt x="764" y="1648" on="0"/>
        <pt x="764" y="1678" on="1"/>
        <pt x="764" y="1699" on="1"/>
        <pt x="763" y="1703" on="1"/>
        <pt x="763" y="1706" on="0"/>
        <pt x="763" y="1709" on="1"/>
        <pt x="760" y="1723" on="1"/>
        <pt x="760" y="1733" on="0"/>
        <pt x="711" y="1794" on="0"/>
        <pt x="662" y="1794" on="1"/>
        <pt x="654" y="1794" on="1"/>
        <pt x="618" y="1794" on="0"/>
        <pt x="552" y="1742" on="0"/>
      </contour>
      <contour>
        <pt x="823" y="601" on="1"/>
        <pt x="823" y="607" on="1"/>
        <pt x="823" y="624" on="0"/>
        <pt x="715" y="990" on="0"/>
        <pt x="638" y="1170" on="0"/>
        <pt x="634" y="1170" on="1"/>
        <pt x="630" y="1170" on="1"/>
        <pt x="626" y="1170" on="0"/>
        <pt x="597" y="1102" on="1"/>
        <pt x="429" y="710" on="0"/>
        <pt x="429" y="606" on="1"/>
        <pt x="429" y="600" on="1"/>
        <pt x="429" y="580" on="0"/>
        <pt x="530" y="580" on="1"/>
        <pt x="563" y="580" on="1"/>
        <pt x="572" y="581" on="1"/>
        <pt x="689" y="580" on="1"/>
        <pt x="740" y="580" on="1"/>
        <pt x="748" y="581" on="1"/>
        <pt x="764" y="581" on="1"/>
        <pt x="795" y="583" on="1"/>
        <pt x="823" y="583" on="0"/>
      </contour>
      <contour>
        <pt x="678" y="1884" on="1"/>
        <pt x="750" y="1884" on="0"/>
        <pt x="864" y="1782" on="0"/>
        <pt x="864" y="1718" on="1"/>
        <pt x="866" y="1704" on="1"/>
        <pt x="866" y="1684" on="1"/>
        <pt x="866" y="1602" on="0"/>
        <pt x="744" y="1492" on="0"/>
        <pt x="659" y="1492" on="1"/>
        <pt x="645" y="1492" on="1"/>
        <pt x="560" y="1492" on="0"/>
        <pt x="450" y="1602" on="0"/>
        <pt x="450" y="1672" on="1"/>
        <pt x="450" y="1699" on="1"/>
        <pt x="450" y="1769" on="0"/>
        <pt x="563" y="1882" on="0"/>
        <pt x="630" y="1882" on="1"/>
        <pt x="643" y="1884" on="1"/>
      </contour>
      <contour>
        <pt x="801" y="447" on="0"/>
        <pt x="417" y="447" on="0"/>
        <pt x="379" y="405" on="1"/>
        <pt x="354" y="378" on="0"/>
        <pt x="288" y="183" on="0"/>
        <pt x="288" y="90" on="1"/>
        <pt x="288" y="34" on="0"/>
        <pt x="141" y="34" on="0"/>
        <pt x="113" y="62" on="1"/>
        <pt x="57" y="118" on="0"/>
        <pt x="57" y="182" on="1"/>
        <pt x="57" y="207" on="0"/>
        <pt x="129" y="312" on="0"/>
        <pt x="177" y="418" on="0"/>
        <pt x="258" y="675" on="0"/>
        <pt x="435" y="1176" on="0"/>
        <pt x="515" y="1345" on="0"/>
        <pt x="583" y="1406" on="0"/>
        <pt x="632" y="1406" on="1"/>
        <pt x="658" y="1406" on="1"/>
        <pt x="720" y="1406" on="0"/>
        <pt x="819" y="1301" on="0"/>
        <pt x="926" y="1061" on="0"/>
        <pt x="1117" y="417" on="0"/>
        <pt x="1171" y="291" on="0"/>
        <pt x="1237" y="200" on="0"/>
        <pt x="1237" y="173" on="1"/>
        <pt x="1237" y="152" on="1"/>
        <pt x="1237" y="104" on="0"/>
        <pt x="1175" y="53" on="1"/>
        <pt x="1142" y="26" on="0"/>
        <pt x="1002" y="26" on="0"/>
        <pt x="939" y="70" on="0"/>
        <pt x="939" y="124" on="1"/>
        <pt x="941" y="160" on="1"/>
        <pt x="941" y="233" on="0"/>
        <pt x="884" y="381" on="0"/>
      </contour>
    </TTGlyph>
    <TTGlyph name="Atilde" xMin="78" yMin="17" xMax="1234" yMax="1766">
      <contour>
        <pt x="622" y="582" on="1"/>
        <pt x="766" y="582" on="1"/>
        <pt x="833" y="582" on="0"/>
        <pt x="833" y="604" on="1"/>
        <pt x="833" y="610" on="1"/>
        <pt x="833" y="708" on="0"/>
        <pt x="676" y="1100" on="1"/>
        <pt x="650" y="1166" on="0"/>
        <pt x="633" y="1166" on="0"/>
        <pt x="604" y="1094" on="1"/>
        <pt x="435" y="671" on="0"/>
        <pt x="435" y="608" on="1"/>
        <pt x="435" y="602" on="1"/>
        <pt x="435" y="582" on="0"/>
      </contour>
      <contour>
        <pt x="523" y="1766" on="1"/>
        <pt x="548" y="1766" on="1"/>
        <pt x="598" y="1766" on="0"/>
        <pt x="780" y="1675" on="0"/>
        <pt x="848" y="1675" on="0"/>
        <pt x="946" y="1750" on="0"/>
        <pt x="968" y="1750" on="1"/>
        <pt x="1007" y="1750" on="0"/>
        <pt x="1007" y="1641" on="0"/>
        <pt x="886" y="1530" on="0"/>
        <pt x="812" y="1530" on="1"/>
        <pt x="804" y="1531" on="1"/>
        <pt x="748" y="1531" on="0"/>
        <pt x="572" y="1619" on="0"/>
        <pt x="496" y="1619" on="0"/>
        <pt x="397" y="1543" on="0"/>
        <pt x="375" y="1543" on="1"/>
        <pt x="335" y="1543" on="0"/>
        <pt x="335" y="1652" on="0"/>
        <pt x="458" y="1766" on="0"/>
      </contour>
      <contour>
        <pt x="610" y="1400" on="0"/>
        <pt x="718" y="1400" on="0"/>
        <pt x="802" y="1330" on="0"/>
        <pt x="908" y="1096" on="0"/>
        <pt x="1145" y="347" on="0"/>
        <pt x="1162" y="301" on="0"/>
        <pt x="1234" y="197" on="0"/>
        <pt x="1234" y="104" on="0"/>
        <pt x="1147" y="17" on="0"/>
        <pt x="1092" y="17" on="1"/>
        <pt x="1069" y="17" on="1"/>
        <pt x="999" y="17" on="0"/>
        <pt x="948" y="68" on="0"/>
        <pt x="948" y="211" on="0"/>
        <pt x="893" y="354" on="0"/>
        <pt x="870" y="378" on="1"/>
        <pt x="825" y="424" on="0"/>
        <pt x="430" y="424" on="0"/>
        <pt x="365" y="362" on="0"/>
        <pt x="300" y="172" on="0"/>
        <pt x="300" y="92" on="1"/>
        <pt x="300" y="20" on="0"/>
        <pt x="214" y="20" on="1"/>
        <pt x="154" y="20" on="0"/>
        <pt x="127" y="50" on="1"/>
        <pt x="78" y="104" on="0"/>
        <pt x="78" y="151" on="1"/>
        <pt x="78" y="171" on="1"/>
        <pt x="78" y="202" on="0"/>
        <pt x="151" y="298" on="0"/>
        <pt x="181" y="368" on="0"/>
        <pt x="469" y="1202" on="0"/>
        <pt x="542" y="1351" on="0"/>
      </contour>
    </TTGlyph>
    <TTGlyph name="B" xMin="135" yMin="-2" xMax="1145" yMax="1406">
      <contour>
        <pt x="885" y="1052" on="1"/>
        <pt x="885" y="1070" on="1"/>
        <pt x="885" y="1171" on="0"/>
        <pt x="746" y="1275" on="0"/>
        <pt x="632" y="1275" on="1"/>
        <pt x="575" y="1275" on="1"/>
        <pt x="498" y="1275" on="0"/>
        <pt x="446" y="1239" on="0"/>
        <pt x="446" y="1186" on="1"/>
        <pt x="442" y="1154" on="0"/>
        <pt x="442" y="1146" on="1"/>
        <pt x="432" y="961" on="1"/>
        <pt x="432" y="944" on="1"/>
        <pt x="429" y="894" on="1"/>
        <pt x="429" y="877" on="1"/>
        <pt x="428" y="861" on="1"/>
        <pt x="428" y="822" on="0"/>
        <pt x="463" y="798" on="0"/>
        <pt x="514" y="798" on="1"/>
        <pt x="555" y="798" on="1"/>
        <pt x="563" y="799" on="1"/>
        <pt x="571" y="799" on="1"/>
        <pt x="596" y="800" on="1"/>
        <pt x="646" y="804" on="1"/>
        <pt x="750" y="804" on="0"/>
        <pt x="885" y="952" on="0"/>
      </contour>
      <contour>
        <pt x="401" y="214" on="1"/>
        <pt x="401" y="172" on="0"/>
        <pt x="456" y="142" on="0"/>
        <pt x="563" y="142" on="1"/>
        <pt x="582" y="142" on="1"/>
        <pt x="754" y="142" on="0"/>
        <pt x="833" y="204" on="1"/>
        <pt x="932" y="282" on="0"/>
        <pt x="932" y="415" on="1"/>
        <pt x="932" y="435" on="1"/>
        <pt x="932" y="547" on="0"/>
        <pt x="777" y="678" on="0"/>
        <pt x="635" y="678" on="1"/>
        <pt x="550" y="678" on="1"/>
        <pt x="520" y="675" on="0"/>
        <pt x="487" y="675" on="1"/>
        <pt x="417" y="675" on="0"/>
        <pt x="417" y="572" on="1"/>
        <pt x="413" y="534" on="0"/>
        <pt x="413" y="525" on="1"/>
        <pt x="405" y="373" on="1"/>
        <pt x="405" y="354" on="1"/>
        <pt x="401" y="251" on="1"/>
      </contour>
      <contour>
        <pt x="1090" y="1078" on="1"/>
        <pt x="1090" y="919" on="0"/>
        <pt x="971" y="813" on="1"/>
        <pt x="913" y="762" on="0"/>
        <pt x="913" y="754" on="0"/>
        <pt x="982" y="708" on="1"/>
        <pt x="1145" y="601" on="0"/>
        <pt x="1145" y="202" on="0"/>
        <pt x="972" y="89" on="1"/>
        <pt x="834" y="-2" on="0"/>
        <pt x="533" y="-2" on="1"/>
        <pt x="509" y="-2" on="1"/>
        <pt x="485" y="-1" on="1"/>
        <pt x="461" y="-1" on="1"/>
        <pt x="237" y="-1" on="0"/>
        <pt x="135" y="22" on="0"/>
        <pt x="135" y="50" on="1"/>
        <pt x="135" y="66" on="1"/>
        <pt x="135" y="90" on="0"/>
        <pt x="165" y="150" on="1"/>
        <pt x="179" y="190" on="0"/>
        <pt x="186" y="256" on="1"/>
        <pt x="214" y="519" on="0"/>
        <pt x="214" y="857" on="1"/>
        <pt x="219" y="999" on="1"/>
        <pt x="221" y="1045" on="1"/>
        <pt x="222" y="1115" on="1"/>
        <pt x="222" y="1209" on="0"/>
        <pt x="208" y="1259" on="1"/>
        <pt x="198" y="1292" on="1"/>
        <pt x="191" y="1316" on="0"/>
        <pt x="191" y="1337" on="1"/>
        <pt x="191" y="1374" on="0"/>
        <pt x="299" y="1402" on="0"/>
        <pt x="454" y="1402" on="1"/>
        <pt x="477" y="1403" on="1"/>
        <pt x="501" y="1404" on="0"/>
        <pt x="525" y="1404" on="1"/>
        <pt x="622" y="1406" on="1"/>
        <pt x="1090" y="1406" on="0"/>
      </contour>
    </TTGlyph>
    <TTGlyph name="C" xMin="112" yMin="-11" xMax="1176" yMax="1412">
      <contour>
        <pt x="112" y="623" on="1"/>
        <pt x="112" y="655" on="1"/>
        <pt x="112" y="814" on="0"/>
        <pt x="162" y="962" on="1"/>
        <pt x="256" y="1239" on="0"/>
        <pt x="493" y="1351" on="1"/>
        <pt x="622" y="1412" on="0"/>
        <pt x="760" y="1412" on="1"/>
        <pt x="791" y="1412" on="1"/>
        <pt x="1000" y="1412" on="0"/>
        <pt x="1176" y="1290" on="0"/>
        <pt x="1176" y="1197" on="1"/>
        <pt x="1176" y="1141" on="0"/>
        <pt x="1132" y="1103" on="0"/>
        <pt x="1091" y="1103" on="0"/>
        <pt x="958" y="1195" on="0"/>
        <pt x="834" y="1246" on="0"/>
        <pt x="648" y="1246" on="0"/>
        <pt x="572" y="1200" on="1"/>
        <pt x="344" y="1061" on="0"/>
        <pt x="343" y="629" on="1"/>
        <pt x="343" y="517" on="0"/>
        <pt x="373" y="427" on="1"/>
        <pt x="464" y="155" on="0"/>
        <pt x="736" y="155" on="1"/>
        <pt x="868" y="155" on="0"/>
        <pt x="1040" y="251" on="1"/>
        <pt x="1094" y="281" on="0"/>
        <pt x="1120" y="281" on="1"/>
        <pt x="1163" y="281" on="0"/>
        <pt x="1163" y="232" on="1"/>
        <pt x="1163" y="201" on="0"/>
        <pt x="1135" y="163" on="1"/>
        <pt x="1086" y="95" on="0"/>
        <pt x="1007" y="56" on="1"/>
        <pt x="873" y="-11" on="0"/>
        <pt x="709" y="-11" on="1"/>
        <pt x="677" y="-11" on="1"/>
        <pt x="421" y="-11" on="0"/>
        <pt x="265" y="160" on="1"/>
        <pt x="191" y="241" on="0"/>
        <pt x="112" y="487" on="0"/>
      </contour>
    </TTGlyph>
    <TTGlyph name="Ccedilla" xMin="100" yMin="-454" xMax="1185" yMax="1398">
      <contour>
        <pt x="513" y="-409" on="1"/>
        <pt x="513" y="-395" on="1"/>
        <pt x="513" y="-345" on="0"/>
        <pt x="624" y="-345" on="0"/>
        <pt x="690" y="-299" on="0"/>
        <pt x="690" y="-218" on="0"/>
        <pt x="599" y="-151" on="0"/>
        <pt x="599" y="-118" on="1"/>
        <pt x="599" y="-82" on="0"/>
        <pt x="632" y="-33" on="1"/>
        <pt x="634" y="-30" on="0"/>
        <pt x="637" y="-27" on="1"/>
        <pt x="537" y="-19" on="0"/>
        <pt x="446" y="20" on="1"/>
        <pt x="225" y="115" on="0"/>
        <pt x="146" y="349" on="1"/>
        <pt x="100" y="485" on="0"/>
        <pt x="100" y="632" on="1"/>
        <pt x="100" y="700" on="1"/>
        <pt x="100" y="834" on="0"/>
        <pt x="189" y="1109" on="0"/>
        <pt x="339" y="1290" on="0"/>
        <pt x="577" y="1398" on="0"/>
        <pt x="701" y="1398" on="1"/>
        <pt x="733" y="1398" on="1"/>
        <pt x="805" y="1398" on="0"/>
        <pt x="1057" y="1333" on="0"/>
        <pt x="1072" y="1325" on="1"/>
        <pt x="1111" y="1305" on="0"/>
        <pt x="1185" y="1200" on="0"/>
        <pt x="1185" y="1149" on="1"/>
        <pt x="1185" y="1060" on="0"/>
        <pt x="1114" y="1060" on="1"/>
        <pt x="1099" y="1060" on="0"/>
        <pt x="868" y="1178" on="0"/>
        <pt x="764" y="1213" on="0"/>
        <pt x="605" y="1213" on="0"/>
        <pt x="539" y="1172" on="1"/>
        <pt x="349" y="1052" on="0"/>
        <pt x="349" y="669" on="1"/>
        <pt x="349" y="164" on="0"/>
        <pt x="702" y="164" on="1"/>
        <pt x="785" y="164" on="0"/>
        <pt x="1104" y="299" on="0"/>
        <pt x="1121" y="299" on="1"/>
        <pt x="1176" y="299" on="0"/>
        <pt x="1176" y="234" on="1"/>
        <pt x="1176" y="208" on="0"/>
        <pt x="1138" y="154" on="1"/>
        <pt x="1099" y="99" on="0"/>
        <pt x="1042" y="64" on="1"/>
        <pt x="892" y="-28" on="0"/>
        <pt x="727" y="-29" on="1"/>
        <pt x="730" y="-41" on="0"/>
        <pt x="730" y="-59" on="1"/>
        <pt x="730" y="-67" on="0"/>
        <pt x="864" y="-189" on="0"/>
        <pt x="864" y="-266" on="1"/>
        <pt x="864" y="-274" on="1"/>
        <pt x="864" y="-348" on="0"/>
        <pt x="726" y="-454" on="0"/>
        <pt x="617" y="-454" on="1"/>
        <pt x="600" y="-454" on="1"/>
        <pt x="513" y="-454" on="0"/>
      </contour>
    </TTGlyph>
    <TTGlyph name="D" xMin="140" yMin="1" xMax="1291" yMax="1406">
      <contour>
        <pt x="440" y="1044" on="1"/>
        <pt x="433" y="939" on="0"/>
        <pt x="433" y="888" on="1"/>
        <pt x="431" y="856" on="1"/>
        <pt x="428" y="761" on="1"/>
        <pt x="426" y="729" on="1"/>
        <pt x="422" y="618" on="1"/>
        <pt x="420" y="586" on="0"/>
        <pt x="420" y="570" on="1"/>
        <pt x="418" y="538" on="1"/>
        <pt x="416" y="506" on="0"/>
        <pt x="416" y="491" on="1"/>
        <pt x="414" y="460" on="1"/>
        <pt x="413" y="444" on="0"/>
        <pt x="413" y="428" on="1"/>
        <pt x="411" y="397" on="1"/>
        <pt x="408" y="288" on="1"/>
        <pt x="408" y="228" on="1"/>
        <pt x="408" y="180" on="0"/>
        <pt x="480" y="147" on="0"/>
        <pt x="549" y="147" on="1"/>
        <pt x="594" y="147" on="1"/>
        <pt x="808" y="147" on="0"/>
        <pt x="932" y="306" on="1"/>
        <pt x="986" y="375" on="0"/>
        <pt x="1054" y="601" on="0"/>
        <pt x="1054" y="742" on="1"/>
        <pt x="1054" y="759" on="1"/>
        <pt x="1054" y="1128" on="0"/>
        <pt x="812" y="1237" on="1"/>
        <pt x="740" y="1269" on="0"/>
        <pt x="650" y="1269" on="1"/>
        <pt x="604" y="1269" on="1"/>
        <pt x="492" y="1269" on="0"/>
        <pt x="440" y="1198" on="0"/>
      </contour>
      <contour>
        <pt x="192" y="1325" on="1"/>
        <pt x="192" y="1373" on="0"/>
        <pt x="256" y="1385" on="1"/>
        <pt x="370" y="1406" on="0"/>
        <pt x="588" y="1406" on="1"/>
        <pt x="636" y="1406" on="1"/>
        <pt x="1102" y="1406" on="0"/>
        <pt x="1242" y="1050" on="1"/>
        <pt x="1291" y="926" on="0"/>
        <pt x="1291" y="771" on="1"/>
        <pt x="1291" y="765" on="1"/>
        <pt x="1291" y="740" on="1"/>
        <pt x="1291" y="579" on="0"/>
        <pt x="1177" y="266" on="0"/>
        <pt x="958" y="78" on="0"/>
        <pt x="704" y="1" on="0"/>
        <pt x="500" y="1" on="1"/>
        <pt x="477" y="1" on="1"/>
        <pt x="453" y="2" on="1"/>
        <pt x="235" y="2" on="0"/>
        <pt x="173" y="22" on="1"/>
        <pt x="140" y="33" on="0"/>
        <pt x="140" y="70" on="1"/>
        <pt x="140" y="81" on="0"/>
        <pt x="166" y="138" on="1"/>
        <pt x="213" y="241" on="0"/>
        <pt x="213" y="509" on="1"/>
        <pt x="225" y="812" on="1"/>
        <pt x="227" y="858" on="1"/>
        <pt x="230" y="1017" on="1"/>
        <pt x="230" y="1159" on="0"/>
        <pt x="222" y="1223" on="0"/>
        <pt x="192" y="1311" on="0"/>
      </contour>
    </TTGlyph>
    <TTGlyph name="E" xMin="130" yMin="2" xMax="1068" yMax="1409">
      <contour>
        <pt x="633" y="2" on="1"/>
        <pt x="481" y="2" on="1"/>
        <pt x="267" y="2" on="0"/>
        <pt x="130" y="44" on="0"/>
        <pt x="130" y="102" on="1"/>
        <pt x="130" y="117" on="0"/>
        <pt x="175" y="238" on="0"/>
        <pt x="182" y="316" on="1"/>
        <pt x="234" y="866" on="0"/>
        <pt x="234" y="1135" on="1"/>
        <pt x="234" y="1193" on="0"/>
        <pt x="223" y="1229" on="1"/>
        <pt x="214" y="1254" on="1"/>
        <pt x="200" y="1293" on="0"/>
        <pt x="200" y="1305" on="1"/>
        <pt x="200" y="1371" on="0"/>
        <pt x="297" y="1385" on="1"/>
        <pt x="458" y="1409" on="0"/>
        <pt x="846" y="1409" on="1"/>
        <pt x="979" y="1409" on="0"/>
        <pt x="1068" y="1366" on="0"/>
        <pt x="1068" y="1264" on="0"/>
        <pt x="1030" y="1218" on="0"/>
        <pt x="974" y="1218" on="1"/>
        <pt x="964" y="1218" on="0"/>
        <pt x="782" y="1246" on="0"/>
        <pt x="548" y="1246" on="0"/>
        <pt x="508" y="1189" on="1"/>
        <pt x="454" y="1112" on="0"/>
        <pt x="454" y="939" on="1"/>
        <pt x="454" y="866" on="0"/>
        <pt x="540" y="813" on="0"/>
        <pt x="681" y="813" on="0"/>
        <pt x="793" y="841" on="0"/>
        <pt x="867" y="841" on="0"/>
        <pt x="917" y="786" on="0"/>
        <pt x="917" y="730" on="1"/>
        <pt x="917" y="614" on="0"/>
        <pt x="806" y="614" on="1"/>
        <pt x="775" y="618" on="1"/>
        <pt x="716" y="632" on="1"/>
        <pt x="671" y="641" on="0"/>
        <pt x="622" y="641" on="1"/>
        <pt x="492" y="641" on="0"/>
        <pt x="418" y="556" on="0"/>
        <pt x="418" y="272" on="0"/>
        <pt x="488" y="159" on="0"/>
        <pt x="744" y="159" on="0"/>
        <pt x="959" y="206" on="0"/>
        <pt x="985" y="206" on="1"/>
        <pt x="1050" y="206" on="0"/>
        <pt x="1050" y="145" on="1"/>
        <pt x="1050" y="51" on="0"/>
        <pt x="964" y="23" on="1"/>
        <pt x="899" y="2" on="0"/>
      </contour>
    </TTGlyph>
    <TTGlyph name="Eacute" xMin="135" yMin="39" xMax="1049" yMax="1828">
      <contour>
        <pt x="554" y="1482" on="1"/>
        <pt x="528" y="1482" on="1"/>
        <pt x="487" y="1482" on="0"/>
        <pt x="487" y="1520" on="1"/>
        <pt x="487" y="1534" on="1"/>
        <pt x="487" y="1608" on="0"/>
        <pt x="672" y="1770" on="1"/>
        <pt x="738" y="1828" on="0"/>
        <pt x="789" y="1828" on="1"/>
        <pt x="814" y="1828" on="1"/>
        <pt x="890" y="1828" on="0"/>
        <pt x="890" y="1793" on="1"/>
        <pt x="890" y="1783" on="1"/>
        <pt x="890" y="1760" on="0"/>
        <pt x="612" y="1482" on="0"/>
      </contour>
      <contour>
        <pt x="808" y="863" on="1"/>
        <pt x="905" y="863" on="0"/>
        <pt x="905" y="748" on="1"/>
        <pt x="905" y="684" on="0"/>
        <pt x="863" y="623" on="0"/>
        <pt x="811" y="623" on="1"/>
        <pt x="807" y="623" on="0"/>
        <pt x="670" y="660" on="0"/>
        <pt x="628" y="660" on="1"/>
        <pt x="499" y="660" on="0"/>
        <pt x="425" y="584" on="0"/>
        <pt x="425" y="307" on="0"/>
        <pt x="488" y="197" on="0"/>
        <pt x="718" y="197" on="0"/>
        <pt x="959" y="240" on="0"/>
        <pt x="983" y="240" on="1"/>
        <pt x="1049" y="240" on="0"/>
        <pt x="1049" y="175" on="1"/>
        <pt x="1049" y="90" on="0"/>
        <pt x="988" y="61" on="1"/>
        <pt x="942" y="39" on="0"/>
        <pt x="748" y="39" on="1"/>
        <pt x="559" y="39" on="1"/>
        <pt x="278" y="39" on="0"/>
        <pt x="135" y="75" on="0"/>
        <pt x="135" y="128" on="1"/>
        <pt x="135" y="150" on="0"/>
        <pt x="182" y="266" on="0"/>
        <pt x="196" y="428" on="0"/>
        <pt x="196" y="592" on="1"/>
        <pt x="197" y="629" on="1"/>
        <pt x="198" y="666" on="0"/>
        <pt x="198" y="704" on="1"/>
        <pt x="199" y="741" on="1"/>
        <pt x="200" y="779" on="0"/>
        <pt x="200" y="816" on="1"/>
        <pt x="202" y="890" on="1"/>
        <pt x="202" y="1038" on="1"/>
        <pt x="202" y="1173" on="0"/>
        <pt x="155" y="1305" on="0"/>
        <pt x="155" y="1313" on="1"/>
        <pt x="155" y="1368" on="0"/>
        <pt x="224" y="1382" on="1"/>
        <pt x="329" y="1404" on="0"/>
        <pt x="654" y="1404" on="1"/>
        <pt x="841" y="1404" on="1"/>
        <pt x="962" y="1404" on="0"/>
        <pt x="1034" y="1351" on="0"/>
        <pt x="1034" y="1216" on="0"/>
        <pt x="970" y="1216" on="1"/>
        <pt x="945" y="1216" on="0"/>
        <pt x="835" y="1232" on="1"/>
        <pt x="726" y="1248" on="0"/>
        <pt x="612" y="1248" on="1"/>
        <pt x="610" y="1249" on="1"/>
        <pt x="498" y="1249" on="0"/>
        <pt x="434" y="1115" on="0"/>
        <pt x="434" y="956" on="1"/>
        <pt x="434" y="885" on="0"/>
        <pt x="531" y="828" on="0"/>
        <pt x="666" y="828" on="0"/>
        <pt x="793" y="863" on="0"/>
      </contour>
    </TTGlyph>
    <TTGlyph name="Ecircumflex" xMin="127" yMin="4" xMax="1058" yMax="1836">
      <contour>
        <pt x="127" y="95" on="1"/>
        <pt x="127" y="118" on="0"/>
        <pt x="176" y="234" on="0"/>
        <pt x="191" y="413" on="0"/>
        <pt x="191" y="681" on="1"/>
        <pt x="193" y="795" on="1"/>
        <pt x="194" y="833" on="1"/>
        <pt x="195" y="909" on="1"/>
        <pt x="195" y="984" on="1"/>
        <pt x="195" y="1154" on="0"/>
        <pt x="147" y="1297" on="0"/>
        <pt x="147" y="1302" on="1"/>
        <pt x="147" y="1359" on="0"/>
        <pt x="215" y="1374" on="1"/>
        <pt x="316" y="1396" on="0"/>
        <pt x="652" y="1396" on="1"/>
        <pt x="766" y="1396" on="1"/>
        <pt x="942" y="1396" on="0"/>
        <pt x="980" y="1382" on="1"/>
        <pt x="1040" y="1360" on="0"/>
        <pt x="1040" y="1274" on="1"/>
        <pt x="1040" y="1203" on="0"/>
        <pt x="951" y="1203" on="1"/>
        <pt x="948" y="1203" on="0"/>
        <pt x="719" y="1236" on="0"/>
        <pt x="490" y="1236" on="0"/>
        <pt x="425" y="1098" on="0"/>
        <pt x="425" y="937" on="1"/>
        <pt x="425" y="863" on="0"/>
        <pt x="523" y="807" on="0"/>
        <pt x="668" y="807" on="0"/>
        <pt x="796" y="841" on="0"/>
        <pt x="807" y="841" on="1"/>
        <pt x="860" y="841" on="0"/>
        <pt x="908" y="787" on="0"/>
        <pt x="908" y="662" on="0"/>
        <pt x="865" y="598" on="0"/>
        <pt x="813" y="598" on="1"/>
        <pt x="803" y="598" on="0"/>
        <pt x="666" y="637" on="0"/>
        <pt x="627" y="637" on="1"/>
        <pt x="496" y="637" on="0"/>
        <pt x="418" y="561" on="0"/>
        <pt x="418" y="441" on="1"/>
        <pt x="418" y="247" on="0"/>
        <pt x="468" y="197" on="1"/>
        <pt x="500" y="165" on="0"/>
        <pt x="736" y="165" on="0"/>
        <pt x="960" y="209" on="0"/>
        <pt x="989" y="209" on="1"/>
        <pt x="1058" y="209" on="0"/>
        <pt x="1058" y="144" on="1"/>
        <pt x="1058" y="56" on="0"/>
        <pt x="949" y="4" on="0"/>
        <pt x="753" y="4" on="1"/>
        <pt x="523" y="4" on="1"/>
        <pt x="271" y="4" on="0"/>
        <pt x="127" y="39" on="0"/>
      </contour>
      <contour>
        <pt x="619" y="1836" on="1"/>
        <pt x="619" y="1836" on="0"/>
        <pt x="635" y="1836" on="1"/>
        <pt x="708" y="1836" on="0"/>
        <pt x="854" y="1648" on="1"/>
        <pt x="923" y="1559" on="0"/>
        <pt x="923" y="1550" on="1"/>
        <pt x="923" y="1544" on="1"/>
        <pt x="923" y="1514" on="0"/>
        <pt x="872" y="1514" on="1"/>
        <pt x="857" y="1514" on="1"/>
        <pt x="806" y="1514" on="0"/>
        <pt x="677" y="1633" on="1"/>
        <pt x="625" y="1681" on="0"/>
        <pt x="613" y="1681" on="0"/>
        <pt x="433" y="1516" on="0"/>
        <pt x="315" y="1516" on="0"/>
        <pt x="315" y="1544" on="1"/>
        <pt x="315" y="1603" on="0"/>
        <pt x="520" y="1791" on="1"/>
        <pt x="569" y="1836" on="0"/>
      </contour>
    </TTGlyph>
    <TTGlyph name="Edieresis" xMin="129" yMin="16" xMax="1054" yMax="1772">
      <contour>
        <pt x="527" y="1653" on="1"/>
        <pt x="524" y="1602" on="1"/>
        <pt x="524" y="1584" on="0"/>
        <pt x="478" y="1538" on="0"/>
        <pt x="450" y="1538" on="1"/>
        <pt x="433" y="1535" on="1"/>
        <pt x="406" y="1535" on="1"/>
        <pt x="308" y="1535" on="0"/>
        <pt x="308" y="1632" on="1"/>
        <pt x="308" y="1648" on="1"/>
        <pt x="308" y="1717" on="0"/>
        <pt x="357" y="1766" on="0"/>
        <pt x="387" y="1766" on="1"/>
        <pt x="395" y="1768" on="0"/>
        <pt x="399" y="1768" on="1"/>
        <pt x="418" y="1770" on="1"/>
        <pt x="441" y="1770" on="1"/>
        <pt x="465" y="1766" on="1"/>
        <pt x="524" y="1766" on="0"/>
        <pt x="524" y="1694" on="1"/>
        <pt x="526" y="1686" on="1"/>
        <pt x="526" y="1682" on="0"/>
        <pt x="526" y="1678" on="1"/>
      </contour>
      <contour>
        <pt x="799" y="1772" on="1"/>
        <pt x="834" y="1772" on="1"/>
        <pt x="921" y="1772" on="0"/>
        <pt x="921" y="1700" on="1"/>
        <pt x="924" y="1681" on="1"/>
        <pt x="924" y="1649" on="1"/>
        <pt x="920" y="1623" on="1"/>
        <pt x="920" y="1596" on="0"/>
        <pt x="875" y="1551" on="0"/>
        <pt x="848" y="1551" on="1"/>
        <pt x="840" y="1549" on="1"/>
        <pt x="810" y="1546" on="1"/>
        <pt x="798" y="1546" on="1"/>
        <pt x="768" y="1550" on="1"/>
        <pt x="703" y="1550" on="0"/>
        <pt x="703" y="1619" on="1"/>
        <pt x="700" y="1638" on="1"/>
        <pt x="700" y="1670" on="1"/>
        <pt x="704" y="1696" on="1"/>
        <pt x="704" y="1723" on="0"/>
        <pt x="753" y="1772" on="0"/>
      </contour>
      <contour>
        <pt x="1036" y="1295" on="1"/>
        <pt x="1036" y="1205" on="0"/>
        <pt x="969" y="1205" on="1"/>
        <pt x="943" y="1205" on="0"/>
        <pt x="713" y="1244" on="0"/>
        <pt x="499" y="1244" on="0"/>
        <pt x="465" y="1201" on="1"/>
        <pt x="416" y="1139" on="0"/>
        <pt x="416" y="953" on="1"/>
        <pt x="416" y="874" on="0"/>
        <pt x="508" y="813" on="0"/>
        <pt x="656" y="813" on="0"/>
        <pt x="790" y="848" on="0"/>
        <pt x="792" y="848" on="1"/>
        <pt x="848" y="848" on="0"/>
        <pt x="900" y="798" on="0"/>
        <pt x="900" y="674" on="0"/>
        <pt x="863" y="604" on="0"/>
        <pt x="814" y="604" on="1"/>
        <pt x="796" y="604" on="0"/>
        <pt x="665" y="644" on="0"/>
        <pt x="595" y="644" on="1"/>
        <pt x="469" y="644" on="0"/>
        <pt x="431" y="584" on="1"/>
        <pt x="411" y="552" on="0"/>
        <pt x="411" y="260" on="0"/>
        <pt x="456" y="207" on="1"/>
        <pt x="487" y="170" on="0"/>
        <pt x="711" y="170" on="0"/>
        <pt x="962" y="217" on="0"/>
        <pt x="977" y="217" on="1"/>
        <pt x="1054" y="217" on="0"/>
        <pt x="1054" y="133" on="1"/>
        <pt x="1054" y="16" on="0"/>
        <pt x="874" y="16" on="1"/>
        <pt x="496" y="16" on="1"/>
        <pt x="281" y="16" on="0"/>
        <pt x="129" y="47" on="0"/>
        <pt x="129" y="98" on="1"/>
        <pt x="129" y="125" on="1"/>
        <pt x="129" y="129" on="0"/>
        <pt x="172" y="233" on="0"/>
        <pt x="188" y="335" on="0"/>
        <pt x="188" y="488" on="1"/>
        <pt x="190" y="564" on="1"/>
        <pt x="193" y="791" on="1"/>
        <pt x="195" y="867" on="1"/>
        <pt x="195" y="942" on="1"/>
        <pt x="195" y="1094" on="0"/>
        <pt x="182" y="1202" on="0"/>
        <pt x="149" y="1291" on="0"/>
        <pt x="149" y="1326" on="1"/>
        <pt x="149" y="1367" on="0"/>
        <pt x="345" y="1397" on="0"/>
        <pt x="642" y="1397" on="1"/>
        <pt x="868" y="1397" on="1"/>
        <pt x="961" y="1397" on="0"/>
        <pt x="1036" y="1350" on="0"/>
      </contour>
    </TTGlyph>
    <TTGlyph name="Egrave" xMin="132" yMin="8" xMax="1059" yMax="1843">
      <contour>
        <pt x="355" y="1776" on="1"/>
        <pt x="355" y="1790" on="1"/>
        <pt x="355" y="1843" on="0"/>
        <pt x="438" y="1843" on="1"/>
        <pt x="448" y="1843" on="1"/>
        <pt x="454" y="1842" on="1"/>
        <pt x="517" y="1842" on="0"/>
        <pt x="581" y="1785" on="1"/>
        <pt x="759" y="1627" on="0"/>
        <pt x="759" y="1559" on="1"/>
        <pt x="759" y="1544" on="1"/>
        <pt x="759" y="1514" on="0"/>
        <pt x="722" y="1514" on="1"/>
        <pt x="706" y="1514" on="1"/>
        <pt x="643" y="1514" on="0"/>
        <pt x="571" y="1570" on="1"/>
        <pt x="355" y="1738" on="0"/>
      </contour>
      <contour>
        <pt x="421" y="945" on="1"/>
        <pt x="421" y="809" on="0"/>
        <pt x="587" y="809" on="1"/>
        <pt x="662" y="809" on="0"/>
        <pt x="792" y="843" on="0"/>
        <pt x="798" y="843" on="1"/>
        <pt x="852" y="843" on="0"/>
        <pt x="904" y="793" on="0"/>
        <pt x="904" y="666" on="0"/>
        <pt x="867" y="599" on="0"/>
        <pt x="816" y="599" on="1"/>
        <pt x="798" y="599" on="0"/>
        <pt x="670" y="638" on="0"/>
        <pt x="499" y="638" on="0"/>
        <pt x="415" y="565" on="0"/>
        <pt x="415" y="448" on="1"/>
        <pt x="415" y="251" on="0"/>
        <pt x="462" y="199" on="1"/>
        <pt x="494" y="163" on="0"/>
        <pt x="612" y="163" on="1"/>
        <pt x="617" y="163" on="0"/>
        <pt x="622" y="163" on="1"/>
        <pt x="736" y="163" on="0"/>
        <pt x="847" y="186" on="1"/>
        <pt x="962" y="210" on="0"/>
        <pt x="992" y="210" on="1"/>
        <pt x="1058" y="210" on="0"/>
        <pt x="1059" y="123" on="1"/>
        <pt x="1059" y="8" on="0"/>
        <pt x="875" y="8" on="1"/>
        <pt x="533" y="8" on="1"/>
        <pt x="286" y="8" on="0"/>
        <pt x="132" y="40" on="0"/>
        <pt x="132" y="92" on="1"/>
        <pt x="132" y="110" on="0"/>
        <pt x="194" y="285" on="0"/>
        <pt x="194" y="637" on="1"/>
        <pt x="195" y="713" on="1"/>
        <pt x="196" y="751" on="1"/>
        <pt x="197" y="827" on="1"/>
        <pt x="197" y="960" on="1"/>
        <pt x="197" y="1160" on="0"/>
        <pt x="151" y="1299" on="0"/>
        <pt x="151" y="1325" on="1"/>
        <pt x="151" y="1364" on="0"/>
        <pt x="349" y="1394" on="0"/>
        <pt x="686" y="1394" on="1"/>
        <pt x="800" y="1395" on="1"/>
        <pt x="875" y="1395" on="1"/>
        <pt x="965" y="1395" on="0"/>
        <pt x="1041" y="1346" on="0"/>
        <pt x="1041" y="1204" on="0"/>
        <pt x="976" y="1204" on="1"/>
        <pt x="946" y="1204" on="0"/>
        <pt x="731" y="1239" on="0"/>
        <pt x="504" y="1239" on="0"/>
        <pt x="469" y="1194" on="1"/>
        <pt x="421" y="1133" on="0"/>
      </contour>
    </TTGlyph>
    <TTGlyph name="Eth" xMin="91" yMin="-2" xMax="1303" yMax="1398">
      <contour>
        <pt x="545" y="138" on="1"/>
        <pt x="616" y="138" on="1"/>
        <pt x="831" y="138" on="0"/>
        <pt x="944" y="276" on="1"/>
        <pt x="992" y="335" on="0"/>
        <pt x="1058" y="538" on="0"/>
        <pt x="1058" y="652" on="1"/>
        <pt x="1058" y="752" on="1"/>
        <pt x="1058" y="984" on="0"/>
        <pt x="846" y="1256" on="0"/>
        <pt x="634" y="1256" on="1"/>
        <pt x="544" y="1256" on="1"/>
        <pt x="478" y="1256" on="0"/>
        <pt x="443" y="1173" on="0"/>
        <pt x="443" y="843" on="0"/>
        <pt x="489" y="794" on="0"/>
        <pt x="665" y="773" on="0"/>
        <pt x="670" y="771" on="1"/>
        <pt x="707" y="759" on="0"/>
        <pt x="707" y="669" on="0"/>
        <pt x="663" y="645" on="0"/>
        <pt x="484" y="623" on="0"/>
        <pt x="436" y="557" on="0"/>
        <pt x="436" y="335" on="1"/>
        <pt x="435" y="263" on="1"/>
        <pt x="435" y="186" on="0"/>
        <pt x="481" y="138" on="0"/>
      </contour>
      <contour>
        <pt x="1303" y="704" on="1"/>
        <pt x="1303" y="698" on="1"/>
        <pt x="1303" y="526" on="0"/>
        <pt x="1248" y="386" on="1"/>
        <pt x="1141" y="113" on="0"/>
        <pt x="869" y="32" on="1"/>
        <pt x="755" y="-2" on="0"/>
        <pt x="542" y="-2" on="1"/>
        <pt x="492" y="-2" on="1"/>
        <pt x="256" y="-2" on="0"/>
        <pt x="169" y="20" on="0"/>
        <pt x="169" y="61" on="1"/>
        <pt x="169" y="75" on="0"/>
        <pt x="211" y="177" on="0"/>
        <pt x="228" y="285" on="0"/>
        <pt x="228" y="408" on="1"/>
        <pt x="231" y="483" on="1"/>
        <pt x="233" y="533" on="0"/>
        <pt x="233" y="629" on="0"/>
        <pt x="176" y="642" on="1"/>
        <pt x="91" y="662" on="0"/>
        <pt x="91" y="704" on="1"/>
        <pt x="91" y="760" on="0"/>
        <pt x="118" y="777" on="1"/>
        <pt x="126" y="782" on="0"/>
        <pt x="213" y="805" on="0"/>
        <pt x="235" y="839" on="0"/>
        <pt x="235" y="1129" on="0"/>
        <pt x="219" y="1225" on="0"/>
        <pt x="178" y="1316" on="0"/>
        <pt x="178" y="1330" on="1"/>
        <pt x="178" y="1368" on="0"/>
        <pt x="260" y="1394" on="0"/>
        <pt x="424" y="1394" on="1"/>
        <pt x="473" y="1396" on="1"/>
        <pt x="523" y="1398" on="0"/>
        <pt x="548" y="1398" on="1"/>
        <pt x="599" y="1398" on="1"/>
        <pt x="782" y="1398" on="0"/>
        <pt x="903" y="1361" on="1"/>
        <pt x="1163" y="1281" on="0"/>
        <pt x="1259" y="1007" on="1"/>
        <pt x="1303" y="880" on="0"/>
        <pt x="1303" y="731" on="1"/>
      </contour>
    </TTGlyph>
    <TTGlyph name="Euro" xMin="97" yMin="-4" xMax="1135" yMax="1369">
      <contour>
        <pt x="463" y="712" on="0"/>
        <pt x="463" y="624" on="0"/>
        <pt x="838" y="599" on="0"/>
        <pt x="838" y="510" on="0"/>
        <pt x="739" y="483" on="1"/>
        <pt x="592" y="443" on="0"/>
        <pt x="536" y="402" on="0"/>
        <pt x="536" y="353" on="1"/>
        <pt x="536" y="284" on="0"/>
        <pt x="714" y="177" on="0"/>
        <pt x="827" y="177" on="1"/>
        <pt x="871" y="177" on="0"/>
        <pt x="1037" y="215" on="0"/>
        <pt x="1060" y="215" on="1"/>
        <pt x="1105" y="215" on="0"/>
        <pt x="1105" y="176" on="1"/>
        <pt x="1105" y="107" on="0"/>
        <pt x="974" y="43" on="1"/>
        <pt x="877" y="-4" on="0"/>
        <pt x="750" y="-4" on="1"/>
        <pt x="710" y="-4" on="1"/>
        <pt x="616" y="-4" on="0"/>
        <pt x="447" y="70" on="0"/>
        <pt x="331" y="181" on="0"/>
        <pt x="209" y="434" on="0"/>
        <pt x="97" y="519" on="0"/>
        <pt x="97" y="536" on="1"/>
        <pt x="97" y="559" on="1"/>
        <pt x="97" y="585" on="0"/>
        <pt x="210" y="637" on="0"/>
        <pt x="210" y="722" on="0"/>
        <pt x="115" y="777" on="0"/>
        <pt x="115" y="791" on="1"/>
        <pt x="115" y="826" on="0"/>
        <pt x="236" y="937" on="0"/>
        <pt x="377" y="1172" on="0"/>
        <pt x="512" y="1294" on="0"/>
        <pt x="704" y="1369" on="0"/>
        <pt x="792" y="1369" on="1"/>
        <pt x="831" y="1369" on="1"/>
        <pt x="969" y="1369" on="0"/>
        <pt x="1135" y="1277" on="0"/>
        <pt x="1135" y="1143" on="0"/>
        <pt x="1074" y="1143" on="1"/>
        <pt x="1043" y="1143" on="0"/>
        <pt x="885" y="1186" on="0"/>
        <pt x="727" y="1186" on="0"/>
        <pt x="568" y="1071" on="0"/>
        <pt x="568" y="950" on="0"/>
        <pt x="629" y="918" on="1"/>
        <pt x="667" y="898" on="0"/>
        <pt x="875" y="858" on="0"/>
        <pt x="875" y="824" on="1"/>
        <pt x="875" y="779" on="0"/>
        <pt x="787" y="761" on="1"/>
        <pt x="743" y="752" on="0"/>
        <pt x="528" y="743" on="0"/>
      </contour>
    </TTGlyph>
    <TTGlyph name="F" xMin="148" yMin="25" xMax="1065" yMax="1408">
      <contour>
        <pt x="362" y="25" on="0"/>
        <pt x="214" y="25" on="0"/>
        <pt x="148" y="82" on="0"/>
        <pt x="148" y="128" on="1"/>
        <pt x="148" y="151" on="1"/>
        <pt x="148" y="169" on="0"/>
        <pt x="197" y="288" on="0"/>
        <pt x="202" y="347" on="1"/>
        <pt x="237" y="753" on="0"/>
        <pt x="237" y="1147" on="0"/>
        <pt x="229" y="1213" on="0"/>
        <pt x="200" y="1305" on="0"/>
        <pt x="200" y="1307" on="1"/>
        <pt x="200" y="1360" on="0"/>
        <pt x="268" y="1372" on="1"/>
        <pt x="472" y="1408" on="0"/>
        <pt x="864" y="1408" on="1"/>
        <pt x="926" y="1408" on="1"/>
        <pt x="1000" y="1408" on="0"/>
        <pt x="1065" y="1368" on="0"/>
        <pt x="1065" y="1313" on="1"/>
        <pt x="1065" y="1289" on="1"/>
        <pt x="1065" y="1216" on="0"/>
        <pt x="997" y="1216" on="1"/>
        <pt x="982" y="1216" on="0"/>
        <pt x="888" y="1240" on="0"/>
        <pt x="807" y="1255" on="0"/>
        <pt x="546" y="1255" on="0"/>
        <pt x="467" y="1133" on="0"/>
        <pt x="467" y="954" on="1"/>
        <pt x="467" y="862" on="0"/>
        <pt x="526" y="801" on="0"/>
        <pt x="634" y="801" on="1"/>
        <pt x="661" y="801" on="0"/>
        <pt x="769" y="823" on="0"/>
        <pt x="847" y="823" on="0"/>
        <pt x="908" y="755" on="0"/>
        <pt x="908" y="693" on="1"/>
        <pt x="908" y="604" on="0"/>
        <pt x="816" y="604" on="1"/>
        <pt x="700" y="614" on="1"/>
        <pt x="624" y="614" on="0"/>
        <pt x="504" y="563" on="0"/>
        <pt x="482" y="527" on="1"/>
        <pt x="428" y="439" on="0"/>
        <pt x="428" y="233" on="1"/>
        <pt x="433" y="115" on="1"/>
        <pt x="433" y="76" on="0"/>
      </contour>
    </TTGlyph>
    <TTGlyph name="G" xMin="117" yMin="-20" xMax="1215" yMax="1414">
      <contour>
        <pt x="117" y="665" on="1"/>
        <pt x="118" y="826" on="0"/>
        <pt x="166" y="965" on="1"/>
        <pt x="264" y="1245" on="0"/>
        <pt x="510" y="1355" on="1"/>
        <pt x="641" y="1414" on="0"/>
        <pt x="998" y="1414" on="0"/>
        <pt x="1095" y="1370" on="1"/>
        <pt x="1138" y="1351" on="0"/>
        <pt x="1199" y="1266" on="0"/>
        <pt x="1199" y="1183" on="0"/>
        <pt x="1155" y="1132" on="0"/>
        <pt x="1129" y="1132" on="0"/>
        <pt x="1009" y="1186" on="1"/>
        <pt x="890" y="1239" on="0"/>
        <pt x="797" y="1239" on="1"/>
        <pt x="794" y="1239" on="1"/>
        <pt x="604" y="1239" on="0"/>
        <pt x="486" y="1108" on="1"/>
        <pt x="418" y="1033" on="0"/>
        <pt x="384" y="920" on="1"/>
        <pt x="350" y="806" on="0"/>
        <pt x="349" y="686" on="1"/>
        <pt x="349" y="312" on="0"/>
        <pt x="586" y="211" on="1"/>
        <pt x="662" y="178" on="0"/>
        <pt x="852" y="178" on="0"/>
        <pt x="987" y="291" on="0"/>
        <pt x="987" y="405" on="1"/>
        <pt x="987" y="483" on="0"/>
        <pt x="910" y="565" on="1"/>
        <pt x="886" y="591" on="0"/>
        <pt x="886" y="604" on="1"/>
        <pt x="886" y="644" on="0"/>
        <pt x="1093" y="644" on="0"/>
        <pt x="1215" y="602" on="0"/>
        <pt x="1215" y="562" on="1"/>
        <pt x="1215" y="473" on="0"/>
        <pt x="1164" y="151" on="0"/>
        <pt x="1144" y="118" on="1"/>
        <pt x="1111" y="63" on="0"/>
        <pt x="1022" y="33" on="1"/>
        <pt x="866" y="-20" on="0"/>
        <pt x="762" y="-20" on="1"/>
        <pt x="726" y="-20" on="1"/>
        <pt x="597" y="-20" on="0"/>
        <pt x="486" y="26" on="1"/>
        <pt x="256" y="123" on="0"/>
        <pt x="167" y="363" on="1"/>
        <pt x="117" y="498" on="0"/>
        <pt x="117" y="625" on="1"/>
      </contour>
    </TTGlyph>
    <TTGlyph name="H" xMin="128" yMin="12" xMax="1344" yMax="1393">
      <contour>
        <pt x="1053" y="1147" on="1"/>
        <pt x="1033" y="1272" on="1"/>
        <pt x="1033" y="1332" on="0"/>
        <pt x="1140" y="1393" on="0"/>
        <pt x="1219" y="1393" on="1"/>
        <pt x="1255" y="1393" on="1"/>
        <pt x="1287" y="1393" on="0"/>
        <pt x="1344" y="1353" on="0"/>
        <pt x="1344" y="1291" on="0"/>
        <pt x="1292" y="1180" on="0"/>
        <pt x="1284" y="1094" on="1"/>
        <pt x="1240" y="591" on="0"/>
        <pt x="1240" y="304" on="1"/>
        <pt x="1240" y="233" on="0"/>
        <pt x="1253" y="196" on="1"/>
        <pt x="1266" y="166" on="1"/>
        <pt x="1286" y="121" on="0"/>
        <pt x="1286" y="108" on="1"/>
        <pt x="1286" y="53" on="0"/>
        <pt x="1214" y="12" on="0"/>
        <pt x="1064" y="12" on="0"/>
        <pt x="977" y="73" on="0"/>
        <pt x="977" y="137" on="0"/>
        <pt x="1023" y="310" on="0"/>
        <pt x="1023" y="596" on="0"/>
        <pt x="947" y="649" on="0"/>
        <pt x="520" y="649" on="0"/>
        <pt x="414" y="545" on="0"/>
        <pt x="414" y="275" on="1"/>
        <pt x="414" y="237" on="0"/>
        <pt x="418" y="206" on="1"/>
        <pt x="423" y="176" on="1"/>
        <pt x="431" y="130" on="0"/>
        <pt x="431" y="121" on="1"/>
        <pt x="431" y="18" on="0"/>
        <pt x="244" y="18" on="1"/>
        <pt x="181" y="18" on="0"/>
        <pt x="128" y="65" on="0"/>
        <pt x="128" y="124" on="0"/>
        <pt x="183" y="233" on="0"/>
        <pt x="191" y="292" on="1"/>
        <pt x="232" y="612" on="0"/>
        <pt x="232" y="1107" on="1"/>
        <pt x="232" y="1166" on="0"/>
        <pt x="183" y="1283" on="0"/>
        <pt x="183" y="1294" on="1"/>
        <pt x="183" y="1384" on="0"/>
        <pt x="326" y="1384" on="1"/>
        <pt x="403" y="1384" on="0"/>
        <pt x="486" y="1334" on="0"/>
        <pt x="486" y="1275" on="0"/>
        <pt x="464" y="1193" on="0"/>
        <pt x="450" y="1107" on="0"/>
        <pt x="450" y="869" on="0"/>
        <pt x="539" y="803" on="0"/>
        <pt x="982" y="803" on="0"/>
        <pt x="1014" y="858" on="1"/>
        <pt x="1053" y="926" on="0"/>
      </contour>
    </TTGlyph>
    <TTGlyph name="I" xMin="134" yMin="4" xMax="569" yMax="1403">
      <contour>
        <pt x="373" y="4" on="1"/>
        <pt x="316" y="4" on="1"/>
        <pt x="229" y="4" on="0"/>
        <pt x="134" y="48" on="0"/>
        <pt x="134" y="113" on="0"/>
        <pt x="210" y="232" on="0"/>
        <pt x="222" y="305" on="1"/>
        <pt x="248" y="461" on="0"/>
        <pt x="248" y="678" on="1"/>
        <pt x="248" y="679" on="0"/>
        <pt x="251" y="738" on="1"/>
        <pt x="255" y="816" on="1"/>
        <pt x="258" y="952" on="1"/>
        <pt x="258" y="1110" on="0"/>
        <pt x="238" y="1193" on="0"/>
        <pt x="185" y="1278" on="0"/>
        <pt x="185" y="1303" on="1"/>
        <pt x="185" y="1403" on="0"/>
        <pt x="397" y="1403" on="1"/>
        <pt x="435" y="1403" on="1"/>
        <pt x="498" y="1403" on="0"/>
        <pt x="569" y="1354" on="0"/>
        <pt x="569" y="1328" on="1"/>
        <pt x="569" y="1313" on="1"/>
        <pt x="569" y="1299" on="0"/>
        <pt x="508" y="1195" on="0"/>
        <pt x="500" y="1150" on="1"/>
        <pt x="468" y="974" on="0"/>
        <pt x="468" y="659" on="1"/>
        <pt x="461" y="520" on="1"/>
        <pt x="460" y="500" on="0"/>
        <pt x="460" y="481" on="1"/>
        <pt x="457" y="422" on="1"/>
        <pt x="455" y="346" on="1"/>
        <pt x="455" y="248" on="0"/>
        <pt x="478" y="184" on="0"/>
        <pt x="514" y="120" on="0"/>
        <pt x="514" y="50" on="0"/>
        <pt x="429" y="4" on="0"/>
      </contour>
    </TTGlyph>
    <TTGlyph name="Iacute" xMin="132" yMin="33" xMax="613" yMax="1835">
      <contour>
        <pt x="259" y="1486" on="1"/>
        <pt x="249" y="1486" on="1"/>
        <pt x="214" y="1486" on="0"/>
        <pt x="214" y="1516" on="1"/>
        <pt x="214" y="1531" on="1"/>
        <pt x="214" y="1569" on="0"/>
        <pt x="384" y="1760" on="1"/>
        <pt x="451" y="1835" on="0"/>
        <pt x="526" y="1835" on="1"/>
        <pt x="541" y="1835" on="1"/>
        <pt x="613" y="1835" on="0"/>
        <pt x="613" y="1786" on="1"/>
        <pt x="613" y="1771" on="1"/>
        <pt x="613" y="1740" on="0"/>
        <pt x="437" y="1584" on="1"/>
        <pt x="327" y="1486" on="0"/>
      </contour>
      <contour>
        <pt x="372" y="33" on="1"/>
        <pt x="277" y="33" on="1"/>
        <pt x="216" y="33" on="0"/>
        <pt x="132" y="82" on="0"/>
        <pt x="132" y="143" on="0"/>
        <pt x="200" y="260" on="0"/>
        <pt x="224" y="425" on="0"/>
        <pt x="224" y="1090" on="0"/>
        <pt x="210" y="1188" on="0"/>
        <pt x="145" y="1285" on="0"/>
        <pt x="145" y="1367" on="0"/>
        <pt x="213" y="1390" on="1"/>
        <pt x="254" y="1404" on="0"/>
        <pt x="336" y="1404" on="1"/>
        <pt x="392" y="1404" on="1"/>
        <pt x="451" y="1404" on="0"/>
        <pt x="538" y="1360" on="0"/>
        <pt x="538" y="1292" on="0"/>
        <pt x="474" y="1186" on="0"/>
        <pt x="450" y="1017" on="0"/>
        <pt x="450" y="334" on="0"/>
        <pt x="463" y="249" on="0"/>
        <pt x="527" y="152" on="0"/>
        <pt x="527" y="86" on="0"/>
        <pt x="451" y="33" on="0"/>
      </contour>
    </TTGlyph>
    <TTGlyph name="Icircumflex" xMin="50" yMin="20" xMax="648" yMax="1830">
      <contour>
        <pt x="349" y="1830" on="1"/>
        <pt x="365" y="1830" on="1"/>
        <pt x="409" y="1830" on="0"/>
        <pt x="454" y="1785" on="1"/>
        <pt x="648" y="1591" on="0"/>
        <pt x="648" y="1536" on="1"/>
        <pt x="648" y="1504" on="0"/>
        <pt x="532" y="1504" on="0"/>
        <pt x="458" y="1566" on="1"/>
        <pt x="429" y="1590" on="0"/>
        <pt x="353" y="1660" on="0"/>
        <pt x="350" y="1660" on="1"/>
        <pt x="242" y="1569" on="1"/>
        <pt x="164" y="1503" on="0"/>
        <pt x="119" y="1503" on="1"/>
        <pt x="96" y="1503" on="1"/>
        <pt x="50" y="1503" on="0"/>
        <pt x="50" y="1532" on="1"/>
        <pt x="50" y="1538" on="1"/>
        <pt x="50" y="1552" on="0"/>
        <pt x="79" y="1586" on="1"/>
        <pt x="238" y="1774" on="0"/>
        <pt x="304" y="1830" on="0"/>
      </contour>
      <contour>
        <pt x="356" y="20" on="1"/>
        <pt x="280" y="20" on="1"/>
        <pt x="213" y="20" on="0"/>
        <pt x="134" y="70" on="0"/>
        <pt x="134" y="125" on="0"/>
        <pt x="205" y="256" on="0"/>
        <pt x="223" y="419" on="0"/>
        <pt x="223" y="1081" on="0"/>
        <pt x="208" y="1184" on="0"/>
        <pt x="144" y="1280" on="0"/>
        <pt x="144" y="1351" on="0"/>
        <pt x="239" y="1399" on="0"/>
        <pt x="334" y="1399" on="1"/>
        <pt x="410" y="1399" on="1"/>
        <pt x="469" y="1399" on="0"/>
        <pt x="538" y="1346" on="0"/>
        <pt x="538" y="1290" on="0"/>
        <pt x="473" y="1175" on="0"/>
        <pt x="453" y="1035" on="0"/>
        <pt x="453" y="319" on="0"/>
        <pt x="454" y="312" on="1"/>
        <pt x="465" y="236" on="0"/>
        <pt x="529" y="130" on="0"/>
        <pt x="529" y="65" on="0"/>
        <pt x="437" y="20" on="0"/>
      </contour>
    </TTGlyph>
    <TTGlyph name="Idieresis" xMin="44" yMin="28" xMax="651" yMax="1772">
      <contour>
        <pt x="45" y="1656" on="1"/>
        <pt x="47" y="1676" on="1"/>
        <pt x="47" y="1716" on="0"/>
        <pt x="107" y="1766" on="0"/>
        <pt x="138" y="1766" on="1"/>
        <pt x="170" y="1766" on="1"/>
        <pt x="202" y="1766" on="0"/>
        <pt x="255" y="1722" on="0"/>
        <pt x="255" y="1689" on="1"/>
        <pt x="258" y="1679" on="0"/>
        <pt x="258" y="1674" on="1"/>
        <pt x="260" y="1653" on="1"/>
        <pt x="260" y="1636" on="1"/>
        <pt x="255" y="1600" on="1"/>
        <pt x="255" y="1567" on="0"/>
        <pt x="195" y="1517" on="0"/>
        <pt x="155" y="1517" on="1"/>
        <pt x="144" y="1517" on="1"/>
        <pt x="116" y="1521" on="1"/>
        <pt x="93" y="1521" on="0"/>
        <pt x="47" y="1567" on="0"/>
        <pt x="47" y="1602" on="1"/>
        <pt x="44" y="1627" on="1"/>
        <pt x="44" y="1652" on="1"/>
      </contour>
      <contour>
        <pt x="551" y="1546" on="1"/>
        <pt x="516" y="1546" on="1"/>
        <pt x="491" y="1550" on="1"/>
        <pt x="429" y="1550" on="0"/>
        <pt x="429" y="1619" on="1"/>
        <pt x="426" y="1641" on="1"/>
        <pt x="426" y="1669" on="1"/>
        <pt x="430" y="1695" on="1"/>
        <pt x="430" y="1727" on="0"/>
        <pt x="481" y="1767" on="0"/>
        <pt x="502" y="1767" on="1"/>
        <pt x="510" y="1769" on="1"/>
        <pt x="540" y="1772" on="1"/>
        <pt x="552" y="1772" on="1"/>
        <pt x="582" y="1768" on="1"/>
        <pt x="647" y="1768" on="0"/>
        <pt x="647" y="1699" on="1"/>
        <pt x="650" y="1684" on="1"/>
        <pt x="650" y="1680" on="0"/>
        <pt x="650" y="1676" on="1"/>
        <pt x="651" y="1664" on="1"/>
        <pt x="651" y="1660" on="1"/>
        <pt x="646" y="1622" on="1"/>
        <pt x="646" y="1595" on="0"/>
        <pt x="597" y="1546" on="0"/>
      </contour>
      <contour>
        <pt x="355" y="28" on="1"/>
        <pt x="298" y="28" on="1"/>
        <pt x="226" y="28" on="0"/>
        <pt x="138" y="72" on="0"/>
        <pt x="138" y="145" on="0"/>
        <pt x="186" y="219" on="0"/>
        <pt x="193" y="234" on="1"/>
        <pt x="222" y="299" on="0"/>
        <pt x="222" y="403" on="1"/>
        <pt x="224" y="441" on="1"/>
        <pt x="225" y="480" on="1"/>
        <pt x="225" y="519" on="1"/>
        <pt x="226" y="538" on="1"/>
        <pt x="226" y="577" on="1"/>
        <pt x="227" y="616" on="1"/>
        <pt x="227" y="694" on="1"/>
        <pt x="228" y="752" on="1"/>
        <pt x="228" y="1079" on="0"/>
        <pt x="216" y="1177" on="0"/>
        <pt x="148" y="1299" on="0"/>
        <pt x="148" y="1323" on="1"/>
        <pt x="148" y="1363" on="0"/>
        <pt x="215" y="1389" on="1"/>
        <pt x="253" y="1404" on="0"/>
        <pt x="373" y="1404" on="1"/>
        <pt x="392" y="1404" on="1"/>
        <pt x="454" y="1404" on="0"/>
        <pt x="535" y="1358" on="0"/>
        <pt x="535" y="1291" on="0"/>
        <pt x="487" y="1211" on="0"/>
        <pt x="482" y="1201" on="1"/>
        <pt x="454" y="1136" on="0"/>
        <pt x="454" y="1034" on="1"/>
        <pt x="452" y="995" on="1"/>
        <pt x="452" y="976" on="0"/>
        <pt x="452" y="957" on="1"/>
        <pt x="450" y="859" on="1"/>
        <pt x="450" y="820" on="1"/>
        <pt x="449" y="801" on="1"/>
        <pt x="449" y="723" on="1"/>
        <pt x="448" y="703" on="1"/>
        <pt x="448" y="664" on="1"/>
        <pt x="448" y="336" on="0"/>
        <pt x="462" y="239" on="0"/>
        <pt x="527" y="147" on="0"/>
        <pt x="527" y="74" on="0"/>
        <pt x="435" y="28" on="0"/>
      </contour>
    </TTGlyph>
    <TTGlyph name="Igrave" xMin="84" yMin="21" xMax="531" yMax="1839">
      <contour>
        <pt x="84" y="1771" on="1"/>
        <pt x="84" y="1786" on="1"/>
        <pt x="84" y="1839" on="0"/>
        <pt x="162" y="1839" on="1"/>
        <pt x="177" y="1839" on="1"/>
        <pt x="234" y="1839" on="0"/>
        <pt x="345" y="1740" on="0"/>
        <pt x="455" y="1599" on="1"/>
        <pt x="481" y="1566" on="0"/>
        <pt x="481" y="1540" on="1"/>
        <pt x="481" y="1530" on="1"/>
        <pt x="481" y="1498" on="0"/>
        <pt x="445" y="1498" on="1"/>
        <pt x="425" y="1498" on="1"/>
        <pt x="376" y="1498" on="0"/>
        <pt x="84" y="1725" on="0"/>
      </contour>
      <contour>
        <pt x="351" y="21" on="1"/>
        <pt x="294" y="21" on="1"/>
        <pt x="217" y="21" on="0"/>
        <pt x="132" y="69" on="0"/>
        <pt x="132" y="132" on="0"/>
        <pt x="200" y="245" on="0"/>
        <pt x="222" y="396" on="0"/>
        <pt x="222" y="1080" on="0"/>
        <pt x="206" y="1189" on="0"/>
        <pt x="141" y="1282" on="0"/>
        <pt x="141" y="1322" on="1"/>
        <pt x="141" y="1402" on="0"/>
        <pt x="369" y="1402" on="1"/>
        <pt x="443" y="1402" on="0"/>
        <pt x="531" y="1358" on="0"/>
        <pt x="531" y="1294" on="0"/>
        <pt x="510" y="1255" on="0"/>
        <pt x="497" y="1234" on="1"/>
        <pt x="450" y="1158" on="0"/>
        <pt x="450" y="1030" on="1"/>
        <pt x="448" y="992" on="1"/>
        <pt x="448" y="972" on="0"/>
        <pt x="448" y="952" on="1"/>
        <pt x="446" y="855" on="1"/>
        <pt x="446" y="816" on="1"/>
        <pt x="445" y="757" on="1"/>
        <pt x="445" y="718" on="1"/>
        <pt x="444" y="659" on="1"/>
        <pt x="444" y="338" on="0"/>
        <pt x="458" y="237" on="0"/>
        <pt x="524" y="138" on="0"/>
        <pt x="524" y="66" on="0"/>
        <pt x="431" y="21" on="0"/>
      </contour>
    </TTGlyph>
    <TTGlyph name="J" xMin="25" yMin="-133" xMax="758" yMax="1406">
      <contour>
        <pt x="111" y="82" on="0"/>
        <pt x="265" y="82" on="0"/>
        <pt x="318" y="126" on="1"/>
        <pt x="481" y="261" on="0"/>
        <pt x="481" y="843" on="1"/>
        <pt x="481" y="1014" on="0"/>
        <pt x="455" y="1148" on="0"/>
        <pt x="393" y="1272" on="0"/>
        <pt x="393" y="1293" on="1"/>
        <pt x="393" y="1348" on="0"/>
        <pt x="510" y="1406" on="0"/>
        <pt x="593" y="1406" on="1"/>
        <pt x="615" y="1406" on="1"/>
        <pt x="671" y="1406" on="0"/>
        <pt x="758" y="1339" on="0"/>
        <pt x="758" y="1302" on="1"/>
        <pt x="758" y="1288" on="1"/>
        <pt x="758" y="1269" on="0"/>
        <pt x="746" y="1214" on="1"/>
        <pt x="727" y="1125" on="0"/>
        <pt x="690" y="523" on="1"/>
        <pt x="675" y="288" on="0"/>
        <pt x="574" y="16" on="0"/>
        <pt x="366" y="-133" on="0"/>
        <pt x="228" y="-133" on="1"/>
        <pt x="148" y="-133" on="0"/>
        <pt x="25" y="-74" on="0"/>
        <pt x="25" y="-29" on="1"/>
        <pt x="25" y="-11" on="1"/>
        <pt x="25" y="42" on="0"/>
        <pt x="81" y="68" on="1"/>
      </contour>
    </TTGlyph>
    <TTGlyph name="K" xMin="146" yMin="8" xMax="1215" yMax="1388">
      <contour>
        <pt x="191" y="1313" on="1"/>
        <pt x="191" y="1387" on="0"/>
        <pt x="326" y="1387" on="1"/>
        <pt x="392" y="1387" on="0"/>
        <pt x="482" y="1329" on="0"/>
        <pt x="482" y="1273" on="1"/>
        <pt x="482" y="1262" on="0"/>
        <pt x="448" y="1110" on="0"/>
        <pt x="448" y="944" on="1"/>
        <pt x="448" y="834" on="0"/>
        <pt x="486" y="834" on="1"/>
        <pt x="540" y="834" on="0"/>
        <pt x="846" y="1178" on="0"/>
        <pt x="933" y="1326" on="0"/>
        <pt x="942" y="1336" on="1"/>
        <pt x="988" y="1388" on="0"/>
        <pt x="1182" y="1388" on="0"/>
        <pt x="1182" y="1335" on="1"/>
        <pt x="1182" y="1309" on="0"/>
        <pt x="891" y="1007" on="0"/>
        <pt x="802" y="884" on="1"/>
        <pt x="758" y="823" on="0"/>
        <pt x="758" y="768" on="1"/>
        <pt x="758" y="735" on="0"/>
        <pt x="1062" y="269" on="0"/>
        <pt x="1215" y="86" on="0"/>
        <pt x="1215" y="56" on="1"/>
        <pt x="1215" y="8" on="0"/>
        <pt x="1013" y="8" on="0"/>
        <pt x="957" y="63" on="1"/>
        <pt x="944" y="76" on="0"/>
        <pt x="717" y="447" on="0"/>
        <pt x="684" y="492" on="1"/>
        <pt x="601" y="603" on="0"/>
        <pt x="541" y="603" on="1"/>
        <pt x="491" y="603" on="0"/>
        <pt x="425" y="413" on="0"/>
        <pt x="425" y="292" on="1"/>
        <pt x="425" y="289" on="0"/>
        <pt x="431" y="227" on="1"/>
        <pt x="437" y="168" on="1"/>
        <pt x="437" y="95" on="0"/>
        <pt x="335" y="20" on="0"/>
        <pt x="184" y="20" on="0"/>
        <pt x="146" y="63" on="0"/>
        <pt x="146" y="108" on="0"/>
        <pt x="193" y="232" on="0"/>
        <pt x="202" y="325" on="1"/>
        <pt x="226" y="586" on="0"/>
        <pt x="226" y="1165" on="0"/>
        <pt x="217" y="1204" on="1"/>
        <pt x="209" y="1233" on="1"/>
        <pt x="200" y="1260" on="1"/>
        <pt x="191" y="1290" on="0"/>
      </contour>
    </TTGlyph>
    <TTGlyph name="L" xMin="133" yMin="-2" xMax="1055" yMax="1403">
      <contour>
        <pt x="847" y="-2" on="1"/>
        <pt x="694" y="-2" on="1"/>
        <pt x="669" y="-1" on="1"/>
        <pt x="364" y="4" on="1"/>
        <pt x="340" y="5" on="0"/>
        <pt x="272" y="5" on="1"/>
        <pt x="134" y="5" on="0"/>
        <pt x="133" y="93" on="1"/>
        <pt x="133" y="109" on="0"/>
        <pt x="162" y="173" on="0"/>
        <pt x="179" y="225" on="0"/>
        <pt x="221" y="633" on="0"/>
        <pt x="221" y="976" on="1"/>
        <pt x="223" y="1025" on="1"/>
        <pt x="223" y="1112" on="1"/>
        <pt x="223" y="1164" on="0"/>
        <pt x="178" y="1289" on="0"/>
        <pt x="178" y="1340" on="0"/>
        <pt x="236" y="1403" on="0"/>
        <pt x="299" y="1403" on="1"/>
        <pt x="347" y="1403" on="1"/>
        <pt x="424" y="1403" on="0"/>
        <pt x="509" y="1342" on="0"/>
        <pt x="509" y="1275" on="0"/>
        <pt x="461" y="1160" on="0"/>
        <pt x="453" y="1083" on="1"/>
        <pt x="421" y="776" on="0"/>
        <pt x="421" y="501" on="1"/>
        <pt x="419" y="452" on="1"/>
        <pt x="418" y="378" on="1"/>
        <pt x="418" y="222" on="0"/>
        <pt x="488" y="160" on="0"/>
        <pt x="754" y="160" on="0"/>
        <pt x="845" y="189" on="1"/>
        <pt x="863" y="195" on="0"/>
        <pt x="967" y="237" on="0"/>
        <pt x="996" y="237" on="1"/>
        <pt x="1055" y="237" on="0"/>
        <pt x="1055" y="161" on="1"/>
        <pt x="1055" y="62" on="0"/>
        <pt x="964" y="-2" on="0"/>
      </contour>
    </TTGlyph>
    <TTGlyph name="Lslash" xMin="95" yMin="-2" xMax="1080" yMax="1375">
      <contour>
        <pt x="466" y="999" on="1"/>
        <pt x="466" y="883" on="0"/>
        <pt x="543" y="883" on="1"/>
        <pt x="558" y="883" on="0"/>
        <pt x="665" y="914" on="0"/>
        <pt x="693" y="914" on="1"/>
        <pt x="731" y="914" on="0"/>
        <pt x="731" y="852" on="1"/>
        <pt x="731" y="811" on="0"/>
        <pt x="530" y="665" on="0"/>
        <pt x="503" y="615" on="1"/>
        <pt x="459" y="534" on="0"/>
        <pt x="459" y="343" on="1"/>
        <pt x="459" y="229" on="0"/>
        <pt x="560" y="158" on="0"/>
        <pt x="764" y="158" on="0"/>
        <pt x="991" y="237" on="0"/>
        <pt x="1036" y="237" on="0"/>
        <pt x="1080" y="193" on="0"/>
        <pt x="1080" y="135" on="1"/>
        <pt x="1080" y="45" on="0"/>
        <pt x="959" y="-2" on="0"/>
        <pt x="788" y="-2" on="1"/>
        <pt x="454" y="-2" on="1"/>
        <pt x="279" y="-2" on="0"/>
        <pt x="175" y="37" on="0"/>
        <pt x="175" y="98" on="1"/>
        <pt x="175" y="104" on="0"/>
        <pt x="187" y="143" on="1"/>
        <pt x="209" y="213" on="1"/>
        <pt x="226" y="282" on="0"/>
        <pt x="226" y="460" on="0"/>
        <pt x="194" y="497" on="0"/>
        <pt x="95" y="512" on="0"/>
        <pt x="95" y="601" on="0"/>
        <pt x="205" y="751" on="0"/>
        <pt x="238" y="886" on="0"/>
        <pt x="238" y="1055" on="1"/>
        <pt x="238" y="1102" on="0"/>
        <pt x="196" y="1240" on="0"/>
        <pt x="196" y="1251" on="1"/>
        <pt x="196" y="1375" on="0"/>
        <pt x="312" y="1375" on="1"/>
        <pt x="337" y="1375" on="1"/>
        <pt x="423" y="1375" on="0"/>
        <pt x="508" y="1301" on="0"/>
        <pt x="508" y="1243" on="1"/>
        <pt x="508" y="1227" on="0"/>
        <pt x="466" y="1069" on="0"/>
      </contour>
    </TTGlyph>
    <TTGlyph name="M" xMin="136" yMin="40" xMax="1597" yMax="1368">
      <contour>
        <pt x="252" y="1124" on="1"/>
        <pt x="235" y="1303" on="1"/>
        <pt x="235" y="1324" on="0"/>
        <pt x="289" y="1367" on="0"/>
        <pt x="342" y="1367" on="1"/>
        <pt x="463" y="1367" on="0"/>
        <pt x="612" y="1145" on="0"/>
        <pt x="769" y="752" on="1"/>
        <pt x="837" y="586" on="0"/>
        <pt x="849" y="564" on="1"/>
        <pt x="871" y="535" on="1"/>
        <pt x="893" y="535" on="0"/>
        <pt x="1067" y="861" on="1"/>
        <pt x="1241" y="1188" on="0"/>
        <pt x="1284" y="1248" on="1"/>
        <pt x="1370" y="1368" on="0"/>
        <pt x="1503" y="1368" on="1"/>
        <pt x="1597" y="1368" on="0"/>
        <pt x="1597" y="1299" on="1"/>
        <pt x="1591" y="1266" on="1"/>
        <pt x="1582" y="1226" on="1"/>
        <pt x="1571" y="1165" on="0"/>
        <pt x="1563" y="744" on="0"/>
        <pt x="1555" y="532" on="1"/>
        <pt x="1550" y="374" on="1"/>
        <pt x="1550" y="273" on="0"/>
        <pt x="1561" y="232" on="1"/>
        <pt x="1575" y="193" on="1"/>
        <pt x="1595" y="139" on="0"/>
        <pt x="1595" y="86" on="0"/>
        <pt x="1537" y="40" on="0"/>
        <pt x="1501" y="40" on="1"/>
        <pt x="1463" y="40" on="1"/>
        <pt x="1412" y="40" on="0"/>
        <pt x="1330" y="122" on="0"/>
        <pt x="1330" y="213" on="0"/>
        <pt x="1349" y="395" on="0"/>
        <pt x="1349" y="992" on="0"/>
        <pt x="1331" y="992" on="1"/>
        <pt x="1304" y="992" on="0"/>
        <pt x="985" y="312" on="0"/>
        <pt x="897" y="180" on="0"/>
        <pt x="790" y="180" on="0"/>
        <pt x="751" y="255" on="1"/>
        <pt x="736" y="284" on="0"/>
        <pt x="483" y="987" on="0"/>
        <pt x="453" y="987" on="1"/>
        <pt x="440" y="987" on="0"/>
        <pt x="417" y="918" on="0"/>
        <pt x="358" y="354" on="0"/>
        <pt x="358" y="159" on="0"/>
        <pt x="294" y="62" on="0"/>
        <pt x="136" y="62" on="0"/>
        <pt x="136" y="138" on="1"/>
        <pt x="136" y="148" on="0"/>
        <pt x="194" y="300" on="0"/>
        <pt x="204" y="393" on="1"/>
        <pt x="252" y="834" on="0"/>
      </contour>
    </TTGlyph>
    <TTGlyph name="N" xMin="134" yMin="29" xMax="1369" yMax="1367">
      <contour>
        <pt x="1123" y="1263" on="1"/>
        <pt x="1123" y="1366" on="0"/>
        <pt x="1271" y="1366" on="1"/>
        <pt x="1305" y="1366" on="0"/>
        <pt x="1369" y="1314" on="0"/>
        <pt x="1369" y="1222" on="0"/>
        <pt x="1311" y="1070" on="0"/>
        <pt x="1297" y="934" on="0"/>
        <pt x="1249" y="126" on="0"/>
        <pt x="1242" y="96" on="1"/>
        <pt x="1228" y="36" on="0"/>
        <pt x="1183" y="36" on="1"/>
        <pt x="1094" y="36" on="0"/>
        <pt x="1003" y="153" on="1"/>
        <pt x="982" y="180" on="0"/>
        <pt x="475" y="1013" on="0"/>
        <pt x="431" y="1013" on="1"/>
        <pt x="418" y="1005" on="1"/>
        <pt x="410" y="993" on="0"/>
        <pt x="404" y="945" on="1"/>
        <pt x="372" y="671" on="0"/>
        <pt x="372" y="352" on="1"/>
        <pt x="372" y="318" on="0"/>
        <pt x="376" y="278" on="1"/>
        <pt x="380" y="244" on="1"/>
        <pt x="386" y="194" on="0"/>
        <pt x="386" y="182" on="1"/>
        <pt x="386" y="113" on="0"/>
        <pt x="293" y="29" on="0"/>
        <pt x="231" y="29" on="1"/>
        <pt x="197" y="29" on="1"/>
        <pt x="134" y="29" on="0"/>
        <pt x="134" y="124" on="0"/>
        <pt x="188" y="242" on="0"/>
        <pt x="197" y="317" on="1"/>
        <pt x="240" y="678" on="0"/>
        <pt x="240" y="1092" on="1"/>
        <pt x="240" y="1163" on="0"/>
        <pt x="230" y="1210" on="1"/>
        <pt x="221" y="1244" on="1"/>
        <pt x="211" y="1275" on="1"/>
        <pt x="203" y="1303" on="0"/>
        <pt x="203" y="1330" on="1"/>
        <pt x="203" y="1367" on="0"/>
        <pt x="274" y="1367" on="1"/>
        <pt x="410" y="1367" on="0"/>
        <pt x="625" y="1128" on="0"/>
        <pt x="1059" y="424" on="0"/>
        <pt x="1076" y="424" on="1"/>
        <pt x="1090" y="428" on="1"/>
        <pt x="1096" y="437" on="0"/>
        <pt x="1102" y="492" on="1"/>
        <pt x="1139" y="839" on="0"/>
        <pt x="1139" y="1101" on="1"/>
        <pt x="1139" y="1124" on="0"/>
        <pt x="1134" y="1171" on="1"/>
        <pt x="1130" y="1203" on="1"/>
        <pt x="1123" y="1252" on="0"/>
      </contour>
    </TTGlyph>
    <TTGlyph name="Nacute" xMin="125" yMin="27" xMax="1326" yMax="1847">
      <contour>
        <pt x="1041" y="1792" on="1"/>
        <pt x="1041" y="1781" on="1"/>
        <pt x="1041" y="1739" on="0"/>
        <pt x="992" y="1701" on="1"/>
        <pt x="741" y="1506" on="0"/>
        <pt x="649" y="1506" on="1"/>
        <pt x="644" y="1506" on="1"/>
        <pt x="608" y="1506" on="0"/>
        <pt x="608" y="1545" on="1"/>
        <pt x="608" y="1550" on="1"/>
        <pt x="609" y="1555" on="1"/>
        <pt x="609" y="1609" on="0"/>
        <pt x="778" y="1757" on="1"/>
        <pt x="881" y="1847" on="0"/>
        <pt x="946" y="1847" on="1"/>
        <pt x="963" y="1847" on="1"/>
        <pt x="992" y="1847" on="0"/>
        <pt x="1041" y="1804" on="0"/>
      </contour>
      <contour>
        <pt x="1069" y="1260" on="0"/>
        <pt x="1069" y="1298" on="0"/>
        <pt x="1130" y="1342" on="0"/>
        <pt x="1254" y="1342" on="0"/>
        <pt x="1326" y="1287" on="0"/>
        <pt x="1326" y="1212" on="1"/>
        <pt x="1326" y="1191" on="0"/>
        <pt x="1275" y="1048" on="0"/>
        <pt x="1252" y="913" on="0"/>
        <pt x="1252" y="755" on="1"/>
        <pt x="1251" y="715" on="1"/>
        <pt x="1250" y="674" on="0"/>
        <pt x="1250" y="634" on="1"/>
        <pt x="1247" y="390" on="1"/>
        <pt x="1246" y="349" on="0"/>
        <pt x="1246" y="158" on="0"/>
        <pt x="1237" y="115" on="1"/>
        <pt x="1225" y="58" on="0"/>
        <pt x="1180" y="58" on="1"/>
        <pt x="1094" y="58" on="0"/>
        <pt x="995" y="176" on="1"/>
        <pt x="947" y="233" on="0"/>
        <pt x="757" y="530" on="0"/>
        <pt x="686" y="635" on="1"/>
        <pt x="431" y="1010" on="0"/>
        <pt x="389" y="1010" on="1"/>
        <pt x="363" y="1010" on="0"/>
        <pt x="363" y="616" on="0"/>
        <pt x="382" y="311" on="0"/>
        <pt x="401" y="177" on="0"/>
        <pt x="401" y="155" on="1"/>
        <pt x="401" y="104" on="0"/>
        <pt x="278" y="27" on="0"/>
        <pt x="125" y="27" on="0"/>
        <pt x="125" y="93" on="1"/>
        <pt x="125" y="100" on="0"/>
        <pt x="179" y="229" on="0"/>
        <pt x="198" y="404" on="0"/>
        <pt x="198" y="722" on="1"/>
        <pt x="200" y="809" on="1"/>
        <pt x="201" y="939" on="1"/>
        <pt x="201" y="1096" on="0"/>
        <pt x="190" y="1184" on="0"/>
        <pt x="153" y="1300" on="0"/>
        <pt x="153" y="1314" on="1"/>
        <pt x="153" y="1362" on="0"/>
        <pt x="214" y="1362" on="1"/>
        <pt x="249" y="1362" on="1"/>
        <pt x="298" y="1362" on="0"/>
        <pt x="432" y="1305" on="0"/>
        <pt x="502" y="1227" on="1"/>
        <pt x="531" y="1195" on="0"/>
        <pt x="1071" y="449" on="0"/>
        <pt x="1082" y="449" on="1"/>
        <pt x="1104" y="449" on="0"/>
        <pt x="1104" y="829" on="1"/>
        <pt x="1102" y="987" on="1"/>
        <pt x="1102" y="1127" on="0"/>
      </contour>
    </TTGlyph>
    <TTGlyph name="Ntilde" xMin="126" yMin="28" xMax="1314" yMax="1774">
      <contour>
        <pt x="903" y="1534" on="1"/>
        <pt x="869" y="1534" on="1"/>
        <pt x="833" y="1534" on="0"/>
        <pt x="627" y="1631" on="0"/>
        <pt x="556" y="1631" on="0"/>
        <pt x="464" y="1547" on="0"/>
        <pt x="398" y="1547" on="0"/>
        <pt x="398" y="1582" on="1"/>
        <pt x="398" y="1590" on="1"/>
        <pt x="398" y="1647" on="0"/>
        <pt x="515" y="1774" on="0"/>
        <pt x="572" y="1774" on="1"/>
        <pt x="605" y="1774" on="1"/>
        <pt x="656" y="1774" on="0"/>
        <pt x="839" y="1677" on="0"/>
        <pt x="919" y="1677" on="0"/>
        <pt x="1009" y="1760" on="0"/>
        <pt x="1037" y="1760" on="1"/>
        <pt x="1076" y="1760" on="0"/>
        <pt x="1076" y="1725" on="1"/>
        <pt x="1076" y="1717" on="1"/>
        <pt x="1076" y="1661" on="0"/>
        <pt x="959" y="1534" on="0"/>
      </contour>
      <contour>
        <pt x="1057" y="1261" on="1"/>
        <pt x="1057" y="1351" on="0"/>
        <pt x="1178" y="1351" on="1"/>
        <pt x="1240" y="1351" on="0"/>
        <pt x="1314" y="1290" on="0"/>
        <pt x="1314" y="1202" on="0"/>
        <pt x="1261" y="1067" on="0"/>
        <pt x="1240" y="899" on="0"/>
        <pt x="1240" y="626" on="1"/>
        <pt x="1238" y="543" on="1"/>
        <pt x="1237" y="502" on="0"/>
        <pt x="1237" y="461" on="1"/>
        <pt x="1236" y="420" on="1"/>
        <pt x="1235" y="379" on="0"/>
        <pt x="1235" y="338" on="1"/>
        <pt x="1233" y="256" on="1"/>
        <pt x="1233" y="256" on="0"/>
        <pt x="1233" y="156" on="1"/>
        <pt x="1233" y="96" on="0"/>
        <pt x="1198" y="52" on="0"/>
        <pt x="1160" y="52" on="1"/>
        <pt x="1080" y="52" on="0"/>
        <pt x="977" y="181" on="1"/>
        <pt x="937" y="231" on="0"/>
        <pt x="817" y="419" on="1"/>
        <pt x="432" y="1022" on="0"/>
        <pt x="382" y="1022" on="1"/>
        <pt x="359" y="1022" on="0"/>
        <pt x="359" y="448" on="0"/>
        <pt x="376" y="295" on="0"/>
        <pt x="393" y="198" on="0"/>
        <pt x="393" y="184" on="1"/>
        <pt x="393" y="28" on="0"/>
        <pt x="194" y="28" on="1"/>
        <pt x="126" y="28" on="0"/>
        <pt x="126" y="75" on="1"/>
        <pt x="126" y="107" on="1"/>
        <pt x="126" y="119" on="0"/>
        <pt x="174" y="221" on="0"/>
        <pt x="193" y="352" on="0"/>
        <pt x="193" y="612" on="1"/>
        <pt x="195" y="700" on="1"/>
        <pt x="196" y="744" on="0"/>
        <pt x="196" y="788" on="1"/>
        <pt x="198" y="875" on="1"/>
        <pt x="198" y="875" on="0"/>
        <pt x="198" y="1036" on="1"/>
        <pt x="198" y="1132" on="0"/>
        <pt x="186" y="1202" on="0"/>
        <pt x="150" y="1304" on="0"/>
        <pt x="150" y="1306" on="1"/>
        <pt x="150" y="1367" on="0"/>
        <pt x="225" y="1367" on="1"/>
        <pt x="372" y="1367" on="0"/>
        <pt x="481" y="1243" on="1"/>
        <pt x="519" y="1200" on="0"/>
        <pt x="1054" y="435" on="0"/>
        <pt x="1057" y="435" on="1"/>
        <pt x="1089" y="435" on="0"/>
        <pt x="1089" y="913" on="1"/>
        <pt x="1089" y="1109" on="0"/>
        <pt x="1076" y="1176" on="1"/>
        <pt x="1069" y="1206" on="1"/>
        <pt x="1057" y="1256" on="0"/>
      </contour>
    </TTGlyph>
    <TTGlyph name="O" xMin="114" yMin="-22" xMax="1339" yMax="1420">
      <contour>
        <pt x="1103" y="786" on="1"/>
        <pt x="1103" y="789" on="0"/>
        <pt x="1103" y="792" on="1"/>
        <pt x="1103" y="879" on="0"/>
        <pt x="1076" y="979" on="1"/>
        <pt x="1027" y="1164" on="0"/>
        <pt x="909" y="1234" on="1"/>
        <pt x="837" y="1277" on="0"/>
        <pt x="767" y="1277" on="1"/>
        <pt x="720" y="1277" on="1"/>
        <pt x="636" y="1277" on="0"/>
        <pt x="560" y="1225" on="1"/>
        <pt x="418" y="1128" on="0"/>
        <pt x="365" y="928" on="1"/>
        <pt x="332" y="804" on="0"/>
        <pt x="332" y="683" on="1"/>
        <pt x="332" y="616" on="1"/>
        <pt x="332" y="408" on="0"/>
        <pt x="525" y="125" on="0"/>
        <pt x="692" y="125" on="1"/>
        <pt x="708" y="125" on="1"/>
        <pt x="790" y="125" on="0"/>
        <pt x="864" y="166" on="1"/>
        <pt x="1003" y="244" on="0"/>
        <pt x="1067" y="460" on="1"/>
        <pt x="1101" y="573" on="0"/>
        <pt x="1101" y="685" on="1"/>
        <pt x="1103" y="719" on="1"/>
      </contour>
      <contour>
        <pt x="1339" y="794" on="1"/>
        <pt x="1339" y="727" on="1"/>
        <pt x="1339" y="578" on="0"/>
        <pt x="1292" y="434" on="1"/>
        <pt x="1202" y="157" on="0"/>
        <pt x="975" y="44" on="1"/>
        <pt x="843" y="-22" on="0"/>
        <pt x="706" y="-22" on="1"/>
        <pt x="661" y="-22" on="1"/>
        <pt x="550" y="-22" on="0"/>
        <pt x="444" y="26" on="1"/>
        <pt x="233" y="120" on="0"/>
        <pt x="158" y="350" on="1"/>
        <pt x="114" y="485" on="0"/>
        <pt x="114" y="628" on="1"/>
        <pt x="114" y="673" on="1"/>
        <pt x="114" y="815" on="0"/>
        <pt x="209" y="1113" on="0"/>
        <pt x="385" y="1316" on="0"/>
        <pt x="617" y="1420" on="0"/>
        <pt x="738" y="1420" on="1"/>
        <pt x="783" y="1420" on="1"/>
        <pt x="911" y="1420" on="0"/>
        <pt x="1012" y="1371" on="1"/>
        <pt x="1209" y="1275" on="0"/>
        <pt x="1286" y="1070" on="1"/>
        <pt x="1339" y="929" on="0"/>
      </contour>
    </TTGlyph>
    <TTGlyph name="OE" xMin="128" yMin="0" xMax="1766" yMax="1400">
      <contour>
        <pt x="963" y="1051" on="1"/>
        <pt x="963" y="1172" on="0"/>
        <pt x="870" y="1271" on="0"/>
        <pt x="754" y="1271" on="1"/>
        <pt x="739" y="1270" on="1"/>
        <pt x="724" y="1270" on="1"/>
        <pt x="654" y="1270" on="0"/>
        <pt x="498" y="1176" on="0"/>
        <pt x="403" y="1036" on="0"/>
        <pt x="340" y="800" on="0"/>
        <pt x="340" y="677" on="1"/>
        <pt x="340" y="629" on="1"/>
        <pt x="340" y="411" on="0"/>
        <pt x="535" y="137" on="0"/>
        <pt x="700" y="137" on="1"/>
        <pt x="715" y="138" on="1"/>
        <pt x="730" y="138" on="1"/>
        <pt x="799" y="138" on="0"/>
        <pt x="888" y="188" on="0"/>
        <pt x="903" y="220" on="1"/>
        <pt x="961" y="341" on="0"/>
        <pt x="961" y="645" on="1"/>
        <pt x="964" y="693" on="1"/>
        <pt x="968" y="852" on="1"/>
        <pt x="968" y="914" on="1"/>
        <pt x="967" y="929" on="1"/>
        <pt x="964" y="1021" on="1"/>
        <pt x="963" y="1036" on="0"/>
      </contour>
      <contour>
        <pt x="1220" y="944" on="1"/>
        <pt x="1220" y="887" on="0"/>
        <pt x="1289" y="813" on="0"/>
        <pt x="1400" y="813" on="0"/>
        <pt x="1432" y="818" on="1"/>
        <pt x="1467" y="825" on="1"/>
        <pt x="1521" y="835" on="0"/>
        <pt x="1561" y="835" on="1"/>
        <pt x="1655" y="835" on="0"/>
        <pt x="1655" y="723" on="1"/>
        <pt x="1655" y="660" on="0"/>
        <pt x="1591" y="614" on="0"/>
        <pt x="1534" y="614" on="0"/>
        <pt x="1417" y="636" on="0"/>
        <pt x="1379" y="636" on="1"/>
        <pt x="1267" y="636" on="0"/>
        <pt x="1192" y="541" on="0"/>
        <pt x="1192" y="252" on="0"/>
        <pt x="1278" y="160" on="0"/>
        <pt x="1548" y="160" on="0"/>
        <pt x="1687" y="174" on="0"/>
        <pt x="1755" y="174" on="0"/>
        <pt x="1755" y="152" on="1"/>
        <pt x="1755" y="94" on="0"/>
        <pt x="1545" y="12" on="0"/>
        <pt x="1384" y="12" on="1"/>
        <pt x="1312" y="12" on="0"/>
        <pt x="1107" y="37" on="0"/>
        <pt x="1067" y="37" on="0"/>
        <pt x="746" y="0" on="0"/>
        <pt x="697" y="0" on="1"/>
        <pt x="441" y="0" on="0"/>
        <pt x="293" y="152" on="1"/>
        <pt x="225" y="222" on="0"/>
        <pt x="128" y="461" on="0"/>
        <pt x="128" y="611" on="1"/>
        <pt x="128" y="655" on="1"/>
        <pt x="128" y="815" on="0"/>
        <pt x="215" y="1104" on="0"/>
        <pt x="386" y="1297" on="0"/>
        <pt x="617" y="1400" on="0"/>
        <pt x="730" y="1400" on="1"/>
        <pt x="771" y="1400" on="1"/>
        <pt x="826" y="1400" on="0"/>
        <pt x="1116" y="1366" on="0"/>
        <pt x="1166" y="1366" on="0"/>
        <pt x="1385" y="1392" on="0"/>
        <pt x="1609" y="1392" on="0"/>
        <pt x="1766" y="1315" on="0"/>
        <pt x="1766" y="1241" on="0"/>
        <pt x="1644" y="1241" on="1"/>
        <pt x="1461" y="1247" on="1"/>
        <pt x="1329" y="1247" on="0"/>
        <pt x="1220" y="1124" on="0"/>
      </contour>
    </TTGlyph>
    <TTGlyph name="Oacute" xMin="104" yMin="-19" xMax="1308" yMax="1827">
      <contour>
        <pt x="727" y="1289" on="1"/>
        <pt x="694" y="1289" on="1"/>
        <pt x="602" y="1289" on="0"/>
        <pt x="462" y="1200" on="0"/>
        <pt x="386" y="1082" on="0"/>
        <pt x="327" y="866" on="0"/>
        <pt x="327" y="712" on="1"/>
        <pt x="327" y="695" on="1"/>
        <pt x="327" y="438" on="0"/>
        <pt x="517" y="170" on="0"/>
        <pt x="873" y="170" on="0"/>
        <pt x="978" y="318" on="1"/>
        <pt x="1017" y="374" on="0"/>
        <pt x="1077" y="597" on="0"/>
        <pt x="1077" y="733" on="1"/>
        <pt x="1077" y="783" on="1"/>
        <pt x="1077" y="787" on="0"/>
        <pt x="1077" y="791" on="1"/>
        <pt x="1077" y="900" on="0"/>
        <pt x="1050" y="996" on="1"/>
        <pt x="998" y="1188" on="0"/>
        <pt x="873" y="1252" on="1"/>
        <pt x="802" y="1289" on="0"/>
      </contour>
      <contour>
        <pt x="631" y="1484" on="1"/>
        <pt x="609" y="1484" on="1"/>
        <pt x="573" y="1484" on="0"/>
        <pt x="573" y="1514" on="1"/>
        <pt x="573" y="1529" on="1"/>
        <pt x="573" y="1553" on="0"/>
        <pt x="612" y="1603" on="1"/>
        <pt x="716" y="1736" on="0"/>
        <pt x="832" y="1827" on="0"/>
        <pt x="896" y="1827" on="1"/>
        <pt x="912" y="1827" on="1"/>
        <pt x="987" y="1827" on="0"/>
        <pt x="987" y="1777" on="1"/>
        <pt x="987" y="1767" on="1"/>
        <pt x="987" y="1714" on="0"/>
        <pt x="692" y="1484" on="0"/>
      </contour>
      <contour>
        <pt x="1308" y="763" on="1"/>
        <pt x="1308" y="694" on="1"/>
        <pt x="1308" y="540" on="0"/>
        <pt x="1266" y="406" on="1"/>
        <pt x="1181" y="138" on="0"/>
        <pt x="959" y="37" on="1"/>
        <pt x="834" y="-19" on="0"/>
        <pt x="710" y="-19" on="1"/>
        <pt x="664" y="-19" on="1"/>
        <pt x="548" y="-18" on="0"/>
        <pt x="440" y="28" on="1"/>
        <pt x="219" y="124" on="0"/>
        <pt x="143" y="382" on="1"/>
        <pt x="104" y="515" on="0"/>
        <pt x="104" y="663" on="1"/>
        <pt x="104" y="709" on="1"/>
        <pt x="104" y="862" on="0"/>
        <pt x="148" y="1000" on="1"/>
        <pt x="233" y="1269" on="0"/>
        <pt x="449" y="1365" on="1"/>
        <pt x="570" y="1419" on="0"/>
        <pt x="697" y="1419" on="1"/>
        <pt x="742" y="1419" on="1"/>
        <pt x="867" y="1419" on="0"/>
        <pt x="1086" y="1321" on="0"/>
        <pt x="1225" y="1155" on="0"/>
        <pt x="1308" y="894" on="0"/>
      </contour>
    </TTGlyph>
    <TTGlyph name="Ocircumflex" xMin="103" yMin="-22" xMax="1310" yMax="1825">
      <contour>
        <pt x="1310" y="696" on="1"/>
        <pt x="1310" y="550" on="0"/>
        <pt x="1269" y="410" on="1"/>
        <pt x="1188" y="133" on="0"/>
        <pt x="945" y="27" on="1"/>
        <pt x="833" y="-22" on="0"/>
        <pt x="692" y="-22" on="1"/>
        <pt x="669" y="-22" on="1"/>
        <pt x="538" y="-22" on="0"/>
        <pt x="428" y="28" on="1"/>
        <pt x="215" y="125" on="0"/>
        <pt x="143" y="375" on="1"/>
        <pt x="103" y="512" on="0"/>
        <pt x="103" y="633" on="1"/>
        <pt x="103" y="724" on="1"/>
        <pt x="103" y="860" on="0"/>
        <pt x="148" y="1002" on="1"/>
        <pt x="231" y="1264" on="0"/>
        <pt x="443" y="1362" on="1"/>
        <pt x="567" y="1419" on="0"/>
        <pt x="714" y="1419" on="1"/>
        <pt x="737" y="1418" on="1"/>
        <pt x="759" y="1418" on="1"/>
        <pt x="868" y="1418" on="0"/>
        <pt x="977" y="1368" on="1"/>
        <pt x="1187" y="1272" on="0"/>
        <pt x="1262" y="1043" on="1"/>
        <pt x="1310" y="895" on="0"/>
        <pt x="1310" y="742" on="1"/>
      </contour>
      <contour>
        <pt x="1013" y="1543" on="1"/>
        <pt x="1013" y="1543" on="0"/>
        <pt x="1013" y="1537" on="1"/>
        <pt x="1013" y="1506" on="0"/>
        <pt x="939" y="1506" on="1"/>
        <pt x="892" y="1506" on="0"/>
        <pt x="725" y="1659" on="0"/>
        <pt x="704" y="1659" on="0"/>
        <pt x="519" y="1502" on="0"/>
        <pt x="464" y="1502" on="1"/>
        <pt x="456" y="1502" on="1"/>
        <pt x="403" y="1502" on="0"/>
        <pt x="403" y="1531" on="1"/>
        <pt x="403" y="1538" on="1"/>
        <pt x="403" y="1554" on="0"/>
        <pt x="468" y="1634" on="1"/>
        <pt x="624" y="1825" on="0"/>
        <pt x="712" y="1825" on="1"/>
        <pt x="720" y="1825" on="1"/>
        <pt x="729" y="1824" on="1"/>
        <pt x="818" y="1824" on="0"/>
        <pt x="989" y="1584" on="1"/>
        <pt x="1013" y="1550" on="0"/>
      </contour>
      <contour>
        <pt x="326" y="735" on="1"/>
        <pt x="326" y="702" on="1"/>
        <pt x="326" y="314" on="0"/>
        <pt x="529" y="202" on="1"/>
        <pt x="602" y="162" on="0"/>
        <pt x="682" y="161" on="1"/>
        <pt x="714" y="161" on="1"/>
        <pt x="798" y="162" on="0"/>
        <pt x="870" y="202" on="1"/>
        <pt x="1077" y="317" on="0"/>
        <pt x="1077" y="709" on="1"/>
        <pt x="1077" y="713" on="1"/>
        <pt x="1077" y="763" on="1"/>
        <pt x="1077" y="862" on="0"/>
        <pt x="1018" y="1083" on="0"/>
        <pt x="973" y="1147" on="1"/>
        <pt x="879" y="1280" on="0"/>
        <pt x="708" y="1280" on="1"/>
        <pt x="692" y="1280" on="1"/>
        <pt x="526" y="1280" on="0"/>
        <pt x="426" y="1137" on="1"/>
        <pt x="386" y="1080" on="0"/>
        <pt x="326" y="856" on="0"/>
      </contour>
    </TTGlyph>
    <TTGlyph name="Odieresis" xMin="89" yMin="-19" xMax="1304" yMax="1778">
      <contour>
        <pt x="319" y="737" on="1"/>
        <pt x="319" y="687" on="1"/>
        <pt x="319" y="561" on="0"/>
        <pt x="375" y="350" on="0"/>
        <pt x="455" y="231" on="0"/>
        <pt x="586" y="152" on="0"/>
        <pt x="672" y="152" on="1"/>
        <pt x="704" y="152" on="1"/>
        <pt x="787" y="152" on="0"/>
        <pt x="857" y="194" on="1"/>
        <pt x="1060" y="316" on="0"/>
        <pt x="1060" y="702" on="1"/>
        <pt x="1060" y="752" on="1"/>
        <pt x="1060" y="879" on="0"/>
        <pt x="1030" y="987" on="1"/>
        <pt x="1000" y="1096" on="0"/>
        <pt x="958" y="1154" on="1"/>
        <pt x="864" y="1286" on="0"/>
        <pt x="694" y="1286" on="1"/>
        <pt x="678" y="1286" on="1"/>
        <pt x="591" y="1286" on="0"/>
        <pt x="520" y="1244" on="1"/>
        <pt x="319" y="1124" on="0"/>
      </contour>
      <contour>
        <pt x="402" y="1671" on="1"/>
        <pt x="402" y="1778" on="0"/>
        <pt x="517" y="1778" on="1"/>
        <pt x="525" y="1778" on="1"/>
        <pt x="628" y="1778" on="0"/>
        <pt x="628" y="1703" on="1"/>
        <pt x="631" y="1680" on="1"/>
        <pt x="631" y="1657" on="1"/>
        <pt x="626" y="1637" on="0"/>
        <pt x="626" y="1603" on="0"/>
        <pt x="577" y="1554" on="0"/>
        <pt x="528" y="1554" on="1"/>
        <pt x="496" y="1554" on="1"/>
        <pt x="406" y="1554" on="0"/>
        <pt x="406" y="1625" on="1"/>
        <pt x="404" y="1631" on="0"/>
        <pt x="404" y="1636" on="1"/>
        <pt x="402" y="1655" on="1"/>
      </contour>
      <contour>
        <pt x="1017" y="1647" on="1"/>
        <pt x="1014" y="1616" on="1"/>
        <pt x="1014" y="1582" on="0"/>
        <pt x="959" y="1536" on="0"/>
        <pt x="927" y="1536" on="1"/>
        <pt x="902" y="1533" on="1"/>
        <pt x="889" y="1533" on="1"/>
        <pt x="885" y="1534" on="1"/>
        <pt x="828" y="1534" on="0"/>
        <pt x="781" y="1581" on="0"/>
        <pt x="781" y="1613" on="1"/>
        <pt x="778" y="1632" on="1"/>
        <pt x="778" y="1660" on="1"/>
        <pt x="778" y="1709" on="0"/>
        <pt x="832" y="1763" on="0"/>
        <pt x="869" y="1763" on="1"/>
        <pt x="894" y="1766" on="1"/>
        <pt x="924" y="1766" on="1"/>
        <pt x="947" y="1762" on="1"/>
        <pt x="1014" y="1762" on="0"/>
        <pt x="1014" y="1691" on="1"/>
        <pt x="1017" y="1675" on="1"/>
        <pt x="1017" y="1671" on="0"/>
        <pt x="1017" y="1667" on="1"/>
        <pt x="1018" y="1655" on="1"/>
        <pt x="1018" y="1651" on="1"/>
      </contour>
      <contour>
        <pt x="1304" y="742" on="1"/>
        <pt x="1304" y="696" on="1"/>
        <pt x="1304" y="554" on="0"/>
        <pt x="1263" y="414" on="1"/>
        <pt x="1181" y="135" on="0"/>
        <pt x="953" y="37" on="1"/>
        <pt x="825" y="-19" on="0"/>
        <pt x="527" y="-19" on="0"/>
        <pt x="300" y="89" on="0"/>
        <pt x="160" y="268" on="0"/>
        <pt x="89" y="532" on="0"/>
        <pt x="89" y="666" on="1"/>
        <pt x="89" y="712" on="1"/>
        <pt x="89" y="715" on="0"/>
        <pt x="89" y="719" on="1"/>
        <pt x="89" y="869" on="0"/>
        <pt x="134" y="1006" on="1"/>
        <pt x="220" y="1271" on="0"/>
        <pt x="439" y="1369" on="1"/>
        <pt x="562" y="1424" on="0"/>
        <pt x="689" y="1424" on="1"/>
        <pt x="735" y="1424" on="1"/>
        <pt x="854" y="1424" on="0"/>
        <pt x="1072" y="1332" on="0"/>
        <pt x="1216" y="1167" on="0"/>
        <pt x="1304" y="897" on="0"/>
      </contour>
    </TTGlyph>
    <TTGlyph name="Ograve" xMin="102" yMin="-18" xMax="1311" yMax="1845">
      <contour>
        <pt x="328" y="739" on="1"/>
        <pt x="328" y="688" on="1"/>
        <pt x="328" y="566" on="0"/>
        <pt x="357" y="458" on="1"/>
        <pt x="412" y="251" on="0"/>
        <pt x="551" y="184" on="1"/>
        <pt x="615" y="153" on="0"/>
        <pt x="685" y="153" on="1"/>
        <pt x="718" y="153" on="1"/>
        <pt x="890" y="153" on="0"/>
        <pt x="1074" y="445" on="0"/>
        <pt x="1074" y="715" on="1"/>
        <pt x="1074" y="748" on="1"/>
        <pt x="1074" y="870" on="0"/>
        <pt x="1015" y="1085" on="0"/>
        <pt x="970" y="1148" on="1"/>
        <pt x="875" y="1281" on="0"/>
        <pt x="703" y="1281" on="1"/>
        <pt x="687" y="1281" on="1"/>
        <pt x="509" y="1281" on="0"/>
        <pt x="328" y="990" on="0"/>
      </contour>
      <contour>
        <pt x="438" y="1776" on="1"/>
        <pt x="438" y="1791" on="1"/>
        <pt x="438" y="1845" on="0"/>
        <pt x="524" y="1845" on="1"/>
        <pt x="541" y="1845" on="1"/>
        <pt x="615" y="1845" on="0"/>
        <pt x="680" y="1780" on="1"/>
        <pt x="846" y="1614" on="0"/>
        <pt x="846" y="1549" on="1"/>
        <pt x="846" y="1544" on="1"/>
        <pt x="846" y="1507" on="0"/>
        <pt x="798" y="1507" on="1"/>
        <pt x="793" y="1508" on="1"/>
        <pt x="787" y="1508" on="1"/>
        <pt x="720" y="1508" on="0"/>
        <pt x="438" y="1728" on="0"/>
      </contour>
      <contour>
        <pt x="1311" y="742" on="1"/>
        <pt x="1311" y="696" on="1"/>
        <pt x="1311" y="693" on="0"/>
        <pt x="1311" y="689" on="1"/>
        <pt x="1311" y="541" on="0"/>
        <pt x="1268" y="406" on="1"/>
        <pt x="1183" y="136" on="0"/>
        <pt x="960" y="38" on="1"/>
        <pt x="835" y="-18" on="0"/>
        <pt x="711" y="-18" on="1"/>
        <pt x="665" y="-18" on="1"/>
        <pt x="548" y="-18" on="0"/>
        <pt x="434" y="30" on="1"/>
        <pt x="211" y="124" on="0"/>
        <pt x="136" y="404" on="1"/>
        <pt x="102" y="531" on="0"/>
        <pt x="102" y="862" on="0"/>
        <pt x="146" y="998" on="1"/>
        <pt x="233" y="1271" on="0"/>
        <pt x="449" y="1368" on="1"/>
        <pt x="570" y="1422" on="0"/>
        <pt x="697" y="1422" on="1"/>
        <pt x="743" y="1422" on="1"/>
        <pt x="868" y="1422" on="0"/>
        <pt x="1089" y="1323" on="0"/>
        <pt x="1225" y="1160" on="0"/>
        <pt x="1311" y="897" on="0"/>
      </contour>
    </TTGlyph>
    <TTGlyph name="Oslash" xMin="115" yMin="-44" xMax="1297" yMax="1437">
      <contour>
        <pt x="331" y="600" on="1"/>
        <pt x="331" y="456" on="0"/>
        <pt x="388" y="353" on="1"/>
        <pt x="405" y="322" on="0"/>
        <pt x="420" y="322" on="1"/>
        <pt x="454" y="322" on="0"/>
        <pt x="621" y="592" on="1"/>
        <pt x="916" y="1069" on="0"/>
        <pt x="916" y="1159" on="1"/>
        <pt x="916" y="1169" on="1"/>
        <pt x="916" y="1218" on="0"/>
        <pt x="793" y="1276" on="0"/>
        <pt x="734" y="1276" on="1"/>
        <pt x="683" y="1276" on="1"/>
        <pt x="605" y="1276" on="0"/>
        <pt x="538" y="1232" on="1"/>
        <pt x="409" y="1148" on="0"/>
        <pt x="362" y="963" on="1"/>
        <pt x="329" y="831" on="0"/>
        <pt x="329" y="720" on="1"/>
        <pt x="329" y="640" on="1"/>
        <pt x="331" y="612" on="0"/>
      </contour>
      <contour>
        <pt x="1057" y="845" on="1"/>
        <pt x="1057" y="894" on="1"/>
        <pt x="1057" y="1090" on="0"/>
        <pt x="1019" y="1090" on="1"/>
        <pt x="1003" y="1090" on="0"/>
        <pt x="843" y="769" on="0"/>
        <pt x="514" y="212" on="0"/>
        <pt x="514" y="201" on="1"/>
        <pt x="514" y="191" on="1"/>
        <pt x="514" y="166" on="0"/>
        <pt x="573" y="116" on="0"/>
        <pt x="628" y="116" on="1"/>
        <pt x="639" y="116" on="1"/>
        <pt x="728" y="116" on="0"/>
        <pt x="886" y="219" on="0"/>
        <pt x="996" y="410" on="0"/>
        <pt x="1057" y="717" on="0"/>
      </contour>
      <contour>
        <pt x="655" y="-14" on="1"/>
        <pt x="438" y="3" on="1"/>
        <pt x="398" y="3" on="0"/>
        <pt x="304" y="-44" on="0"/>
        <pt x="279" y="-44" on="1"/>
        <pt x="213" y="-44" on="0"/>
        <pt x="213" y="25" on="1"/>
        <pt x="215" y="43" on="1"/>
        <pt x="221" y="80" on="1"/>
        <pt x="223" y="95" on="0"/>
        <pt x="223" y="137" on="1"/>
        <pt x="223" y="143" on="0"/>
        <pt x="115" y="497" on="0"/>
        <pt x="115" y="636" on="1"/>
        <pt x="115" y="689" on="1"/>
        <pt x="115" y="828" on="0"/>
        <pt x="202" y="1119" on="0"/>
        <pt x="382" y="1322" on="0"/>
        <pt x="617" y="1413" on="0"/>
        <pt x="777" y="1413" on="1"/>
        <pt x="836" y="1413" on="0"/>
        <pt x="961" y="1392" on="0"/>
        <pt x="1013" y="1392" on="0"/>
        <pt x="1112" y="1437" on="0"/>
        <pt x="1132" y="1437" on="1"/>
        <pt x="1200" y="1437" on="0"/>
        <pt x="1200" y="1369" on="1"/>
        <pt x="1198" y="1352" on="1"/>
        <pt x="1192" y="1315" on="1"/>
        <pt x="1189" y="1293" on="0"/>
        <pt x="1189" y="1235" on="0"/>
        <pt x="1214" y="1160" on="1"/>
        <pt x="1237" y="1097" on="1"/>
        <pt x="1297" y="917" on="0"/>
        <pt x="1297" y="758" on="1"/>
        <pt x="1297" y="732" on="1"/>
        <pt x="1297" y="574" on="0"/>
        <pt x="1209" y="280" on="0"/>
        <pt x="1123" y="183" on="1"/>
        <pt x="948" y="-14" on="0"/>
      </contour>
    </TTGlyph>
    <TTGlyph name="Otilde" xMin="105" yMin="-19" xMax="1313" yMax="1761">
      <contour>
        <pt x="326" y="744" on="1"/>
        <pt x="326" y="677" on="1"/>
        <pt x="326" y="582" on="0"/>
        <pt x="354" y="475" on="1"/>
        <pt x="384" y="368" on="0"/>
        <pt x="428" y="306" on="1"/>
        <pt x="526" y="168" on="0"/>
        <pt x="702" y="168" on="1"/>
        <pt x="969" y="168" on="0"/>
        <pt x="1050" y="460" on="1"/>
        <pt x="1084" y="583" on="0"/>
        <pt x="1084" y="729" on="1"/>
        <pt x="1084" y="762" on="1"/>
        <pt x="1084" y="872" on="0"/>
        <pt x="1024" y="1092" on="0"/>
        <pt x="978" y="1155" on="1"/>
        <pt x="882" y="1286" on="0"/>
        <pt x="710" y="1286" on="1"/>
        <pt x="693" y="1286" on="1"/>
        <pt x="526" y="1286" on="0"/>
        <pt x="426" y="1146" on="1"/>
        <pt x="385" y="1088" on="0"/>
        <pt x="326" y="874" on="0"/>
      </contour>
      <contour>
        <pt x="563" y="1761" on="1"/>
        <pt x="597" y="1761" on="1"/>
        <pt x="642" y="1761" on="0"/>
        <pt x="827" y="1674" on="0"/>
        <pt x="897" y="1674" on="0"/>
        <pt x="985" y="1747" on="0"/>
        <pt x="1009" y="1747" on="1"/>
        <pt x="1049" y="1747" on="0"/>
        <pt x="1049" y="1709" on="1"/>
        <pt x="1049" y="1701" on="1"/>
        <pt x="1049" y="1628" on="0"/>
        <pt x="921" y="1520" on="0"/>
        <pt x="863" y="1520" on="1"/>
        <pt x="839" y="1520" on="1"/>
        <pt x="790" y="1520" on="0"/>
        <pt x="605" y="1607" on="0"/>
        <pt x="533" y="1607" on="0"/>
        <pt x="437" y="1533" on="0"/>
        <pt x="413" y="1533" on="1"/>
        <pt x="373" y="1533" on="0"/>
        <pt x="373" y="1570" on="1"/>
        <pt x="373" y="1587" on="1"/>
        <pt x="373" y="1645" on="0"/>
        <pt x="500" y="1761" on="0"/>
      </contour>
      <contour>
        <pt x="1313" y="741" on="1"/>
        <pt x="1313" y="695" on="1"/>
        <pt x="1313" y="692" on="0"/>
        <pt x="1313" y="688" on="1"/>
        <pt x="1313" y="549" on="0"/>
        <pt x="1274" y="416" on="1"/>
        <pt x="1194" y="141" on="0"/>
        <pt x="962" y="37" on="1"/>
        <pt x="838" y="-19" on="0"/>
        <pt x="698" y="-19" on="1"/>
        <pt x="414" y="-19" on="0"/>
        <pt x="257" y="161" on="1"/>
        <pt x="189" y="239" on="0"/>
        <pt x="105" y="505" on="0"/>
        <pt x="105" y="641" on="1"/>
        <pt x="105" y="710" on="1"/>
        <pt x="105" y="863" on="0"/>
        <pt x="150" y="1004" on="1"/>
        <pt x="235" y="1270" on="0"/>
        <pt x="452" y="1367" on="1"/>
        <pt x="573" y="1421" on="0"/>
        <pt x="700" y="1421" on="1"/>
        <pt x="746" y="1421" on="1"/>
        <pt x="871" y="1421" on="0"/>
        <pt x="1087" y="1324" on="0"/>
        <pt x="1226" y="1165" on="0"/>
        <pt x="1313" y="897" on="0"/>
      </contour>
    </TTGlyph>
    <TTGlyph name="P" xMin="153" yMin="21" xMax="1156" yMax="1418">
      <contour>
        <pt x="600" y="683" on="1"/>
        <pt x="747" y="683" on="0"/>
        <pt x="928" y="851" on="0"/>
        <pt x="928" y="991" on="1"/>
        <pt x="928" y="1034" on="1"/>
        <pt x="928" y="1153" on="0"/>
        <pt x="773" y="1284" on="0"/>
        <pt x="647" y="1284" on="1"/>
        <pt x="619" y="1284" on="1"/>
        <pt x="519" y="1284" on="0"/>
        <pt x="462" y="1232" on="0"/>
        <pt x="462" y="1148" on="1"/>
        <pt x="460" y="1128" on="0"/>
        <pt x="460" y="1119" on="1"/>
        <pt x="456" y="1050" on="1"/>
        <pt x="456" y="1040" on="0"/>
        <pt x="456" y="1030" on="1"/>
        <pt x="449" y="902" on="1"/>
        <pt x="448" y="892" on="1"/>
        <pt x="448" y="882" on="0"/>
        <pt x="448" y="872" on="1"/>
        <pt x="443" y="785" on="1"/>
        <pt x="443" y="748" on="1"/>
        <pt x="443" y="685" on="0"/>
        <pt x="528" y="685" on="1"/>
        <pt x="545" y="683" on="1"/>
      </contour>
      <contour>
        <pt x="277" y="21" on="1"/>
        <pt x="153" y="21" on="0"/>
        <pt x="153" y="116" on="1"/>
        <pt x="153" y="130" on="0"/>
        <pt x="208" y="286" on="0"/>
        <pt x="236" y="611" on="0"/>
        <pt x="236" y="738" on="1"/>
        <pt x="239" y="806" on="1"/>
        <pt x="242" y="874" on="0"/>
        <pt x="242" y="895" on="1"/>
        <pt x="243" y="917" on="1"/>
        <pt x="243" y="1047" on="1"/>
        <pt x="243" y="1229" on="0"/>
        <pt x="224" y="1331" on="0"/>
        <pt x="224" y="1344" on="1"/>
        <pt x="224" y="1386" on="0"/>
        <pt x="314" y="1399" on="1"/>
        <pt x="444" y="1418" on="0"/>
        <pt x="674" y="1418" on="1"/>
        <pt x="1020" y="1418" on="0"/>
        <pt x="1119" y="1207" on="1"/>
        <pt x="1156" y="1129" on="0"/>
        <pt x="1156" y="1049" on="1"/>
        <pt x="1156" y="1024" on="1"/>
        <pt x="1156" y="833" on="0"/>
        <pt x="1028" y="711" on="1"/>
        <pt x="969" y="654" on="0"/>
        <pt x="834" y="595" on="0"/>
        <pt x="717" y="571" on="1"/>
        <pt x="438" y="514" on="0"/>
        <pt x="438" y="350" on="1"/>
        <pt x="438" y="308" on="0"/>
        <pt x="460" y="201" on="0"/>
        <pt x="460" y="179" on="1"/>
        <pt x="460" y="114" on="0"/>
        <pt x="363" y="21" on="0"/>
        <pt x="297" y="21" on="1"/>
      </contour>
    </TTGlyph>
    <TTGlyph name="Q" xMin="102" yMin="-223" xMax="1335" yMax="1426">
      <contour>
        <pt x="324" y="651" on="1"/>
        <pt x="324" y="525" on="0"/>
        <pt x="387" y="329" on="0"/>
        <pt x="468" y="222" on="0"/>
        <pt x="596" y="143" on="0"/>
        <pt x="667" y="143" on="1"/>
        <pt x="711" y="143" on="1"/>
        <pt x="787" y="143" on="0"/>
        <pt x="958" y="257" on="0"/>
        <pt x="1022" y="350" on="1"/>
        <pt x="1128" y="506" on="0"/>
        <pt x="1128" y="723" on="1"/>
        <pt x="1128" y="757" on="1"/>
        <pt x="1128" y="870" on="0"/>
        <pt x="1098" y="973" on="1"/>
        <pt x="1042" y="1165" on="0"/>
        <pt x="917" y="1233" on="1"/>
        <pt x="840" y="1276" on="0"/>
        <pt x="764" y="1276" on="1"/>
        <pt x="730" y="1276" on="1"/>
        <pt x="560" y="1276" on="0"/>
        <pt x="446" y="1126" on="1"/>
        <pt x="392" y="1055" on="0"/>
        <pt x="326" y="821" on="0"/>
        <pt x="326" y="721" on="1"/>
        <pt x="324" y="686" on="1"/>
      </contour>
      <contour>
        <pt x="1335" y="773" on="1"/>
        <pt x="1335" y="719" on="1"/>
        <pt x="1335" y="438" on="0"/>
        <pt x="1201" y="210" on="1"/>
        <pt x="1116" y="66" on="0"/>
        <pt x="1116" y="50" on="1"/>
        <pt x="1116" y="12" on="0"/>
        <pt x="1302" y="-148" on="0"/>
        <pt x="1302" y="-177" on="0"/>
        <pt x="1226" y="-223" on="0"/>
        <pt x="1152" y="-223" on="1"/>
        <pt x="1128" y="-223" on="1"/>
        <pt x="1023" y="-223" on="0"/>
        <pt x="796" y="-127" on="1"/>
        <pt x="435" y="25" on="0"/>
        <pt x="330" y="119" on="1"/>
        <pt x="226" y="213" on="0"/>
        <pt x="164" y="360" on="1"/>
        <pt x="102" y="506" on="0"/>
        <pt x="102" y="678" on="1"/>
        <pt x="102" y="1191" on="0"/>
        <pt x="467" y="1369" on="1"/>
        <pt x="583" y="1426" on="0"/>
        <pt x="700" y="1426" on="1"/>
        <pt x="756" y="1426" on="1"/>
        <pt x="882" y="1426" on="0"/>
        <pt x="996" y="1376" on="1"/>
        <pt x="1206" y="1284" on="0"/>
        <pt x="1289" y="1064" on="1"/>
        <pt x="1335" y="939" on="0"/>
      </contour>
    </TTGlyph>
    <TTGlyph name="R" xMin="136" yMin="17" xMax="1170" yMax="1411">
      <contour>
        <pt x="905" y="1014" on="1"/>
        <pt x="905" y="1043" on="1"/>
        <pt x="905" y="1152" on="0"/>
        <pt x="761" y="1274" on="0"/>
        <pt x="634" y="1274" on="1"/>
        <pt x="598" y="1274" on="1"/>
        <pt x="502" y="1274" on="0"/>
        <pt x="444" y="1222" on="0"/>
        <pt x="444" y="1127" on="1"/>
        <pt x="442" y="1109" on="1"/>
        <pt x="429" y="823" on="1"/>
        <pt x="429" y="788" on="1"/>
        <pt x="429" y="751" on="0"/>
        <pt x="470" y="725" on="0"/>
        <pt x="528" y="725" on="1"/>
        <pt x="537" y="726" on="1"/>
        <pt x="572" y="727" on="1"/>
        <pt x="607" y="729" on="1"/>
        <pt x="733" y="729" on="0"/>
        <pt x="905" y="888" on="0"/>
      </contour>
      <contour>
        <pt x="423" y="311" on="1"/>
        <pt x="444" y="144" on="1"/>
        <pt x="444" y="88" on="0"/>
        <pt x="351" y="22" on="0"/>
        <pt x="274" y="22" on="1"/>
        <pt x="136" y="22" on="0"/>
        <pt x="136" y="132" on="1"/>
        <pt x="136" y="155" on="0"/>
        <pt x="192" y="272" on="0"/>
        <pt x="198" y="331" on="1"/>
        <pt x="224" y="587" on="0"/>
        <pt x="224" y="944" on="1"/>
        <pt x="225" y="974" on="1"/>
        <pt x="226" y="1004" on="0"/>
        <pt x="226" y="1033" on="1"/>
        <pt x="228" y="1122" on="1"/>
        <pt x="228" y="1235" on="0"/>
        <pt x="222" y="1280" on="1"/>
        <pt x="218" y="1301" on="1"/>
        <pt x="213" y="1330" on="0"/>
        <pt x="213" y="1338" on="1"/>
        <pt x="213" y="1383" on="0"/>
        <pt x="345" y="1411" on="0"/>
        <pt x="550" y="1411" on="1"/>
        <pt x="644" y="1411" on="1"/>
        <pt x="982" y="1411" on="0"/>
        <pt x="1083" y="1213" on="1"/>
        <pt x="1118" y="1142" on="0"/>
        <pt x="1118" y="1046" on="1"/>
        <pt x="1118" y="870" on="0"/>
        <pt x="970" y="725" on="1"/>
        <pt x="888" y="645" on="0"/>
        <pt x="888" y="547" on="0"/>
        <pt x="1010" y="325" on="1"/>
        <pt x="1050" y="253" on="0"/>
        <pt x="1170" y="119" on="0"/>
        <pt x="1170" y="91" on="1"/>
        <pt x="1170" y="71" on="1"/>
        <pt x="1170" y="17" on="0"/>
        <pt x="994" y="17" on="0"/>
        <pt x="909" y="110" on="0"/>
        <pt x="710" y="480" on="0"/>
        <pt x="700" y="492" on="1"/>
        <pt x="638" y="566" on="0"/>
        <pt x="492" y="566" on="0"/>
        <pt x="448" y="490" on="1"/>
        <pt x="423" y="447" on="0"/>
      </contour>
    </TTGlyph>
    <TTGlyph name="S" xMin="111" yMin="-11" xMax="1035" yMax="1420">
      <contour>
        <pt x="1010" y="1228" on="1"/>
        <pt x="1010" y="1181" on="0"/>
        <pt x="968" y="1127" on="0"/>
        <pt x="937" y="1127" on="0"/>
        <pt x="793" y="1214" on="1"/>
        <pt x="705" y="1267" on="0"/>
        <pt x="512" y="1267" on="0"/>
        <pt x="377" y="1170" on="0"/>
        <pt x="377" y="996" on="0"/>
        <pt x="450" y="929" on="1"/>
        <pt x="487" y="895" on="0"/>
        <pt x="863" y="716" on="0"/>
        <pt x="935" y="643" on="1"/>
        <pt x="1035" y="541" on="0"/>
        <pt x="1035" y="410" on="1"/>
        <pt x="1035" y="376" on="1"/>
        <pt x="1034" y="297" on="0"/>
        <pt x="996" y="221" on="1"/>
        <pt x="923" y="77" on="0"/>
        <pt x="749" y="19" on="1"/>
        <pt x="659" y="-11" on="0"/>
        <pt x="549" y="-11" on="1"/>
        <pt x="208" y="-11" on="0"/>
        <pt x="136" y="135" on="1"/>
        <pt x="111" y="186" on="0"/>
        <pt x="111" y="228" on="1"/>
        <pt x="111" y="268" on="0"/>
        <pt x="133" y="294" on="1"/>
        <pt x="155" y="321" on="0"/>
        <pt x="211" y="321" on="0"/>
        <pt x="338" y="213" on="0"/>
        <pt x="472" y="148" on="0"/>
        <pt x="676" y="148" on="0"/>
        <pt x="817" y="256" on="0"/>
        <pt x="817" y="456" on="0"/>
        <pt x="716" y="533" on="1"/>
        <pt x="671" y="567" on="0"/>
        <pt x="332" y="728" on="0"/>
        <pt x="262" y="803" on="1"/>
        <pt x="169" y="902" on="0"/>
        <pt x="169" y="1041" on="1"/>
        <pt x="169" y="1217" on="0"/>
        <pt x="429" y="1420" on="0"/>
        <pt x="619" y="1420" on="1"/>
        <pt x="654" y="1420" on="1"/>
        <pt x="851" y="1420" on="0"/>
        <pt x="1010" y="1317" on="0"/>
      </contour>
    </TTGlyph>
    <TTGlyph name="Scaron" xMin="105" yMin="-2" xMax="1039" yMax="1832">
      <contour>
        <pt x="589" y="1508" on="1"/>
        <pt x="573" y="1508" on="1"/>
        <pt x="527" y="1508" on="0"/>
        <pt x="486" y="1553" on="1"/>
        <pt x="299" y="1757" on="0"/>
        <pt x="299" y="1826" on="0"/>
        <pt x="417" y="1826" on="0"/>
        <pt x="490" y="1759" on="1"/>
        <pt x="594" y="1664" on="1"/>
        <pt x="599" y="1664" on="0"/>
        <pt x="664" y="1729" on="0"/>
        <pt x="700" y="1762" on="1"/>
        <pt x="776" y="1832" on="0"/>
        <pt x="828" y="1832" on="1"/>
        <pt x="835" y="1832" on="1"/>
        <pt x="886" y="1832" on="0"/>
        <pt x="886" y="1803" on="1"/>
        <pt x="886" y="1753" on="0"/>
        <pt x="698" y="1565" on="1"/>
        <pt x="641" y="1508" on="0"/>
      </contour>
      <contour>
        <pt x="823" y="378" on="1"/>
        <pt x="823" y="462" on="0"/>
        <pt x="727" y="534" on="1"/>
        <pt x="673" y="575" on="0"/>
        <pt x="296" y="728" on="0"/>
        <pt x="225" y="802" on="1"/>
        <pt x="131" y="900" on="0"/>
        <pt x="131" y="1211" on="0"/>
        <pt x="247" y="1307" on="1"/>
        <pt x="305" y="1356" on="0"/>
        <pt x="476" y="1410" on="0"/>
        <pt x="558" y="1410" on="1"/>
        <pt x="593" y="1410" on="1"/>
        <pt x="817" y="1410" on="0"/>
        <pt x="989" y="1305" on="0"/>
        <pt x="989" y="1215" on="1"/>
        <pt x="989" y="1164" on="0"/>
        <pt x="950" y="1111" on="0"/>
        <pt x="921" y="1111" on="1"/>
        <pt x="892" y="1112" on="0"/>
        <pt x="830" y="1160" on="1"/>
        <pt x="703" y="1258" on="0"/>
        <pt x="559" y="1258" on="1"/>
        <pt x="470" y="1258" on="0"/>
        <pt x="339" y="1166" on="0"/>
        <pt x="339" y="986" on="0"/>
        <pt x="421" y="922" on="1"/>
        <pt x="464" y="888" on="0"/>
        <pt x="870" y="727" on="0"/>
        <pt x="1039" y="543" on="0"/>
        <pt x="1039" y="393" on="1"/>
        <pt x="1039" y="209" on="0"/>
        <pt x="779" y="-2" on="0"/>
        <pt x="339" y="-2" on="0"/>
        <pt x="208" y="61" on="1"/>
        <pt x="169" y="80" on="0"/>
        <pt x="105" y="171" on="0"/>
        <pt x="105" y="223" on="1"/>
        <pt x="105" y="332" on="0"/>
        <pt x="181" y="332" on="1"/>
        <pt x="202" y="332" on="0"/>
        <pt x="264" y="279" on="1"/>
        <pt x="408" y="155" on="0"/>
        <pt x="574" y="155" on="1"/>
        <pt x="823" y="155" on="0"/>
      </contour>
    </TTGlyph>
    <TTGlyph name="T" xMin="95" yMin="1" xMax="1185" yMax="1409">
      <contour>
        <pt x="1185" y="1280" on="1"/>
        <pt x="1185" y="1226" on="0"/>
        <pt x="1144" y="1191" on="0"/>
        <pt x="1120" y="1191" on="1"/>
        <pt x="1119" y="1191" on="0"/>
        <pt x="1118" y="1191" on="1"/>
        <pt x="1094" y="1191" on="0"/>
        <pt x="1040" y="1212" on="1"/>
        <pt x="985" y="1234" on="0"/>
        <pt x="836" y="1234" on="0"/>
        <pt x="767" y="1182" on="0"/>
        <pt x="742" y="1083" on="0"/>
        <pt x="703" y="356" on="0"/>
        <pt x="703" y="263" on="0"/>
        <pt x="743" y="111" on="0"/>
        <pt x="743" y="104" on="1"/>
        <pt x="743" y="55" on="0"/>
        <pt x="654" y="1" on="0"/>
        <pt x="496" y="1" on="0"/>
        <pt x="410" y="54" on="0"/>
        <pt x="410" y="101" on="1"/>
        <pt x="410" y="122" on="0"/>
        <pt x="473" y="259" on="0"/>
        <pt x="482" y="325" on="1"/>
        <pt x="520" y="618" on="0"/>
        <pt x="520" y="1028" on="1"/>
        <pt x="520" y="1151" on="0"/>
        <pt x="464" y="1230" on="0"/>
        <pt x="324" y="1230" on="0"/>
        <pt x="162" y="1169" on="0"/>
        <pt x="144" y="1169" on="1"/>
        <pt x="95" y="1169" on="0"/>
        <pt x="95" y="1375" on="0"/>
        <pt x="287" y="1408" on="0"/>
        <pt x="796" y="1408" on="1"/>
        <pt x="854" y="1408" on="1"/>
        <pt x="911" y="1409" on="1"/>
        <pt x="1097" y="1409" on="0"/>
        <pt x="1122" y="1401" on="1"/>
        <pt x="1185" y="1381" on="0"/>
        <pt x="1185" y="1303" on="1"/>
      </contour>
    </TTGlyph>
    <TTGlyph name="Thorn" xMin="154" yMin="2" xMax="1119" yMax="1395">
      <contour>
        <pt x="879" y="722" on="1"/>
        <pt x="879" y="754" on="1"/>
        <pt x="879" y="881" on="0"/>
        <pt x="740" y="1031" on="0"/>
        <pt x="611" y="1031" on="1"/>
        <pt x="557" y="1031" on="1"/>
        <pt x="451" y="1031" on="0"/>
        <pt x="436" y="985" on="1"/>
        <pt x="427" y="958" on="0"/>
        <pt x="427" y="716" on="1"/>
        <pt x="426" y="697" on="1"/>
        <pt x="426" y="658" on="1"/>
        <pt x="425" y="639" on="1"/>
        <pt x="425" y="600" on="1"/>
        <pt x="423" y="543" on="1"/>
        <pt x="423" y="515" on="1"/>
        <pt x="423" y="471" on="0"/>
        <pt x="474" y="429" on="0"/>
        <pt x="543" y="429" on="1"/>
        <pt x="596" y="429" on="1"/>
        <pt x="727" y="429" on="0"/>
        <pt x="879" y="593" on="0"/>
      </contour>
      <contour>
        <pt x="483" y="239" on="0"/>
        <pt x="483" y="99" on="0"/>
        <pt x="377" y="2" on="0"/>
        <pt x="292" y="2" on="1"/>
        <pt x="250" y="2" on="1"/>
        <pt x="154" y="2" on="0"/>
        <pt x="154" y="66" on="1"/>
        <pt x="154" y="85" on="1"/>
        <pt x="154" y="106" on="0"/>
        <pt x="197" y="214" on="0"/>
        <pt x="202" y="253" on="1"/>
        <pt x="219" y="399" on="0"/>
        <pt x="219" y="615" on="1"/>
        <pt x="219" y="866" on="1"/>
        <pt x="216" y="1078" on="1"/>
        <pt x="216" y="1154" on="0"/>
        <pt x="168" y="1320" on="0"/>
        <pt x="168" y="1353" on="0"/>
        <pt x="222" y="1395" on="0"/>
        <pt x="298" y="1395" on="1"/>
        <pt x="462" y="1395" on="0"/>
        <pt x="501" y="1256" on="1"/>
        <pt x="522" y="1180" on="0"/>
        <pt x="663" y="1161" on="1"/>
        <pt x="742" y="1150" on="0"/>
        <pt x="779" y="1143" on="1"/>
        <pt x="1004" y="1099" on="0"/>
        <pt x="1082" y="931" on="1"/>
        <pt x="1119" y="852" on="0"/>
        <pt x="1119" y="754" on="1"/>
        <pt x="1119" y="366" on="0"/>
        <pt x="695" y="312" on="1"/>
        <pt x="596" y="299" on="0"/>
        <pt x="554" y="277" on="1"/>
      </contour>
    </TTGlyph>
    <TTGlyph name="U" xMin="162" yMin="3" xMax="1314" yMax="1385">
      <contour>
        <pt x="339" y="1381" on="1"/>
        <pt x="454" y="1381" on="0"/>
        <pt x="454" y="1286" on="1"/>
        <pt x="454" y="1279" on="0"/>
        <pt x="432" y="1173" on="0"/>
        <pt x="410" y="642" on="0"/>
        <pt x="410" y="341" on="0"/>
        <pt x="482" y="244" on="1"/>
        <pt x="553" y="148" on="0"/>
        <pt x="680" y="148" on="1"/>
        <pt x="924" y="148" on="0"/>
        <pt x="1004" y="366" on="1"/>
        <pt x="1027" y="430" on="0"/>
        <pt x="1074" y="862" on="0"/>
        <pt x="1074" y="1160" on="1"/>
        <pt x="1074" y="1172" on="0"/>
        <pt x="1069" y="1219" on="1"/>
        <pt x="1060" y="1297" on="1"/>
        <pt x="1060" y="1339" on="0"/>
        <pt x="1108" y="1385" on="0"/>
        <pt x="1237" y="1385" on="0"/>
        <pt x="1262" y="1367" on="1"/>
        <pt x="1314" y="1329" on="0"/>
        <pt x="1314" y="1246" on="1"/>
        <pt x="1314" y="1241" on="0"/>
        <pt x="1269" y="1097" on="1"/>
        <pt x="1253" y="1045" on="0"/>
        <pt x="1236" y="639" on="0"/>
        <pt x="1231" y="564" on="1"/>
        <pt x="1216" y="351" on="0"/>
        <pt x="1116" y="136" on="0"/>
        <pt x="872" y="3" on="0"/>
        <pt x="695" y="3" on="1"/>
        <pt x="658" y="3" on="1"/>
        <pt x="413" y="3" on="0"/>
        <pt x="291" y="158" on="1"/>
        <pt x="232" y="233" on="0"/>
        <pt x="196" y="424" on="0"/>
        <pt x="196" y="562" on="1"/>
        <pt x="197" y="599" on="1"/>
        <pt x="200" y="710" on="0"/>
        <pt x="206" y="929" on="0"/>
        <pt x="206" y="1086" on="0"/>
        <pt x="195" y="1123" on="1"/>
        <pt x="175" y="1174" on="1"/>
        <pt x="162" y="1212" on="0"/>
        <pt x="162" y="1229" on="1"/>
        <pt x="162" y="1322" on="0"/>
        <pt x="226" y="1365" on="1"/>
        <pt x="250" y="1381" on="0"/>
      </contour>
    </TTGlyph>
    <TTGlyph name="Uacute" xMin="117" yMin="0" xMax="1283" yMax="1834">
      <contour>
        <pt x="648" y="1516" on="1"/>
        <pt x="627" y="1516" on="1"/>
        <pt x="584" y="1516" on="0"/>
        <pt x="584" y="1542" on="1"/>
        <pt x="584" y="1556" on="1"/>
        <pt x="584" y="1619" on="0"/>
        <pt x="784" y="1775" on="1"/>
        <pt x="860" y="1834" on="0"/>
        <pt x="917" y="1834" on="1"/>
        <pt x="939" y="1834" on="1"/>
        <pt x="1000" y="1834" on="0"/>
        <pt x="1000" y="1792" on="1"/>
        <pt x="1000" y="1781" on="1"/>
        <pt x="999" y="1776" on="1"/>
        <pt x="999" y="1717" on="0"/>
        <pt x="712" y="1516" on="0"/>
      </contour>
      <contour>
        <pt x="1005" y="1320" on="1"/>
        <pt x="1006" y="1397" on="0"/>
        <pt x="1142" y="1397" on="1"/>
        <pt x="1212" y="1397" on="0"/>
        <pt x="1237" y="1370" on="1"/>
        <pt x="1283" y="1320" on="0"/>
        <pt x="1283" y="1237" on="0"/>
        <pt x="1231" y="1110" on="0"/>
        <pt x="1217" y="1006" on="0"/>
        <pt x="1217" y="769" on="1"/>
        <pt x="1217" y="757" on="0"/>
        <pt x="1217" y="744" on="1"/>
        <pt x="1217" y="525" on="0"/>
        <pt x="1200" y="405" on="1"/>
        <pt x="1163" y="140" on="0"/>
        <pt x="941" y="45" on="1"/>
        <pt x="834" y="0" on="0"/>
        <pt x="678" y="0" on="1"/>
        <pt x="358" y="0" on="0"/>
        <pt x="237" y="215" on="1"/>
        <pt x="192" y="295" on="0"/>
        <pt x="171" y="490" on="0"/>
        <pt x="171" y="989" on="0"/>
        <pt x="166" y="1096" on="0"/>
        <pt x="155" y="1130" on="1"/>
        <pt x="133" y="1180" on="1"/>
        <pt x="117" y="1218" on="0"/>
        <pt x="117" y="1236" on="1"/>
        <pt x="117" y="1305" on="0"/>
        <pt x="199" y="1394" on="0"/>
        <pt x="272" y="1394" on="1"/>
        <pt x="437" y="1394" on="0"/>
        <pt x="437" y="1296" on="1"/>
        <pt x="437" y="1290" on="0"/>
        <pt x="402" y="1113" on="0"/>
        <pt x="402" y="921" on="1"/>
        <pt x="401" y="885" on="1"/>
        <pt x="400" y="849" on="0"/>
        <pt x="400" y="814" on="1"/>
        <pt x="398" y="705" on="1"/>
        <pt x="398" y="385" on="0"/>
        <pt x="456" y="285" on="1"/>
        <pt x="530" y="157" on="0"/>
        <pt x="724" y="157" on="1"/>
        <pt x="917" y="157" on="0"/>
        <pt x="991" y="331" on="1"/>
        <pt x="1038" y="441" on="0"/>
        <pt x="1038" y="871" on="1"/>
        <pt x="1038" y="1101" on="0"/>
        <pt x="1005" y="1312" on="0"/>
      </contour>
    </TTGlyph>
    <TTGlyph name="Ucircumflex" xMin="112" yMin="-20" xMax="1285" yMax="1836">
      <contour>
        <pt x="718" y="1836" on="1"/>
        <pt x="734" y="1836" on="1"/>
        <pt x="779" y="1836" on="0"/>
        <pt x="820" y="1798" on="1"/>
        <pt x="1023" y="1612" on="0"/>
        <pt x="1023" y="1549" on="1"/>
        <pt x="1023" y="1520" on="0"/>
        <pt x="908" y="1520" on="0"/>
        <pt x="830" y="1586" on="1"/>
        <pt x="750" y="1660" on="1"/>
        <pt x="724" y="1684" on="0"/>
        <pt x="712" y="1684" on="0"/>
        <pt x="627" y="1606" on="0"/>
        <pt x="608" y="1590" on="1"/>
        <pt x="523" y="1518" on="0"/>
        <pt x="474" y="1518" on="1"/>
        <pt x="467" y="1518" on="1"/>
        <pt x="412" y="1518" on="0"/>
        <pt x="412" y="1546" on="1"/>
        <pt x="412" y="1604" on="0"/>
        <pt x="610" y="1786" on="1"/>
        <pt x="665" y="1836" on="0"/>
      </contour>
      <contour>
        <pt x="1008" y="1310" on="1"/>
        <pt x="1008" y="1391" on="0"/>
        <pt x="1142" y="1391" on="1"/>
        <pt x="1214" y="1391" on="0"/>
        <pt x="1238" y="1366" on="1"/>
        <pt x="1285" y="1316" on="0"/>
        <pt x="1285" y="1271" on="1"/>
        <pt x="1285" y="1240" on="1"/>
        <pt x="1285" y="1225" on="0"/>
        <pt x="1240" y="1117" on="0"/>
        <pt x="1222" y="1043" on="0"/>
        <pt x="1222" y="886" on="1"/>
        <pt x="1220" y="812" on="1"/>
        <pt x="1219" y="739" on="1"/>
        <pt x="1219" y="727" on="0"/>
        <pt x="1219" y="715" on="1"/>
        <pt x="1219" y="482" on="0"/>
        <pt x="1200" y="372" on="1"/>
        <pt x="1160" y="132" on="0"/>
        <pt x="978" y="41" on="1"/>
        <pt x="858" y="-20" on="0"/>
        <pt x="694" y="-20" on="1"/>
        <pt x="654" y="-20" on="1"/>
        <pt x="518" y="-20" on="0"/>
        <pt x="294" y="88" on="0"/>
        <pt x="184" y="289" on="0"/>
        <pt x="172" y="434" on="1"/>
        <pt x="167" y="496" on="0"/>
        <pt x="167" y="1027" on="0"/>
        <pt x="159" y="1104" on="0"/>
        <pt x="112" y="1215" on="0"/>
        <pt x="112" y="1317" on="0"/>
        <pt x="178" y="1369" on="1"/>
        <pt x="204" y="1389" on="0"/>
        <pt x="264" y="1389" on="1"/>
        <pt x="434" y="1389" on="0"/>
        <pt x="434" y="1291" on="1"/>
        <pt x="434" y="1275" on="0"/>
        <pt x="424" y="1234" on="1"/>
        <pt x="394" y="1102" on="0"/>
        <pt x="394" y="367" on="0"/>
        <pt x="451" y="267" on="1"/>
        <pt x="526" y="135" on="0"/>
        <pt x="916" y="135" on="0"/>
        <pt x="991" y="309" on="1"/>
        <pt x="1039" y="421" on="0"/>
        <pt x="1039" y="853" on="1"/>
        <pt x="1039" y="1062" on="0"/>
        <pt x="1008" y="1308" on="0"/>
      </contour>
    </TTGlyph>
    <TTGlyph name="Udieresis" xMin="105" yMin="-12" xMax="1278" yMax="1771">
      <contour>
        <pt x="562" y="1761" on="1"/>
        <pt x="628" y="1761" on="0"/>
        <pt x="628" y="1670" on="1"/>
        <pt x="628" y="1663" on="1"/>
        <pt x="628" y="1541" on="0"/>
        <pt x="518" y="1541" on="1"/>
        <pt x="501" y="1541" on="1"/>
        <pt x="448" y="1541" on="0"/>
        <pt x="401" y="1588" on="0"/>
        <pt x="401" y="1619" on="1"/>
        <pt x="398" y="1634" on="1"/>
        <pt x="398" y="1638" on="0"/>
        <pt x="398" y="1642" on="1"/>
        <pt x="397" y="1654" on="1"/>
        <pt x="397" y="1662" on="1"/>
        <pt x="401" y="1691" on="1"/>
        <pt x="401" y="1760" on="0"/>
        <pt x="472" y="1760" on="1"/>
        <pt x="480" y="1762" on="1"/>
        <pt x="519" y="1765" on="1"/>
        <pt x="524" y="1764" on="1"/>
        <pt x="554" y="1762" on="1"/>
        <pt x="558" y="1761" on="0"/>
      </contour>
      <contour>
        <pt x="794" y="1642" on="1"/>
        <pt x="794" y="1666" on="1"/>
        <pt x="795" y="1670" on="1"/>
        <pt x="795" y="1677" on="1"/>
        <pt x="797" y="1685" on="0"/>
        <pt x="797" y="1721" on="0"/>
        <pt x="844" y="1768" on="0"/>
        <pt x="879" y="1768" on="1"/>
        <pt x="902" y="1771" on="1"/>
        <pt x="926" y="1771" on="1"/>
        <pt x="960" y="1766" on="1"/>
        <pt x="1023" y="1766" on="0"/>
        <pt x="1023" y="1676" on="1"/>
        <pt x="1023" y="1656" on="1"/>
        <pt x="1023" y="1607" on="0"/>
        <pt x="979" y="1553" on="0"/>
        <pt x="952" y="1553" on="1"/>
        <pt x="918" y="1547" on="1"/>
        <pt x="886" y="1547" on="1"/>
        <pt x="860" y="1551" on="1"/>
        <pt x="794" y="1551" on="0"/>
      </contour>
      <contour>
        <pt x="254" y="1394" on="1"/>
        <pt x="425" y="1394" on="0"/>
        <pt x="425" y="1295" on="1"/>
        <pt x="425" y="1287" on="0"/>
        <pt x="387" y="1126" on="0"/>
        <pt x="387" y="916" on="1"/>
        <pt x="386" y="879" on="1"/>
        <pt x="385" y="843" on="0"/>
        <pt x="385" y="807" on="1"/>
        <pt x="384" y="770" on="1"/>
        <pt x="384" y="734" on="0"/>
        <pt x="384" y="698" on="1"/>
        <pt x="384" y="373" on="0"/>
        <pt x="441" y="273" on="1"/>
        <pt x="517" y="141" on="0"/>
        <pt x="912" y="141" on="0"/>
        <pt x="985" y="310" on="1"/>
        <pt x="1035" y="425" on="0"/>
        <pt x="1035" y="854" on="1"/>
        <pt x="1035" y="1089" on="0"/>
        <pt x="1002" y="1294" on="0"/>
        <pt x="1002" y="1312" on="1"/>
        <pt x="1002" y="1394" on="0"/>
        <pt x="1148" y="1394" on="1"/>
        <pt x="1206" y="1394" on="0"/>
        <pt x="1230" y="1371" on="1"/>
        <pt x="1278" y="1324" on="0"/>
        <pt x="1278" y="1233" on="0"/>
        <pt x="1224" y="1106" on="0"/>
        <pt x="1211" y="960" on="0"/>
        <pt x="1211" y="494" on="0"/>
        <pt x="1192" y="380" on="1"/>
        <pt x="1150" y="127" on="0"/>
        <pt x="941" y="37" on="1"/>
        <pt x="828" y="-12" on="0"/>
        <pt x="682" y="-12" on="1"/>
        <pt x="374" y="-12" on="0"/>
        <pt x="249" y="173" on="1"/>
        <pt x="193" y="255" on="0"/>
        <pt x="162" y="460" on="0"/>
        <pt x="162" y="1017" on="0"/>
        <pt x="154" y="1112" on="0"/>
        <pt x="105" y="1224" on="0"/>
        <pt x="105" y="1261" on="1"/>
        <pt x="105" y="1323" on="0"/>
        <pt x="168" y="1373" on="1"/>
        <pt x="194" y="1394" on="0"/>
      </contour>
    </TTGlyph>
    <TTGlyph name="Ugrave" xMin="114" yMin="-18" xMax="1285" yMax="1842">
      <contour>
        <pt x="443" y="1780" on="1"/>
        <pt x="443" y="1790" on="1"/>
        <pt x="443" y="1842" on="0"/>
        <pt x="531" y="1842" on="1"/>
        <pt x="536" y="1842" on="1"/>
        <pt x="608" y="1842" on="0"/>
        <pt x="672" y="1785" on="1"/>
        <pt x="850" y="1627" on="0"/>
        <pt x="850" y="1557" on="1"/>
        <pt x="850" y="1552" on="1"/>
        <pt x="849" y="1548" on="1"/>
        <pt x="849" y="1516" on="0"/>
        <pt x="806" y="1516" on="1"/>
        <pt x="790" y="1516" on="1"/>
        <pt x="729" y="1516" on="0"/>
        <pt x="624" y="1598" on="1"/>
        <pt x="443" y="1739" on="0"/>
      </contour>
      <contour>
        <pt x="263" y="1391" on="1"/>
        <pt x="432" y="1391" on="0"/>
        <pt x="432" y="1291" on="1"/>
        <pt x="432" y="1274" on="0"/>
        <pt x="424" y="1240" on="1"/>
        <pt x="393" y="1106" on="0"/>
        <pt x="393" y="365" on="0"/>
        <pt x="449" y="267" on="1"/>
        <pt x="525" y="135" on="0"/>
        <pt x="919" y="135" on="0"/>
        <pt x="991" y="307" on="1"/>
        <pt x="1040" y="421" on="0"/>
        <pt x="1040" y="851" on="1"/>
        <pt x="1040" y="1034" on="0"/>
        <pt x="1032" y="1137" on="0"/>
        <pt x="1008" y="1300" on="0"/>
        <pt x="1008" y="1309" on="1"/>
        <pt x="1008" y="1391" on="0"/>
        <pt x="1157" y="1391" on="1"/>
        <pt x="1214" y="1391" on="0"/>
        <pt x="1238" y="1367" on="1"/>
        <pt x="1285" y="1320" on="0"/>
        <pt x="1285" y="1231" on="0"/>
        <pt x="1233" y="1102" on="0"/>
        <pt x="1219" y="1001" on="0"/>
        <pt x="1219" y="815" on="1"/>
        <pt x="1217" y="705" on="1"/>
        <pt x="1216" y="668" on="0"/>
        <pt x="1216" y="557" on="1"/>
        <pt x="1216" y="287" on="0"/>
        <pt x="1106" y="150" on="1"/>
        <pt x="1047" y="75" on="0"/>
        <pt x="838" y="-18" on="0"/>
        <pt x="695" y="-18" on="1"/>
        <pt x="655" y="-18" on="1"/>
        <pt x="517" y="-18" on="0"/>
        <pt x="295" y="93" on="0"/>
        <pt x="193" y="278" on="0"/>
        <pt x="170" y="467" on="0"/>
        <pt x="170" y="955" on="0"/>
        <pt x="164" y="1099" on="0"/>
        <pt x="114" y="1217" on="0"/>
        <pt x="114" y="1320" on="0"/>
        <pt x="178" y="1370" on="1"/>
        <pt x="205" y="1391" on="0"/>
      </contour>
    </TTGlyph>
    <TTGlyph name="V" xMin="100" yMin="9" xMax="1295" yMax="1398">
      <contour>
        <pt x="680" y="306" on="1"/>
        <pt x="717" y="306" on="0"/>
        <pt x="948" y="954" on="1"/>
        <pt x="995" y="1085" on="0"/>
        <pt x="1016" y="1173" on="0"/>
        <pt x="1038" y="1308" on="0"/>
        <pt x="1045" y="1322" on="1"/>
        <pt x="1081" y="1398" on="0"/>
        <pt x="1188" y="1398" on="1"/>
        <pt x="1215" y="1398" on="1"/>
        <pt x="1295" y="1398" on="0"/>
        <pt x="1295" y="1319" on="1"/>
        <pt x="1295" y="1275" on="0"/>
        <pt x="1242" y="1196" on="1"/>
        <pt x="1220" y="1164" on="0"/>
        <pt x="828" y="223" on="0"/>
        <pt x="755" y="75" on="0"/>
        <pt x="690" y="9" on="0"/>
        <pt x="632" y="9" on="1"/>
        <pt x="553" y="9" on="0"/>
        <pt x="500" y="128" on="1"/>
        <pt x="495" y="139" on="0"/>
        <pt x="251" y="934" on="0"/>
        <pt x="181" y="1127" on="0"/>
        <pt x="100" y="1250" on="0"/>
        <pt x="100" y="1347" on="0"/>
        <pt x="159" y="1382" on="0"/>
        <pt x="222" y="1382" on="1"/>
        <pt x="355" y="1382" on="0"/>
        <pt x="393" y="1294" on="1"/>
        <pt x="401" y="1277" on="0"/>
        <pt x="421" y="1144" on="0"/>
        <pt x="439" y="1078" on="1"/>
        <pt x="456" y="1020" on="1"/>
        <pt x="464" y="991" on="0"/>
        <pt x="474" y="956" on="0"/>
        <pt x="515" y="808" on="1"/>
        <pt x="653" y="306" on="0"/>
      </contour>
    </TTGlyph>
    <TTGlyph name="W" xMin="164" yMin="99" xMax="1810" yMax="1346">
      <contour>
        <pt x="1016" y="1299" on="1"/>
        <pt x="1094" y="1299" on="0"/>
        <pt x="1134" y="1198" on="1"/>
        <pt x="1140" y="1182" on="0"/>
        <pt x="1176" y="955" on="0"/>
        <pt x="1318" y="435" on="0"/>
        <pt x="1338" y="435" on="1"/>
        <pt x="1364" y="435" on="0"/>
        <pt x="1481" y="771" on="1"/>
        <pt x="1518" y="877" on="0"/>
        <pt x="1608" y="1202" on="0"/>
        <pt x="1626" y="1245" on="1"/>
        <pt x="1669" y="1346" on="0"/>
        <pt x="1766" y="1346" on="1"/>
        <pt x="1810" y="1346" on="0"/>
        <pt x="1810" y="1264" on="1"/>
        <pt x="1810" y="1237" on="0"/>
        <pt x="1543" y="351" on="0"/>
        <pt x="1502" y="265" on="1"/>
        <pt x="1423" y="99" on="0"/>
        <pt x="1315" y="99" on="1"/>
        <pt x="1243" y="99" on="0"/>
        <pt x="1177" y="238" on="1"/>
        <pt x="1125" y="349" on="0"/>
        <pt x="1029" y="659" on="1"/>
        <pt x="985" y="803" on="1"/>
        <pt x="970" y="836" on="1"/>
        <pt x="955" y="836" on="0"/>
        <pt x="742" y="332" on="0"/>
        <pt x="690" y="244" on="1"/>
        <pt x="611" y="111" on="0"/>
        <pt x="544" y="111" on="1"/>
        <pt x="502" y="111" on="0"/>
        <pt x="419" y="191" on="0"/>
        <pt x="371" y="308" on="0"/>
        <pt x="164" y="1190" on="0"/>
        <pt x="164" y="1226" on="1"/>
        <pt x="164" y="1255" on="1"/>
        <pt x="164" y="1280" on="0"/>
        <pt x="204" y="1333" on="0"/>
        <pt x="244" y="1333" on="1"/>
        <pt x="348" y="1333" on="0"/>
        <pt x="401" y="1182" on="1"/>
        <pt x="411" y="1155" on="0"/>
        <pt x="467" y="902" on="0"/>
        <pt x="587" y="432" on="0"/>
        <pt x="611" y="432" on="1"/>
        <pt x="647" y="432" on="0"/>
        <pt x="813" y="952" on="0"/>
        <pt x="846" y="1201" on="0"/>
        <pt x="867" y="1236" on="1"/>
        <pt x="904" y="1299" on="0"/>
      </contour>
    </TTGlyph>
    <TTGlyph name="X" xMin="94" yMin="6" xMax="1235" yMax="1397">
      <contour>
        <pt x="1205" y="66" on="1"/>
        <pt x="1205" y="12" on="0"/>
        <pt x="1037" y="12" on="1"/>
        <pt x="937" y="12" on="0"/>
        <pt x="895" y="62" on="1"/>
        <pt x="883" y="76" on="0"/>
        <pt x="851" y="192" on="0"/>
        <pt x="810" y="272" on="1"/>
        <pt x="679" y="527" on="0"/>
        <pt x="609" y="527" on="0"/>
        <pt x="457" y="283" on="1"/>
        <pt x="396" y="186" on="0"/>
        <pt x="359" y="64" on="0"/>
        <pt x="347" y="49" on="1"/>
        <pt x="311" y="6" on="0"/>
        <pt x="149" y="6" on="0"/>
        <pt x="94" y="37" on="0"/>
        <pt x="94" y="108" on="0"/>
        <pt x="239" y="253" on="0"/>
        <pt x="321" y="373" on="1"/>
        <pt x="519" y="663" on="0"/>
        <pt x="519" y="771" on="0"/>
        <pt x="356" y="1037" on="1"/>
        <pt x="293" y="1139" on="0"/>
        <pt x="159" y="1306" on="0"/>
        <pt x="159" y="1325" on="1"/>
        <pt x="159" y="1383" on="0"/>
        <pt x="422" y="1383" on="0"/>
        <pt x="467" y="1336" on="1"/>
        <pt x="486" y="1316" on="0"/>
        <pt x="513" y="1197" on="0"/>
        <pt x="548" y="1131" on="1"/>
        <pt x="666" y="910" on="0"/>
        <pt x="698" y="910" on="1"/>
        <pt x="736" y="910" on="0"/>
        <pt x="883" y="1145" on="1"/>
        <pt x="927" y="1214" on="0"/>
        <pt x="969" y="1340" on="0"/>
        <pt x="977" y="1349" on="1"/>
        <pt x="1019" y="1397" on="0"/>
        <pt x="1188" y="1397" on="0"/>
        <pt x="1235" y="1370" on="0"/>
        <pt x="1235" y="1302" on="0"/>
        <pt x="1142" y="1215" on="1"/>
        <pt x="1108" y="1183" on="0"/>
        <pt x="1026" y="1070" on="1"/>
        <pt x="825" y="793" on="0"/>
        <pt x="825" y="724" on="1"/>
        <pt x="825" y="673" on="0"/>
        <pt x="1007" y="363" on="1"/>
        <pt x="1067" y="261" on="0"/>
        <pt x="1205" y="92" on="0"/>
      </contour>
    </TTGlyph>
    <TTGlyph name="Y" xMin="114" yMin="-6" xMax="1212" yMax="1393">
      <contour>
        <pt x="660" y="785" on="1"/>
        <pt x="700" y="785" on="0"/>
        <pt x="854" y="1070" on="1"/>
        <pt x="897" y="1150" on="0"/>
        <pt x="949" y="1322" on="0"/>
        <pt x="953" y="1328" on="1"/>
        <pt x="994" y="1393" on="0"/>
        <pt x="1212" y="1393" on="0"/>
        <pt x="1212" y="1346" on="1"/>
        <pt x="1212" y="1311" on="0"/>
        <pt x="1089" y="1159" on="0"/>
        <pt x="1022" y="1035" on="1"/>
        <pt x="829" y="677" on="0"/>
        <pt x="812" y="639" on="1"/>
        <pt x="728" y="453" on="0"/>
        <pt x="728" y="234" on="1"/>
        <pt x="728" y="212" on="0"/>
        <pt x="754" y="117" on="0"/>
        <pt x="754" y="52" on="0"/>
        <pt x="676" y="-6" on="0"/>
        <pt x="612" y="-6" on="1"/>
        <pt x="586" y="-6" on="1"/>
        <pt x="514" y="-6" on="0"/>
        <pt x="444" y="48" on="0"/>
        <pt x="444" y="110" on="0"/>
        <pt x="492" y="217" on="0"/>
        <pt x="523" y="317" on="0"/>
        <pt x="523" y="554" on="0"/>
        <pt x="460" y="694" on="1"/>
        <pt x="443" y="732" on="0"/>
        <pt x="233" y="1144" on="0"/>
        <pt x="194" y="1190" on="1"/>
        <pt x="114" y="1285" on="0"/>
        <pt x="114" y="1322" on="1"/>
        <pt x="114" y="1374" on="0"/>
        <pt x="373" y="1374" on="0"/>
        <pt x="412" y="1312" on="1"/>
        <pt x="422" y="1296" on="0"/>
        <pt x="434" y="1222" on="0"/>
        <pt x="457" y="1158" on="0"/>
        <pt x="506" y="1056" on="1"/>
        <pt x="636" y="785" on="0"/>
      </contour>
    </TTGlyph>
    <TTGlyph name="Yacute" xMin="63" yMin="20" xMax="1181" yMax="1838">
      <contour>
        <pt x="561" y="1507" on="1"/>
        <pt x="545" y="1507" on="1"/>
        <pt x="514" y="1507" on="0"/>
        <pt x="514" y="1541" on="1"/>
        <pt x="514" y="1612" on="0"/>
        <pt x="693" y="1771" on="1"/>
        <pt x="768" y="1838" on="0"/>
        <pt x="827" y="1838" on="1"/>
        <pt x="854" y="1838" on="1"/>
        <pt x="927" y="1838" on="0"/>
        <pt x="927" y="1790" on="1"/>
        <pt x="927" y="1780" on="1"/>
        <pt x="926" y="1775" on="1"/>
        <pt x="926" y="1730" on="0"/>
        <pt x="713" y="1581" on="1"/>
        <pt x="607" y="1507" on="0"/>
      </contour>
      <contour>
        <pt x="1079" y="1395" on="1"/>
        <pt x="1105" y="1395" on="1"/>
        <pt x="1181" y="1395" on="0"/>
        <pt x="1181" y="1349" on="1"/>
        <pt x="1181" y="1330" on="0"/>
        <pt x="1046" y="1149" on="0"/>
        <pt x="976" y="1013" on="0"/>
        <pt x="947" y="960" on="1"/>
        <pt x="892" y="856" on="1"/>
        <pt x="814" y="709" on="0"/>
        <pt x="800" y="677" on="1"/>
        <pt x="738" y="537" on="0"/>
        <pt x="738" y="324" on="1"/>
        <pt x="738" y="280" on="0"/>
        <pt x="785" y="128" on="0"/>
        <pt x="785" y="127" on="1"/>
        <pt x="785" y="84" on="0"/>
        <pt x="706" y="20" on="0"/>
        <pt x="639" y="20" on="1"/>
        <pt x="584" y="20" on="1"/>
        <pt x="521" y="20" on="0"/>
        <pt x="488" y="37" on="1"/>
        <pt x="434" y="65" on="0"/>
        <pt x="434" y="116" on="1"/>
        <pt x="434" y="136" on="0"/>
        <pt x="473" y="232" on="0"/>
        <pt x="496" y="307" on="0"/>
        <pt x="496" y="546" on="0"/>
        <pt x="427" y="693" on="1"/>
        <pt x="406" y="737" on="0"/>
        <pt x="327" y="881" on="0"/>
        <pt x="182" y="1156" on="0"/>
        <pt x="63" y="1311" on="0"/>
        <pt x="63" y="1337" on="1"/>
        <pt x="63" y="1394" on="0"/>
        <pt x="342" y="1394" on="0"/>
        <pt x="389" y="1330" on="1"/>
        <pt x="391" y="1327" on="0"/>
        <pt x="434" y="1153" on="0"/>
        <pt x="474" y="1068" on="1"/>
        <pt x="613" y="773" on="0"/>
        <pt x="649" y="773" on="1"/>
        <pt x="729" y="843" on="0"/>
        <pt x="832" y="1080" on="1"/>
        <pt x="869" y="1165" on="0"/>
        <pt x="893" y="1321" on="0"/>
        <pt x="904" y="1336" on="1"/>
        <pt x="946" y="1395" on="0"/>
      </contour>
    </TTGlyph>
    <TTGlyph name="Ydieresis" xMin="110" yMin="7" xMax="1178" yMax="1772">
      <contour>
        <pt x="474" y="1764" on="1"/>
        <pt x="477" y="1764" on="1"/>
        <pt x="481" y="1763" on="1"/>
        <pt x="488" y="1763" on="1"/>
        <pt x="539" y="1763" on="0"/>
        <pt x="583" y="1728" on="0"/>
        <pt x="583" y="1676" on="1"/>
        <pt x="583" y="1648" on="1"/>
        <pt x="583" y="1593" on="0"/>
        <pt x="526" y="1536" on="0"/>
        <pt x="490" y="1536" on="1"/>
        <pt x="472" y="1533" on="1"/>
        <pt x="454" y="1533" on="1"/>
        <pt x="426" y="1533" on="0"/>
        <pt x="372" y="1576" on="0"/>
        <pt x="372" y="1626" on="1"/>
        <pt x="372" y="1642" on="1"/>
        <pt x="377" y="1681" on="1"/>
        <pt x="377" y="1709" on="0"/>
        <pt x="421" y="1764" on="0"/>
      </contour>
      <contour>
        <pt x="887" y="1772" on="1"/>
        <pt x="971" y="1772" on="0"/>
        <pt x="971" y="1699" on="1"/>
        <pt x="973" y="1691" on="0"/>
        <pt x="973" y="1688" on="1"/>
        <pt x="974" y="1673" on="1"/>
        <pt x="974" y="1665" on="1"/>
        <pt x="973" y="1661" on="1"/>
        <pt x="973" y="1654" on="1"/>
        <pt x="971" y="1639" on="1"/>
        <pt x="971" y="1605" on="0"/>
        <pt x="921" y="1555" on="0"/>
        <pt x="894" y="1555" on="1"/>
        <pt x="885" y="1552" on="0"/>
        <pt x="880" y="1552" on="1"/>
        <pt x="861" y="1550" on="1"/>
        <pt x="842" y="1550" on="1"/>
        <pt x="756" y="1550" on="0"/>
        <pt x="756" y="1616" on="1"/>
        <pt x="754" y="1624" on="0"/>
        <pt x="754" y="1627" on="1"/>
        <pt x="752" y="1646" on="1"/>
        <pt x="752" y="1661" on="1"/>
        <pt x="756" y="1691" on="1"/>
        <pt x="756" y="1719" on="0"/>
        <pt x="806" y="1769" on="0"/>
        <pt x="838" y="1769" on="1"/>
        <pt x="861" y="1772" on="1"/>
      </contour>
      <contour>
        <pt x="647" y="793" on="1"/>
        <pt x="689" y="793" on="0"/>
        <pt x="834" y="1077" on="1"/>
        <pt x="878" y="1163" on="0"/>
        <pt x="918" y="1308" on="0"/>
        <pt x="935" y="1331" on="1"/>
        <pt x="979" y="1391" on="0"/>
        <pt x="1075" y="1391" on="1"/>
        <pt x="1098" y="1391" on="1"/>
        <pt x="1178" y="1391" on="0"/>
        <pt x="1178" y="1352" on="1"/>
        <pt x="1178" y="1335" on="1"/>
        <pt x="1178" y="1310" on="0"/>
        <pt x="1050" y="1138" on="0"/>
        <pt x="988" y="1018" on="1"/>
        <pt x="785" y="627" on="1"/>
        <pt x="704" y="451" on="0"/>
        <pt x="704" y="257" on="1"/>
        <pt x="704" y="217" on="0"/>
        <pt x="730" y="123" on="0"/>
        <pt x="730" y="67" on="0"/>
        <pt x="670" y="7" on="0"/>
        <pt x="607" y="7" on="1"/>
        <pt x="558" y="7" on="1"/>
        <pt x="498" y="7" on="0"/>
        <pt x="430" y="63" on="0"/>
        <pt x="430" y="129" on="0"/>
        <pt x="477" y="230" on="0"/>
        <pt x="506" y="330" on="0"/>
        <pt x="506" y="561" on="0"/>
        <pt x="431" y="727" on="1"/>
        <pt x="398" y="801" on="0"/>
        <pt x="226" y="1130" on="0"/>
        <pt x="110" y="1276" on="0"/>
        <pt x="110" y="1314" on="1"/>
        <pt x="110" y="1366" on="0"/>
        <pt x="274" y="1366" on="1"/>
        <pt x="367" y="1366" on="0"/>
        <pt x="398" y="1307" on="1"/>
        <pt x="406" y="1292" on="0"/>
        <pt x="420" y="1217" on="0"/>
        <pt x="441" y="1164" on="0"/>
        <pt x="494" y="1051" on="1"/>
        <pt x="615" y="793" on="0"/>
      </contour>
    </TTGlyph>
    <TTGlyph name="Z" xMin="106" yMin="0" xMax="1127" yMax="1408">
      <contour>
        <pt x="1127" y="1337" on="1"/>
        <pt x="1127" y="1272" on="0"/>
        <pt x="959" y="1004" on="0"/>
        <pt x="425" y="266" on="0"/>
        <pt x="425" y="216" on="1"/>
        <pt x="425" y="181" on="0"/>
        <pt x="476" y="154" on="0"/>
        <pt x="758" y="154" on="0"/>
        <pt x="907" y="183" on="0"/>
        <pt x="1035" y="231" on="0"/>
        <pt x="1073" y="231" on="1"/>
        <pt x="1122" y="231" on="0"/>
        <pt x="1122" y="75" on="0"/>
        <pt x="1035" y="31" on="1"/>
        <pt x="974" y="0" on="0"/>
        <pt x="770" y="0" on="1"/>
        <pt x="518" y="0" on="1"/>
        <pt x="242" y="0" on="0"/>
        <pt x="106" y="31" on="0"/>
        <pt x="106" y="143" on="0"/>
        <pt x="178" y="258" on="1"/>
        <pt x="318" y="481" on="0"/>
        <pt x="814" y="1150" on="0"/>
        <pt x="814" y="1198" on="1"/>
        <pt x="814" y="1229" on="0"/>
        <pt x="786" y="1241" on="1"/>
        <pt x="757" y="1253" on="0"/>
        <pt x="467" y="1253" on="0"/>
        <pt x="254" y="1185" on="0"/>
        <pt x="243" y="1185" on="1"/>
        <pt x="169" y="1185" on="0"/>
        <pt x="169" y="1258" on="1"/>
        <pt x="169" y="1318" on="0"/>
        <pt x="187" y="1343" on="1"/>
        <pt x="206" y="1368" on="0"/>
        <pt x="302" y="1408" on="0"/>
        <pt x="558" y="1408" on="1"/>
        <pt x="667" y="1408" on="1"/>
        <pt x="960" y="1408" on="0"/>
        <pt x="1127" y="1381" on="0"/>
      </contour>
    </TTGlyph>
    <TTGlyph name="Zcaron" xMin="102" yMin="11" xMax="1117" yMax="1848">
      <contour>
        <pt x="441" y="1848" on="1"/>
        <pt x="456" y="1848" on="1"/>
        <pt x="506" y="1848" on="0"/>
        <pt x="674" y="1680" on="0"/>
        <pt x="685" y="1680" on="0"/>
        <pt x="866" y="1846" on="0"/>
        <pt x="978" y="1846" on="0"/>
        <pt x="978" y="1819" on="1"/>
        <pt x="978" y="1813" on="1"/>
        <pt x="978" y="1758" on="0"/>
        <pt x="774" y="1571" on="1"/>
        <pt x="719" y="1521" on="0"/>
        <pt x="671" y="1521" on="1"/>
        <pt x="663" y="1522" on="1"/>
        <pt x="656" y="1522" on="1"/>
        <pt x="610" y="1522" on="0"/>
        <pt x="575" y="1563" on="1"/>
        <pt x="391" y="1780" on="0"/>
        <pt x="391" y="1817" on="1"/>
        <pt x="391" y="1848" on="0"/>
      </contour>
      <contour>
        <pt x="1117" y="1334" on="1"/>
        <pt x="1117" y="1275" on="0"/>
        <pt x="960" y="1025" on="0"/>
        <pt x="423" y="265" on="0"/>
        <pt x="423" y="184" on="0"/>
        <pt x="473" y="172" on="1"/>
        <pt x="506" y="164" on="0"/>
        <pt x="774" y="164" on="0"/>
        <pt x="901" y="192" on="0"/>
        <pt x="1026" y="241" on="0"/>
        <pt x="1046" y="241" on="1"/>
        <pt x="1110" y="241" on="0"/>
        <pt x="1110" y="77" on="0"/>
        <pt x="1018" y="35" on="1"/>
        <pt x="966" y="11" on="0"/>
        <pt x="786" y="11" on="1"/>
        <pt x="573" y="11" on="1"/>
        <pt x="538" y="12" on="1"/>
        <pt x="467" y="13" on="1"/>
        <pt x="432" y="14" on="0"/>
        <pt x="396" y="14" on="1"/>
        <pt x="361" y="15" on="1"/>
        <pt x="326" y="16" on="0"/>
        <pt x="172" y="16" on="0"/>
        <pt x="102" y="54" on="0"/>
        <pt x="102" y="98" on="1"/>
        <pt x="102" y="185" on="0"/>
        <pt x="801" y="1174" on="0"/>
        <pt x="801" y="1201" on="1"/>
        <pt x="801" y="1251" on="0"/>
        <pt x="611" y="1251" on="1"/>
        <pt x="492" y="1251" on="0"/>
        <pt x="377" y="1228" on="0"/>
        <pt x="246" y="1177" on="0"/>
        <pt x="231" y="1177" on="1"/>
        <pt x="164" y="1177" on="0"/>
        <pt x="164" y="1334" on="0"/>
        <pt x="277" y="1403" on="0"/>
        <pt x="411" y="1403" on="1"/>
        <pt x="698" y="1403" on="1"/>
        <pt x="971" y="1403" on="0"/>
        <pt x="1117" y="1381" on="0"/>
      </contour>
    </TTGlyph>
    <TTGlyph name="a" xMin="81" yMin="-10" xMax="945" yMax="1010">
      <contour>
        <pt x="440" y="126" on="1"/>
        <pt x="466" y="126" on="1"/>
        <pt x="548" y="126" on="0"/>
        <pt x="673" y="237" on="0"/>
        <pt x="673" y="310" on="1"/>
        <pt x="675" y="323" on="1"/>
        <pt x="675" y="336" on="1"/>
        <pt x="677" y="367" on="1"/>
        <pt x="677" y="424" on="1"/>
        <pt x="677" y="482" on="0"/>
        <pt x="618" y="482" on="1"/>
        <pt x="573" y="482" on="1"/>
        <pt x="566" y="481" on="1"/>
        <pt x="527" y="478" on="1"/>
        <pt x="499" y="474" on="0"/>
        <pt x="487" y="474" on="1"/>
        <pt x="406" y="474" on="0"/>
        <pt x="337" y="413" on="1"/>
        <pt x="289" y="370" on="0"/>
        <pt x="289" y="291" on="1"/>
        <pt x="289" y="271" on="1"/>
        <pt x="289" y="204" on="0"/>
        <pt x="376" y="126" on="0"/>
      </contour>
      <contour>
        <pt x="217" y="765" on="1"/>
        <pt x="150" y="765" on="0"/>
        <pt x="150" y="851" on="1"/>
        <pt x="150" y="915" on="0"/>
        <pt x="367" y="1010" on="0"/>
        <pt x="484" y="1010" on="1"/>
        <pt x="534" y="1010" on="1"/>
        <pt x="635" y="1010" on="0"/>
        <pt x="789" y="935" on="0"/>
        <pt x="870" y="807" on="0"/>
        <pt x="879" y="704" on="1"/>
        <pt x="881" y="680" on="0"/>
        <pt x="881" y="262" on="0"/>
        <pt x="892" y="199" on="0"/>
        <pt x="945" y="109" on="0"/>
        <pt x="945" y="51" on="0"/>
        <pt x="890" y="10" on="0"/>
        <pt x="786" y="10" on="0"/>
        <pt x="664" y="61" on="0"/>
        <pt x="636" y="61" on="1"/>
        <pt x="633" y="61" on="0"/>
        <pt x="439" y="-10" on="0"/>
        <pt x="372" y="-10" on="1"/>
        <pt x="350" y="-10" on="1"/>
        <pt x="238" y="-10" on="0"/>
        <pt x="81" y="132" on="0"/>
        <pt x="81" y="394" on="0"/>
        <pt x="253" y="541" on="0"/>
        <pt x="376" y="568" on="1"/>
        <pt x="413" y="576" on="0"/>
        <pt x="585" y="602" on="0"/>
        <pt x="616" y="616" on="1"/>
        <pt x="670" y="641" on="0"/>
        <pt x="670" y="780" on="0"/>
        <pt x="578" y="859" on="0"/>
        <pt x="451" y="859" on="0"/>
        <pt x="245" y="765" on="0"/>
      </contour>
    </TTGlyph>
    <TTGlyph name="aacute" xMin="76" yMin="-9" xMax="942" yMax="1467">
      <contour>
        <pt x="411" y="153" on="1"/>
        <pt x="450" y="153" on="1"/>
        <pt x="542" y="153" on="0"/>
        <pt x="668" y="265" on="0"/>
        <pt x="668" y="328" on="1"/>
        <pt x="669" y="335" on="1"/>
        <pt x="670" y="341" on="1"/>
        <pt x="674" y="404" on="1"/>
        <pt x="674" y="448" on="1"/>
        <pt x="674" y="510" on="0"/>
        <pt x="609" y="510" on="1"/>
        <pt x="596" y="510" on="1"/>
        <pt x="590" y="509" on="1"/>
        <pt x="577" y="509" on="1"/>
        <pt x="544" y="506" on="1"/>
        <pt x="537" y="505" on="0"/>
        <pt x="531" y="505" on="1"/>
        <pt x="426" y="505" on="0"/>
        <pt x="284" y="395" on="0"/>
        <pt x="284" y="307" on="1"/>
        <pt x="284" y="274" on="1"/>
        <pt x="284" y="223" on="0"/>
        <pt x="363" y="153" on="0"/>
      </contour>
      <contour>
        <pt x="454" y="1114" on="1"/>
        <pt x="437" y="1114" on="1"/>
        <pt x="391" y="1114" on="0"/>
        <pt x="391" y="1145" on="1"/>
        <pt x="391" y="1155" on="1"/>
        <pt x="391" y="1214" on="0"/>
        <pt x="562" y="1409" on="1"/>
        <pt x="613" y="1467" on="0"/>
        <pt x="685" y="1467" on="1"/>
        <pt x="696" y="1467" on="1"/>
        <pt x="785" y="1467" on="0"/>
        <pt x="785" y="1414" on="1"/>
        <pt x="785" y="1408" on="1"/>
        <pt x="785" y="1361" on="0"/>
        <pt x="507" y="1114" on="0"/>
      </contour>
      <contour>
        <pt x="942" y="77" on="1"/>
        <pt x="942" y="10" on="0"/>
        <pt x="806" y="10" on="1"/>
        <pt x="774" y="10" on="0"/>
        <pt x="660" y="63" on="0"/>
        <pt x="638" y="63" on="1"/>
        <pt x="616" y="62" on="0"/>
        <pt x="578" y="46" on="1"/>
        <pt x="452" y="-9" on="0"/>
        <pt x="372" y="-9" on="1"/>
        <pt x="371" y="-9" on="0"/>
        <pt x="369" y="-9" on="1"/>
        <pt x="347" y="-9" on="1"/>
        <pt x="223" y="-9" on="0"/>
        <pt x="76" y="143" on="0"/>
        <pt x="76" y="254" on="1"/>
        <pt x="76" y="278" on="1"/>
        <pt x="76" y="332" on="0"/>
        <pt x="104" y="388" on="1"/>
        <pt x="170" y="524" on="0"/>
        <pt x="389" y="568" on="1"/>
        <pt x="432" y="576" on="0"/>
        <pt x="576" y="596" on="0"/>
        <pt x="605" y="608" on="1"/>
        <pt x="660" y="631" on="0"/>
        <pt x="660" y="759" on="0"/>
        <pt x="583" y="849" on="0"/>
        <pt x="450" y="849" on="0"/>
        <pt x="248" y="760" on="0"/>
        <pt x="218" y="760" on="1"/>
        <pt x="151" y="760" on="0"/>
        <pt x="151" y="844" on="1"/>
        <pt x="151" y="903" on="0"/>
        <pt x="241" y="946" on="1"/>
        <pt x="357" y="1001" on="0"/>
        <pt x="483" y="1001" on="1"/>
        <pt x="532" y="1001" on="1"/>
        <pt x="629" y="1001" on="0"/>
        <pt x="784" y="925" on="0"/>
        <pt x="822" y="866" on="1"/>
        <pt x="876" y="781" on="0"/>
        <pt x="876" y="462" on="1"/>
        <pt x="876" y="269" on="0"/>
        <pt x="889" y="194" on="0"/>
        <pt x="942" y="110" on="0"/>
      </contour>
    </TTGlyph>
    <TTGlyph name="acircumflex" xMin="76" yMin="-13" xMax="946" yMax="1468">
      <contour>
        <pt x="478" y="145" on="1"/>
        <pt x="548" y="145" on="0"/>
        <pt x="672" y="255" on="0"/>
        <pt x="672" y="326" on="1"/>
        <pt x="673" y="333" on="1"/>
        <pt x="674" y="339" on="1"/>
        <pt x="676" y="369" on="1"/>
        <pt x="676" y="378" on="0"/>
        <pt x="676" y="387" on="1"/>
        <pt x="677" y="406" on="1"/>
        <pt x="677" y="458" on="0"/>
        <pt x="645" y="490" on="0"/>
        <pt x="599" y="490" on="1"/>
        <pt x="573" y="490" on="1"/>
        <pt x="566" y="489" on="1"/>
        <pt x="553" y="489" on="1"/>
        <pt x="534" y="487" on="1"/>
        <pt x="521" y="487" on="1"/>
        <pt x="493" y="483" on="0"/>
        <pt x="482" y="483" on="1"/>
        <pt x="405" y="483" on="0"/>
        <pt x="283" y="375" on="0"/>
        <pt x="283" y="300" on="1"/>
        <pt x="283" y="273" on="1"/>
        <pt x="283" y="215" on="0"/>
        <pt x="366" y="142" on="0"/>
        <pt x="427" y="142" on="1"/>
        <pt x="440" y="142" on="1"/>
        <pt x="458" y="145" on="0"/>
      </contour>
      <contour>
        <pt x="757" y="1124" on="1"/>
        <pt x="742" y="1124" on="1"/>
        <pt x="694" y="1124" on="0"/>
        <pt x="526" y="1306" on="0"/>
        <pt x="520" y="1306" on="0"/>
        <pt x="332" y="1133" on="0"/>
        <pt x="225" y="1133" on="0"/>
        <pt x="225" y="1160" on="1"/>
        <pt x="225" y="1166" on="1"/>
        <pt x="225" y="1209" on="0"/>
        <pt x="412" y="1413" on="1"/>
        <pt x="462" y="1468" on="0"/>
        <pt x="520" y="1468" on="1"/>
        <pt x="528" y="1468" on="1"/>
        <pt x="583" y="1468" on="0"/>
        <pt x="628" y="1419" on="1"/>
        <pt x="816" y="1214" on="0"/>
        <pt x="816" y="1157" on="1"/>
        <pt x="816" y="1124" on="0"/>
      </contour>
      <contour>
        <pt x="946" y="81" on="1"/>
        <pt x="946" y="6" on="0"/>
        <pt x="818" y="6" on="1"/>
        <pt x="787" y="6" on="0"/>
        <pt x="664" y="59" on="0"/>
        <pt x="613" y="59" on="0"/>
        <pt x="540" y="25" on="0"/>
        <pt x="435" y="-13" on="0"/>
        <pt x="357" y="-13" on="1"/>
        <pt x="230" y="-13" on="0"/>
        <pt x="76" y="137" on="0"/>
        <pt x="76" y="244" on="1"/>
        <pt x="76" y="268" on="1"/>
        <pt x="76" y="399" on="0"/>
        <pt x="179" y="481" on="1"/>
        <pt x="276" y="558" on="0"/>
        <pt x="494" y="586" on="1"/>
        <pt x="576" y="596" on="0"/>
        <pt x="603" y="608" on="1"/>
        <pt x="666" y="633" on="0"/>
        <pt x="666" y="769" on="0"/>
        <pt x="581" y="854" on="0"/>
        <pt x="447" y="854" on="0"/>
        <pt x="251" y="762" on="0"/>
        <pt x="225" y="762" on="1"/>
        <pt x="149" y="762" on="0"/>
        <pt x="149" y="839" on="1"/>
        <pt x="149" y="902" on="0"/>
        <pt x="231" y="946" on="1"/>
        <pt x="342" y="1006" on="0"/>
        <pt x="474" y="1006" on="1"/>
        <pt x="523" y="1006" on="1"/>
        <pt x="625" y="1006" on="0"/>
        <pt x="791" y="931" on="0"/>
        <pt x="880" y="777" on="0"/>
        <pt x="880" y="449" on="1"/>
        <pt x="880" y="258" on="0"/>
        <pt x="893" y="193" on="0"/>
        <pt x="946" y="106" on="0"/>
      </contour>
    </TTGlyph>
    <TTGlyph name="acute" xMin="198" yMin="1134" xMax="593" yMax="1482">
      <contour>
        <pt x="593" y="1441" on="1"/>
        <pt x="593" y="1427" on="1"/>
        <pt x="593" y="1368" on="0"/>
        <pt x="401" y="1219" on="1"/>
        <pt x="292" y="1134" on="0"/>
        <pt x="251" y="1134" on="1"/>
        <pt x="245" y="1134" on="1"/>
        <pt x="198" y="1134" on="0"/>
        <pt x="198" y="1160" on="1"/>
        <pt x="198" y="1165" on="1"/>
        <pt x="199" y="1170" on="1"/>
        <pt x="199" y="1203" on="0"/>
        <pt x="360" y="1410" on="1"/>
        <pt x="414" y="1480" on="0"/>
        <pt x="481" y="1480" on="1"/>
        <pt x="492" y="1482" on="1"/>
        <pt x="515" y="1482" on="1"/>
        <pt x="593" y="1482" on="0"/>
      </contour>
    </TTGlyph>
    <TTGlyph name="adieresis" xMin="77" yMin="-9" xMax="940" yMax="1401">
      <contour>
        <pt x="560" y="502" on="1"/>
        <pt x="512" y="494" on="0"/>
        <pt x="484" y="494" on="1"/>
        <pt x="391" y="494" on="0"/>
        <pt x="278" y="381" on="0"/>
        <pt x="278" y="310" on="1"/>
        <pt x="278" y="289" on="1"/>
        <pt x="278" y="232" on="0"/>
        <pt x="350" y="151" on="0"/>
        <pt x="414" y="151" on="1"/>
        <pt x="446" y="151" on="1"/>
        <pt x="547" y="151" on="0"/>
        <pt x="620" y="233" on="1"/>
        <pt x="663" y="281" on="0"/>
        <pt x="663" y="399" on="1"/>
        <pt x="664" y="424" on="1"/>
        <pt x="664" y="443" on="1"/>
        <pt x="664" y="503" on="0"/>
        <pt x="605" y="503" on="1"/>
        <pt x="580" y="503" on="1"/>
        <pt x="573" y="502" on="1"/>
      </contour>
      <contour>
        <pt x="221" y="1297" on="1"/>
        <pt x="221" y="1342" on="0"/>
        <pt x="265" y="1397" on="0"/>
        <pt x="299" y="1397" on="1"/>
        <pt x="307" y="1399" on="0"/>
        <pt x="310" y="1399" on="1"/>
        <pt x="326" y="1401" on="1"/>
        <pt x="352" y="1401" on="1"/>
        <pt x="444" y="1401" on="0"/>
        <pt x="444" y="1303" on="1"/>
        <pt x="444" y="1287" on="1"/>
        <pt x="444" y="1234" on="0"/>
        <pt x="397" y="1178" on="0"/>
        <pt x="358" y="1178" on="1"/>
        <pt x="335" y="1175" on="1"/>
        <pt x="316" y="1175" on="1"/>
        <pt x="283" y="1180" on="1"/>
        <pt x="225" y="1180" on="0"/>
        <pt x="225" y="1243" on="1"/>
        <pt x="223" y="1251" on="0"/>
        <pt x="223" y="1254" on="1"/>
        <pt x="221" y="1269" on="1"/>
      </contour>
      <contour>
        <pt x="592" y="1251" on="1"/>
        <pt x="592" y="1285" on="1"/>
        <pt x="592" y="1379" on="0"/>
        <pt x="701" y="1379" on="1"/>
        <pt x="718" y="1379" on="1"/>
        <pt x="749" y="1375" on="1"/>
        <pt x="820" y="1375" on="0"/>
        <pt x="820" y="1303" on="1"/>
        <pt x="823" y="1284" on="1"/>
        <pt x="823" y="1254" on="1"/>
        <pt x="820" y="1242" on="0"/>
        <pt x="820" y="1209" on="0"/>
        <pt x="775" y="1155" on="0"/>
        <pt x="727" y="1155" on="1"/>
        <pt x="695" y="1155" on="1"/>
        <pt x="669" y="1159" on="1"/>
        <pt x="635" y="1159" on="0"/>
        <pt x="592" y="1213" on="0"/>
      </contour>
      <contour>
        <pt x="940" y="86" on="1"/>
        <pt x="940" y="10" on="0"/>
        <pt x="814" y="10" on="1"/>
        <pt x="780" y="10" on="0"/>
        <pt x="658" y="63" on="0"/>
        <pt x="612" y="63" on="0"/>
        <pt x="533" y="27" on="0"/>
        <pt x="433" y="-9" on="0"/>
        <pt x="356" y="-9" on="1"/>
        <pt x="228" y="-9" on="0"/>
        <pt x="77" y="138" on="0"/>
        <pt x="77" y="245" on="1"/>
        <pt x="77" y="269" on="1"/>
        <pt x="77" y="403" on="0"/>
        <pt x="282" y="562" on="0"/>
        <pt x="497" y="589" on="1"/>
        <pt x="576" y="599" on="0"/>
        <pt x="602" y="610" on="1"/>
        <pt x="664" y="636" on="0"/>
        <pt x="664" y="770" on="0"/>
        <pt x="580" y="858" on="0"/>
        <pt x="447" y="858" on="0"/>
        <pt x="246" y="766" on="0"/>
        <pt x="224" y="766" on="1"/>
        <pt x="146" y="766" on="0"/>
        <pt x="146" y="842" on="1"/>
        <pt x="146" y="906" on="0"/>
        <pt x="227" y="948" on="1"/>
        <pt x="342" y="1007" on="0"/>
        <pt x="493" y="1007" on="1"/>
        <pt x="518" y="1007" on="1"/>
        <pt x="742" y="1006" on="0"/>
        <pt x="832" y="854" on="1"/>
        <pt x="874" y="782" on="0"/>
        <pt x="875" y="453" on="1"/>
        <pt x="875" y="261" on="0"/>
        <pt x="886" y="197" on="0"/>
        <pt x="940" y="112" on="0"/>
      </contour>
    </TTGlyph>
    <TTGlyph name="ae" xMin="89" yMin="-8" xMax="1486" yMax="1002">
      <contour>
        <pt x="634" y="487" on="1"/>
        <pt x="583" y="487" on="1"/>
        <pt x="577" y="486" on="1"/>
        <pt x="525" y="482" on="1"/>
        <pt x="518" y="481" on="0"/>
        <pt x="513" y="481" on="1"/>
        <pt x="419" y="481" on="0"/>
        <pt x="298" y="375" on="0"/>
        <pt x="298" y="299" on="1"/>
        <pt x="298" y="286" on="1"/>
        <pt x="298" y="219" on="0"/>
        <pt x="377" y="150" on="0"/>
        <pt x="446" y="150" on="1"/>
        <pt x="459" y="150" on="1"/>
        <pt x="563" y="150" on="0"/>
        <pt x="637" y="216" on="1"/>
        <pt x="687" y="260" on="0"/>
        <pt x="687" y="377" on="1"/>
        <pt x="688" y="384" on="1"/>
        <pt x="688" y="396" on="0"/>
        <pt x="688" y="408" on="1"/>
        <pt x="689" y="421" on="1"/>
        <pt x="689" y="487" on="0"/>
      </contour>
      <contour>
        <pt x="1147" y="575" on="0"/>
        <pt x="1214" y="575" on="0"/>
        <pt x="1275" y="613" on="0"/>
        <pt x="1275" y="655" on="1"/>
        <pt x="1275" y="668" on="1"/>
        <pt x="1274" y="674" on="1"/>
        <pt x="1274" y="750" on="0"/>
        <pt x="1181" y="857" on="0"/>
        <pt x="1112" y="857" on="1"/>
        <pt x="1074" y="857" on="1"/>
        <pt x="991" y="857" on="0"/>
        <pt x="867" y="715" on="0"/>
        <pt x="867" y="614" on="1"/>
        <pt x="867" y="596" on="1"/>
        <pt x="867" y="559" on="0"/>
        <pt x="934" y="559" on="1"/>
        <pt x="963" y="559" on="1"/>
        <pt x="969" y="560" on="1"/>
        <pt x="1111" y="569" on="1"/>
      </contour>
      <contour>
        <pt x="1442" y="168" on="1"/>
        <pt x="1442" y="98" on="0"/>
        <pt x="1222" y="-8" on="0"/>
        <pt x="986" y="-8" on="0"/>
        <pt x="899" y="29" on="1"/>
        <pt x="865" y="44" on="0"/>
        <pt x="751" y="119" on="0"/>
        <pt x="723" y="119" on="1"/>
        <pt x="719" y="119" on="0"/>
        <pt x="591" y="37" on="0"/>
        <pt x="460" y="-5" on="0"/>
        <pt x="234" y="-5" on="0"/>
        <pt x="89" y="147" on="0"/>
        <pt x="89" y="255" on="1"/>
        <pt x="89" y="504" on="0"/>
        <pt x="402" y="570" on="1"/>
        <pt x="613" y="614" on="0"/>
        <pt x="617" y="616" on="1"/>
        <pt x="667" y="639" on="0"/>
        <pt x="667" y="763" on="0"/>
        <pt x="585" y="856" on="0"/>
        <pt x="440" y="856" on="0"/>
        <pt x="275" y="767" on="0"/>
        <pt x="238" y="767" on="1"/>
        <pt x="172" y="767" on="0"/>
        <pt x="172" y="900" on="0"/>
        <pt x="374" y="998" on="0"/>
        <pt x="599" y="998" on="0"/>
        <pt x="669" y="970" on="1"/>
        <pt x="691" y="961" on="0"/>
        <pt x="776" y="913" on="0"/>
        <pt x="804" y="913" on="0"/>
        <pt x="1026" y="1002" on="0"/>
        <pt x="1095" y="1002" on="1"/>
        <pt x="1129" y="1002" on="1"/>
        <pt x="1362" y="1002" on="0"/>
        <pt x="1454" y="804" on="1"/>
        <pt x="1486" y="734" on="0"/>
        <pt x="1486" y="550" on="0"/>
        <pt x="1391" y="488" on="0"/>
        <pt x="968" y="451" on="0"/>
        <pt x="958" y="448" on="1"/>
        <pt x="888" y="430" on="0"/>
        <pt x="888" y="259" on="0"/>
        <pt x="1022" y="146" on="0"/>
        <pt x="1138" y="146" on="1"/>
        <pt x="1186" y="146" on="0"/>
        <pt x="1381" y="211" on="0"/>
        <pt x="1399" y="211" on="1"/>
        <pt x="1442" y="211" on="0"/>
      </contour>
    </TTGlyph>
    <TTGlyph name="agrave" xMin="78" yMin="-11" xMax="943" yMax="1471">
      <contour>
        <pt x="441" y="144" on="1"/>
        <pt x="454" y="144" on="1"/>
        <pt x="674" y="144" on="0"/>
        <pt x="674" y="386" on="1"/>
        <pt x="675" y="399" on="1"/>
        <pt x="675" y="405" on="1"/>
        <pt x="675" y="455" on="0"/>
        <pt x="652" y="497" on="0"/>
        <pt x="609" y="497" on="1"/>
        <pt x="569" y="497" on="1"/>
        <pt x="543" y="495" on="1"/>
        <pt x="511" y="492" on="1"/>
        <pt x="484" y="490" on="1"/>
        <pt x="401" y="490" on="0"/>
        <pt x="284" y="388" on="0"/>
        <pt x="284" y="311" on="1"/>
        <pt x="284" y="290" on="1"/>
        <pt x="284" y="222" on="0"/>
        <pt x="372" y="144" on="0"/>
      </contour>
      <contour>
        <pt x="266" y="1411" on="1"/>
        <pt x="266" y="1420" on="1"/>
        <pt x="266" y="1471" on="0"/>
        <pt x="359" y="1471" on="1"/>
        <pt x="364" y="1470" on="1"/>
        <pt x="442" y="1470" on="0"/>
        <pt x="493" y="1405" on="1"/>
        <pt x="652" y="1201" on="0"/>
        <pt x="652" y="1158" on="1"/>
        <pt x="652" y="1143" on="1"/>
        <pt x="652" y="1119" on="0"/>
        <pt x="606" y="1119" on="1"/>
        <pt x="590" y="1119" on="1"/>
        <pt x="554" y="1119" on="0"/>
        <pt x="266" y="1375" on="0"/>
      </contour>
      <contour>
        <pt x="943" y="82" on="1"/>
        <pt x="943" y="9" on="0"/>
        <pt x="813" y="9" on="1"/>
        <pt x="777" y="9" on="0"/>
        <pt x="664" y="60" on="0"/>
        <pt x="615" y="60" on="0"/>
        <pt x="588" y="49" on="1"/>
        <pt x="569" y="40" on="1"/>
        <pt x="550" y="32" on="1"/>
        <pt x="448" y="-11" on="0"/>
        <pt x="241" y="-11" on="0"/>
        <pt x="78" y="127" on="0"/>
        <pt x="78" y="263" on="1"/>
        <pt x="78" y="501" on="0"/>
        <pt x="386" y="570" on="1"/>
        <pt x="405" y="574" on="0"/>
        <pt x="594" y="603" on="0"/>
        <pt x="622" y="618" on="1"/>
        <pt x="667" y="642" on="0"/>
        <pt x="667" y="774" on="0"/>
        <pt x="580" y="857" on="0"/>
        <pt x="442" y="857" on="0"/>
        <pt x="258" y="765" on="0"/>
        <pt x="224" y="765" on="1"/>
        <pt x="149" y="765" on="0"/>
        <pt x="149" y="843" on="1"/>
        <pt x="149" y="908" on="0"/>
        <pt x="232" y="948" on="1"/>
        <pt x="354" y="1007" on="0"/>
        <pt x="484" y="1007" on="1"/>
        <pt x="732" y="1007" on="0"/>
        <pt x="821" y="877" on="1"/>
        <pt x="860" y="820" on="0"/>
        <pt x="878" y="698" on="0"/>
        <pt x="878" y="253" on="0"/>
        <pt x="890" y="196" on="0"/>
        <pt x="943" y="109" on="0"/>
      </contour>
    </TTGlyph>
    <TTGlyph name="ampersand" xMin="128" yMin="-7" xMax="1250" yMax="1373">
      <contour>
        <pt x="506" y="1112" on="1"/>
        <pt x="506" y="1077" on="1"/>
        <pt x="506" y="1000" on="0"/>
        <pt x="569" y="906" on="1"/>
        <pt x="597" y="864" on="0"/>
        <pt x="611" y="864" on="1"/>
        <pt x="620" y="864" on="1"/>
        <pt x="678" y="864" on="0"/>
        <pt x="745" y="984" on="1"/>
        <pt x="786" y="1058" on="0"/>
        <pt x="786" y="1200" on="0"/>
        <pt x="715" y="1281" on="0"/>
        <pt x="668" y="1281" on="1"/>
        <pt x="652" y="1281" on="1"/>
        <pt x="592" y="1281" on="0"/>
        <pt x="506" y="1182" on="0"/>
      </contour>
      <contour>
        <pt x="615" y="138" on="1"/>
        <pt x="689" y="138" on="0"/>
        <pt x="816" y="233" on="0"/>
        <pt x="816" y="266" on="0"/>
        <pt x="518" y="654" on="0"/>
        <pt x="505" y="654" on="1"/>
        <pt x="455" y="654" on="0"/>
        <pt x="372" y="544" on="1"/>
        <pt x="322" y="477" on="0"/>
        <pt x="322" y="400" on="1"/>
        <pt x="322" y="383" on="1"/>
        <pt x="322" y="282" on="0"/>
        <pt x="455" y="136" on="0"/>
        <pt x="551" y="136" on="1"/>
        <pt x="591" y="136" on="1"/>
        <pt x="607" y="138" on="0"/>
      </contour>
      <contour>
        <pt x="914" y="1126" on="1"/>
        <pt x="914" y="1071" on="0"/>
        <pt x="810" y="738" on="0"/>
        <pt x="810" y="621" on="0"/>
        <pt x="902" y="559" on="0"/>
        <pt x="963" y="559" on="1"/>
        <pt x="968" y="559" on="0"/>
        <pt x="1128" y="704" on="0"/>
        <pt x="1244" y="704" on="0"/>
        <pt x="1244" y="657" on="1"/>
        <pt x="1244" y="638" on="0"/>
        <pt x="1135" y="391" on="0"/>
        <pt x="1135" y="251" on="0"/>
        <pt x="1250" y="95" on="0"/>
        <pt x="1250" y="77" on="1"/>
        <pt x="1250" y="44" on="0"/>
        <pt x="1197" y="44" on="1"/>
        <pt x="1182" y="44" on="0"/>
        <pt x="1140" y="52" on="1"/>
        <pt x="1119" y="57" on="1"/>
        <pt x="1085" y="65" on="0"/>
        <pt x="1020" y="65" on="0"/>
        <pt x="812" y="40" on="0"/>
        <pt x="592" y="-7" on="0"/>
        <pt x="431" y="-7" on="0"/>
        <pt x="282" y="52" on="0"/>
        <pt x="234" y="99" on="1"/>
        <pt x="128" y="202" on="0"/>
        <pt x="128" y="526" on="0"/>
        <pt x="294" y="680" on="1"/>
        <pt x="380" y="760" on="0"/>
        <pt x="380" y="800" on="1"/>
        <pt x="380" y="806" on="0"/>
        <pt x="311" y="1002" on="0"/>
        <pt x="311" y="1067" on="1"/>
        <pt x="311" y="1186" on="0"/>
        <pt x="399" y="1276" on="1"/>
        <pt x="437" y="1315" on="0"/>
        <pt x="562" y="1373" on="0"/>
        <pt x="632" y="1373" on="1"/>
        <pt x="757" y="1373" on="0"/>
        <pt x="914" y="1232" on="0"/>
      </contour>
    </TTGlyph>
    <TTGlyph name="aring" xMin="71" yMin="-6" xMax="948" yMax="1529">
      <contour>
        <pt x="501" y="1226" on="1"/>
        <pt x="529" y="1226" on="1"/>
        <pt x="549" y="1230" on="1"/>
        <pt x="566" y="1230" on="0"/>
        <pt x="620" y="1284" on="0"/>
        <pt x="620" y="1315" on="1"/>
        <pt x="622" y="1332" on="1"/>
        <pt x="622" y="1340" on="1"/>
        <pt x="622" y="1374" on="0"/>
        <pt x="573" y="1435" on="0"/>
        <pt x="546" y="1435" on="1"/>
        <pt x="529" y="1438" on="1"/>
        <pt x="504" y="1438" on="1"/>
        <pt x="483" y="1434" on="1"/>
        <pt x="466" y="1434" on="0"/>
        <pt x="413" y="1381" on="0"/>
        <pt x="413" y="1350" on="1"/>
        <pt x="411" y="1332" on="1"/>
        <pt x="411" y="1325" on="1"/>
        <pt x="415" y="1297" on="1"/>
        <pt x="415" y="1278" on="0"/>
        <pt x="463" y="1230" on="0"/>
        <pt x="484" y="1230" on="1"/>
        <pt x="496" y="1226" on="0"/>
      </contour>
      <contour>
        <pt x="420" y="141" on="1"/>
        <pt x="452" y="141" on="1"/>
        <pt x="536" y="141" on="0"/>
        <pt x="667" y="257" on="0"/>
        <pt x="667" y="332" on="1"/>
        <pt x="669" y="344" on="1"/>
        <pt x="672" y="393" on="1"/>
        <pt x="672" y="443" on="1"/>
        <pt x="672" y="490" on="0"/>
        <pt x="615" y="490" on="1"/>
        <pt x="597" y="490" on="1"/>
        <pt x="590" y="489" on="1"/>
        <pt x="577" y="489" on="1"/>
        <pt x="541" y="483" on="0"/>
        <pt x="519" y="483" on="1"/>
        <pt x="418" y="483" on="0"/>
        <pt x="281" y="377" on="0"/>
        <pt x="281" y="296" on="1"/>
        <pt x="281" y="269" on="1"/>
        <pt x="281" y="212" on="0"/>
        <pt x="362" y="141" on="0"/>
      </contour>
      <contour>
        <pt x="509" y="1529" on="1"/>
        <pt x="530" y="1529" on="1"/>
        <pt x="611" y="1529" on="0"/>
        <pt x="730" y="1421" on="0"/>
        <pt x="730" y="1342" on="1"/>
        <pt x="730" y="1314" on="1"/>
        <pt x="730" y="1241" on="0"/>
        <pt x="613" y="1124" on="0"/>
        <pt x="539" y="1124" on="1"/>
        <pt x="504" y="1124" on="1"/>
        <pt x="429" y="1124" on="0"/>
        <pt x="306" y="1234" on="0"/>
        <pt x="306" y="1320" on="1"/>
        <pt x="306" y="1340" on="1"/>
        <pt x="306" y="1419" on="0"/>
        <pt x="430" y="1529" on="0"/>
      </contour>
      <contour>
        <pt x="948" y="82" on="1"/>
        <pt x="948" y="13" on="0"/>
        <pt x="812" y="13" on="1"/>
        <pt x="776" y="13" on="0"/>
        <pt x="662" y="68" on="0"/>
        <pt x="625" y="68" on="0"/>
        <pt x="435" y="-6" on="0"/>
        <pt x="372" y="-6" on="1"/>
        <pt x="349" y="-6" on="1"/>
        <pt x="223" y="-6" on="0"/>
        <pt x="71" y="146" on="0"/>
        <pt x="71" y="256" on="1"/>
        <pt x="71" y="280" on="1"/>
        <pt x="71" y="408" on="0"/>
        <pt x="194" y="500" on="1"/>
        <pt x="262" y="550" on="0"/>
        <pt x="387" y="575" on="1"/>
        <pt x="457" y="587" on="1"/>
        <pt x="504" y="593" on="1"/>
        <pt x="583" y="605" on="0"/>
        <pt x="607" y="616" on="1"/>
        <pt x="663" y="641" on="0"/>
        <pt x="663" y="783" on="0"/>
        <pt x="573" y="860" on="0"/>
        <pt x="443" y="860" on="0"/>
        <pt x="248" y="765" on="0"/>
        <pt x="214" y="765" on="1"/>
        <pt x="145" y="765" on="0"/>
        <pt x="145" y="849" on="1"/>
        <pt x="145" y="909" on="0"/>
        <pt x="233" y="953" on="1"/>
        <pt x="349" y="1011" on="0"/>
        <pt x="478" y="1011" on="1"/>
        <pt x="527" y="1011" on="1"/>
        <pt x="627" y="1011" on="0"/>
        <pt x="783" y="937" on="0"/>
        <pt x="856" y="826" on="0"/>
        <pt x="879" y="696" on="0"/>
        <pt x="879" y="276" on="0"/>
        <pt x="891" y="197" on="0"/>
        <pt x="948" y="115" on="0"/>
      </contour>
    </TTGlyph>
    <TTGlyph name="asciicircum" xMin="144" yMin="763" xMax="922" yMax="1373">
      <contour>
        <pt x="551" y="1373" on="1"/>
        <pt x="563" y="1373" on="1"/>
        <pt x="611" y="1373" on="0"/>
        <pt x="665" y="1284" on="1"/>
        <pt x="922" y="862" on="0"/>
        <pt x="922" y="793" on="1"/>
        <pt x="922" y="765" on="0"/>
        <pt x="807" y="765" on="0"/>
        <pt x="715" y="885" on="0"/>
        <pt x="555" y="1180" on="0"/>
        <pt x="539" y="1180" on="1"/>
        <pt x="535" y="1180" on="0"/>
        <pt x="342" y="871" on="0"/>
        <pt x="250" y="763" on="0"/>
        <pt x="144" y="763" on="0"/>
        <pt x="144" y="788" on="1"/>
        <pt x="144" y="863" on="0"/>
        <pt x="448" y="1300" on="1"/>
        <pt x="499" y="1373" on="0"/>
      </contour>
    </TTGlyph>
    <TTGlyph name="asciitilde" xMin="123" yMin="570" xMax="987" yMax="846">
      <contour>
        <pt x="752" y="570" on="1"/>
        <pt x="730" y="570" on="1"/>
        <pt x="666" y="570" on="0"/>
        <pt x="408" y="693" on="0"/>
        <pt x="323" y="693" on="0"/>
        <pt x="178" y="591" on="0"/>
        <pt x="163" y="591" on="1"/>
        <pt x="123" y="591" on="0"/>
        <pt x="123" y="634" on="1"/>
        <pt x="123" y="722" on="0"/>
        <pt x="219" y="795" on="1"/>
        <pt x="286" y="846" on="0"/>
        <pt x="369" y="846" on="1"/>
        <pt x="380" y="845" on="1"/>
        <pt x="448" y="845" on="0"/>
        <pt x="692" y="723" on="0"/>
        <pt x="792" y="723" on="0"/>
        <pt x="926" y="823" on="0"/>
        <pt x="947" y="823" on="1"/>
        <pt x="987" y="823" on="0"/>
        <pt x="987" y="781" on="1"/>
        <pt x="987" y="771" on="1"/>
        <pt x="987" y="699" on="0"/>
        <pt x="831" y="570" on="0"/>
      </contour>
    </TTGlyph>
    <TTGlyph name="asterisk" xMin="204" yMin="756" xMax="841" yMax="1402">
      <contour>
        <pt x="438" y="1262" on="1"/>
        <pt x="438" y="1402" on="0"/>
        <pt x="524" y="1402" on="1"/>
        <pt x="569" y="1402" on="0"/>
        <pt x="594" y="1372" on="0"/>
        <pt x="594" y="1263" on="0"/>
        <pt x="581" y="1172" on="0"/>
        <pt x="581" y="1156" on="0"/>
        <pt x="591" y="1156" on="0"/>
        <pt x="639" y="1178" on="1"/>
        <pt x="667" y="1192" on="1"/>
        <pt x="733" y="1223" on="0"/>
        <pt x="764" y="1223" on="1"/>
        <pt x="841" y="1223" on="0"/>
        <pt x="841" y="1097" on="0"/>
        <pt x="664" y="1024" on="0"/>
        <pt x="664" y="1000" on="1"/>
        <pt x="664" y="996" on="0"/>
        <pt x="719" y="936" on="1"/>
        <pt x="751" y="901" on="0"/>
        <pt x="751" y="833" on="1"/>
        <pt x="751" y="796" on="0"/>
        <pt x="654" y="796" on="0"/>
        <pt x="575" y="830" on="0"/>
        <pt x="563" y="830" on="0"/>
        <pt x="448" y="756" on="0"/>
        <pt x="381" y="756" on="0"/>
        <pt x="262" y="862" on="1"/>
        <pt x="241" y="881" on="0"/>
        <pt x="241" y="944" on="0"/>
        <pt x="254" y="975" on="0"/>
        <pt x="264" y="1024" on="0"/>
        <pt x="278" y="1048" on="0"/>
        <pt x="278" y="1057" on="0"/>
        <pt x="246" y="1084" on="0"/>
        <pt x="239" y="1096" on="1"/>
        <pt x="204" y="1163" on="0"/>
        <pt x="204" y="1181" on="1"/>
        <pt x="204" y="1191" on="1"/>
        <pt x="204" y="1240" on="0"/>
        <pt x="267" y="1240" on="1"/>
        <pt x="299" y="1240" on="0"/>
        <pt x="397" y="1194" on="0"/>
        <pt x="425" y="1194" on="1"/>
        <pt x="438" y="1194" on="0"/>
      </contour>
    </TTGlyph>
    <TTGlyph name="at" xMin="118" yMin="-211" xMax="1596" yMax="1328">
      <contour>
        <pt x="948" y="823" on="1"/>
        <pt x="925" y="823" on="1"/>
        <pt x="814" y="823" on="0"/>
        <pt x="655" y="617" on="0"/>
        <pt x="655" y="482" on="1"/>
        <pt x="655" y="458" on="1"/>
        <pt x="656" y="450" on="1"/>
        <pt x="656" y="442" on="0"/>
        <pt x="656" y="434" on="1"/>
        <pt x="659" y="387" on="1"/>
        <pt x="659" y="335" on="0"/>
        <pt x="721" y="273" on="0"/>
        <pt x="756" y="273" on="1"/>
        <pt x="777" y="273" on="1"/>
        <pt x="808" y="273" on="0"/>
        <pt x="930" y="334" on="0"/>
        <pt x="970" y="399" on="1"/>
        <pt x="1044" y="519" on="0"/>
        <pt x="1044" y="718" on="1"/>
        <pt x="1044" y="732" on="1"/>
        <pt x="1044" y="776" on="0"/>
        <pt x="991" y="823" on="0"/>
      </contour>
      <contour>
        <pt x="1277" y="189" on="0"/>
        <pt x="1136" y="189" on="0"/>
        <pt x="1003" y="246" on="0"/>
        <pt x="978" y="246" on="1"/>
        <pt x="940" y="236" on="1"/>
        <pt x="897" y="220" on="1"/>
        <pt x="821" y="193" on="0"/>
        <pt x="755" y="193" on="1"/>
        <pt x="654" y="193" on="0"/>
        <pt x="544" y="341" on="0"/>
        <pt x="544" y="462" on="1"/>
        <pt x="544" y="528" on="0"/>
        <pt x="609" y="728" on="0"/>
        <pt x="717" y="862" on="0"/>
        <pt x="828" y="914" on="0"/>
        <pt x="897" y="914" on="1"/>
        <pt x="938" y="910" on="1"/>
        <pt x="977" y="905" on="1"/>
        <pt x="1014" y="906" on="1"/>
        <pt x="1083" y="910" on="1"/>
        <pt x="1135" y="910" on="0"/>
        <pt x="1156" y="846" on="1"/>
        <pt x="1167" y="813" on="0"/>
        <pt x="1167" y="467" on="0"/>
        <pt x="1181" y="426" on="1"/>
        <pt x="1201" y="366" on="0"/>
        <pt x="1322" y="366" on="0"/>
        <pt x="1418" y="547" on="0"/>
        <pt x="1418" y="659" on="1"/>
        <pt x="1418" y="861" on="0"/>
        <pt x="1300" y="995" on="1"/>
        <pt x="1159" y="1155" on="0"/>
        <pt x="661" y="1155" on="0"/>
        <pt x="490" y="969" on="1"/>
        <pt x="313" y="776" on="0"/>
        <pt x="313" y="496" on="1"/>
        <pt x="314" y="368" on="0"/>
        <pt x="360" y="258" on="1"/>
        <pt x="450" y="45" on="0"/>
        <pt x="661" y="-39" on="1"/>
        <pt x="770" y="-82" on="0"/>
        <pt x="924" y="-82" on="1"/>
        <pt x="968" y="-82" on="0"/>
        <pt x="1027" y="-76" on="1"/>
        <pt x="1161" y="-59" on="1"/>
        <pt x="1217" y="-59" on="0"/>
        <pt x="1217" y="-140" on="0"/>
        <pt x="1051" y="-184" on="1"/>
        <pt x="950" y="-211" on="0"/>
        <pt x="812" y="-211" on="1"/>
        <pt x="674" y="-210" on="0"/>
        <pt x="540" y="-160" on="1"/>
        <pt x="408" y="-110" on="0"/>
        <pt x="310" y="-12" on="1"/>
        <pt x="118" y="181" on="0"/>
        <pt x="118" y="511" on="1"/>
        <pt x="118" y="688" on="0"/>
        <pt x="182" y="838" on="1"/>
        <pt x="310" y="1134" on="0"/>
        <pt x="582" y="1255" on="1"/>
        <pt x="744" y="1328" on="0"/>
        <pt x="912" y="1328" on="1"/>
        <pt x="1215" y="1328" on="0"/>
        <pt x="1596" y="984" on="0"/>
        <pt x="1596" y="708" on="1"/>
        <pt x="1596" y="584" on="0"/>
        <pt x="1558" y="481" on="1"/>
        <pt x="1496" y="312" on="0"/>
        <pt x="1350" y="230" on="1"/>
      </contour>
    </TTGlyph>
    <TTGlyph name="atilde" xMin="78" yMin="-10" xMax="943" yMax="1387">
      <contour>
        <pt x="280" y="304" on="1"/>
        <pt x="280" y="291" on="1"/>
        <pt x="280" y="228" on="0"/>
        <pt x="367" y="152" on="0"/>
        <pt x="446" y="152" on="1"/>
        <pt x="452" y="152" on="1"/>
        <pt x="530" y="152" on="0"/>
        <pt x="673" y="252" on="0"/>
        <pt x="673" y="328" on="1"/>
        <pt x="674" y="334" on="1"/>
        <pt x="675" y="341" on="1"/>
        <pt x="678" y="390" on="1"/>
        <pt x="678" y="415" on="1"/>
        <pt x="677" y="421" on="1"/>
        <pt x="677" y="427" on="0"/>
        <pt x="677" y="433" on="1"/>
        <pt x="675" y="457" on="1"/>
        <pt x="675" y="499" on="0"/>
        <pt x="617" y="499" on="1"/>
        <pt x="585" y="499" on="1"/>
        <pt x="578" y="498" on="1"/>
        <pt x="494" y="493" on="1"/>
        <pt x="474" y="490" on="0"/>
        <pt x="469" y="490" on="1"/>
        <pt x="397" y="490" on="0"/>
        <pt x="280" y="386" on="0"/>
      </contour>
      <contour>
        <pt x="851" y="1330" on="1"/>
        <pt x="851" y="1314" on="1"/>
        <pt x="851" y="1266" on="0"/>
        <pt x="742" y="1147" on="0"/>
        <pt x="674" y="1147" on="1"/>
        <pt x="642" y="1147" on="1"/>
        <pt x="589" y="1147" on="0"/>
        <pt x="422" y="1241" on="0"/>
        <pt x="343" y="1241" on="0"/>
        <pt x="257" y="1169" on="0"/>
        <pt x="189" y="1169" on="0"/>
        <pt x="189" y="1205" on="1"/>
        <pt x="189" y="1221" on="1"/>
        <pt x="189" y="1281" on="0"/>
        <pt x="315" y="1387" on="0"/>
        <pt x="373" y="1387" on="1"/>
        <pt x="398" y="1387" on="1"/>
        <pt x="443" y="1387" on="0"/>
        <pt x="634" y="1297" on="0"/>
        <pt x="697" y="1297" on="0"/>
        <pt x="789" y="1368" on="0"/>
        <pt x="813" y="1368" on="1"/>
        <pt x="851" y="1368" on="0"/>
      </contour>
      <contour>
        <pt x="943" y="85" on="1"/>
        <pt x="943" y="9" on="0"/>
        <pt x="815" y="9" on="1"/>
        <pt x="782" y="9" on="0"/>
        <pt x="660" y="62" on="0"/>
        <pt x="611" y="62" on="0"/>
        <pt x="574" y="44" on="1"/>
        <pt x="459" y="-10" on="0"/>
        <pt x="228" y="-10" on="0"/>
        <pt x="78" y="140" on="0"/>
        <pt x="78" y="396" on="0"/>
        <pt x="276" y="558" on="0"/>
        <pt x="500" y="588" on="1"/>
        <pt x="578" y="598" on="0"/>
        <pt x="605" y="609" on="1"/>
        <pt x="666" y="633" on="0"/>
        <pt x="666" y="771" on="0"/>
        <pt x="581" y="856" on="0"/>
        <pt x="447" y="856" on="0"/>
        <pt x="253" y="765" on="0"/>
        <pt x="226" y="765" on="1"/>
        <pt x="148" y="765" on="0"/>
        <pt x="148" y="841" on="1"/>
        <pt x="148" y="905" on="0"/>
        <pt x="229" y="947" on="1"/>
        <pt x="344" y="1006" on="0"/>
        <pt x="496" y="1006" on="1"/>
        <pt x="520" y="1006" on="1"/>
        <pt x="611" y="1006" on="0"/>
        <pt x="692" y="975" on="1"/>
        <pt x="841" y="918" on="0"/>
        <pt x="868" y="756" on="1"/>
        <pt x="877" y="704" on="0"/>
        <pt x="877" y="256" on="0"/>
        <pt x="889" y="194" on="0"/>
        <pt x="943" y="109" on="0"/>
      </contour>
    </TTGlyph>
</ttFont>
